<?xml version="1.0" standalone="no"?>
<!DOCTYPE svg PUBLIC "-//W3C//DTD SVG 1.1//EN" "http://www.w3.org/Graphics/SVG/1.1/DTD/svg11.dtd" >
<svg xmlns="http://www.w3.org/2000/svg" xmlns:xlink="http://www.w3.org/1999/xlink" version="1.1">
<metadata>
Created by FontForge 20190801 at Tue Oct 23 20:53:14 2018
 By Unknown
Copyright (c)2014 Commercial Type.
</metadata>
<defs>
<font id="." horiz-adv-x="706" >
  <font-face 
    font-family="."
    font-weight="700"
    font-style="italic"
    font-stretch="normal"
    units-per-em="1000"
    panose-1="0 0 0 0 0 0 0 0 0 0"
    ascent="800"
    descent="-200"
    x-height="538"
    cap-height="744"
    bbox="-99 -298 2631 1201"
    underline-thickness="131"
    underline-position="-110"
    slope="-9"
    unicode-range="U+000D-FB02"
  />
<missing-glyph horiz-adv-x="293" 
 />
    <glyph glyph-name="f_f" unicode="ff" horiz-adv-x="948" 
d="M75 0l59 373h-103l26 165h103l9 60q5 30 17.5 56.5t36.5 46.5t61.5 31.5t92.5 11.5h195l-23 -144h-81q-23 0 -31 -10t-10 -27l-4 -25h167l10 60q4 30 16.5 56.5t36.5 46.5t62 31.5t93 11.5h195l-23 -144h-82q-23 0 -30.5 -10t-10.5 -27l-4 -25h118l-27 -165h-117
l-59 -373h-263l59 373h-168l-59 -373h-262z" />
    <glyph glyph-name="f_i" unicode="fi" horiz-adv-x="851" 
d="M861 583h-265l26 161h265zM769 0h-265l85 538h265zM547 600h-79q-23 0 -31 -10t-10 -27l-4 -25h115l-27 -165h-115l-59 -373h-262l59 373h-103l26 165h103l9 60q5 30 17.5 56.5t36.5 46.5t61.5 31.5t92.5 11.5h193z" />
    <glyph glyph-name="f_l" unicode="fl" horiz-adv-x="851" 
d="M547 600h-79q-23 0 -31 -10t-10 -27l-4 -25h115l-27 -165h-115l-59 -373h-262l59 373h-103l26 165h103l9 60q5 30 17.5 56.5t36.5 46.5t61.5 31.5t92.5 11.5h193zM769 0h-265l118 744h265z" />
    <glyph glyph-name="emdash.alt" unicode="&#x2014;&#x2014;" horiz-adv-x="2640" 
d="M2601 227h-2574l22 142h2575z" />
    <glyph glyph-name=".notdef" horiz-adv-x="293" 
 />
    <glyph glyph-name="NULL" horiz-adv-x="0" 
 />
    <glyph glyph-name="NULL" horiz-adv-x="0" 
 />
    <glyph glyph-name="nonmarkingreturn" unicode="&#xd;" horiz-adv-x="293" 
 />
    <glyph glyph-name="space" unicode=" " horiz-adv-x="293" 
 />
    <glyph glyph-name="dollar" unicode="$" horiz-adv-x="987" 
d="M347 537q0 -11 4 -20.5t16.5 -17.5t36.5 -13.5t64 -8.5l19 121q-47 -2 -74.5 -7.5t-42 -13.5t-19 -18.5t-4.5 -21.5zM673 229q0 13 -5 24.5t-19.5 19.5t-41.5 14t-72 9l-23 -144q53 2 85 9.5t49 18.5t22 24t5 25zM486 -14l-10 -61h-95l10 61q-91 1 -155.5 15t-108 36.5
t-68 50.5t-36 58t-13.5 60t1 55h287q0 -15 4 -31.5t16 -31.5t35.5 -27t63.5 -17l23 146l-60 3q-94 4 -155 22.5t-97 47.5t-50 66.5t-14 79.5q0 19 4 42q7 41 31 77t73.5 62.5t129 41.5t198.5 15h12l9 55h96l-9 -55q126 -2 202.5 -24.5t116.5 -57t51 -77t6 -85.5h-279
q-1 10 -4.5 22.5t-15.5 24.5t-36 22t-66 14l-20 -123l61 -2q93 -3 157.5 -16.5t105.5 -38t59.5 -61.5t18.5 -88q0 -13 -1 -27t-3 -28q-7 -44 -29 -84.5t-72.5 -72t-137.5 -50.5t-224 -19h-12z" />
    <glyph glyph-name="percent" unicode="%" horiz-adv-x="1430" 
d="M387 752q81 0 134 -17.5t84.5 -45.5t44.5 -63t13 -69q0 -29 -10.5 -69t-43 -77.5t-94 -63.5t-163.5 -26h-23q-80 0 -133 17.5t-84.5 46t-44.5 63t-13 69.5q0 19 4 44t15.5 51.5t33 51.5t56 44.5t84 31.5t117.5 12h23zM1280 744l-897 -744h-207l897 744h207zM472 550
q0 28 -22.5 50t-79.5 22q-39 0 -63 -9t-37.5 -23.5t-18.5 -31t-5 -31.5q0 -14 5 -27t17 -23.5t31.5 -17t48.5 -6.5q39 0 63 9.5t37.5 24t18.5 31.5t5 32zM1130 424q81 0 134.5 -17.5t85 -45.5t44.5 -63t13 -69q0 -29 -10.5 -69.5t-43 -77.5t-94 -63t-163.5 -26h-23
q-81 0 -134 17.5t-84.5 46t-44 63t-12.5 69.5q0 20 4 44.5t15.5 51t32.5 51.5t55.5 44.5t84 31.5t118.5 12h22zM1092 124q39 0 63 9.5t37.5 24t18.5 31.5t5 32q0 28 -23 50t-80 22q-39 0 -63 -9t-37.5 -23t-18 -31t-4.5 -32q0 -14 5 -27t17 -23.5t31.5 -17t48.5 -6.5z" />
    <glyph glyph-name="ampersand" unicode="&#x26;" horiz-adv-x="1121" 
d="M447 569q0 -23 20 -46t67 -58q60 19 96.5 43.5t36.5 58.5q0 28 -23 45t-87 17q-33 0 -54.5 -5t-34 -13.5t-17 -19.5t-4.5 -22zM481 139q68 0 126 11l-238 183q-14 -5 -28 -13t-26 -19t-19.5 -25.5t-7.5 -32.5q0 -46 45 -75t148 -29zM1012 -11q-46 0 -83 3.5t-67 10
t-55.5 16t-48.5 22.5q-53 -23 -125.5 -39t-177.5 -16h-22q-121 0 -203 17t-132.5 46t-72 68t-21.5 83q0 85 72 134.5t208 64.5q-89 75 -89 160q0 27 11.5 62t48.5 66t106 52t183 21h49q94 0 154 -13.5t94 -36t46.5 -52.5t12.5 -63q0 -32 -14.5 -62t-47.5 -55.5t-86 -46
t-130 -33.5l168 -132q18 24 30.5 49t20.5 49t12.5 46t7.5 39h234q-10 -69 -46 -138t-95 -129q31 -7 68.5 -9.5t86.5 -2.5z" />
    <glyph glyph-name="quotesingle" unicode="'" horiz-adv-x="274" 
d="M276 482h-212l42 262h212z" />
    <glyph glyph-name="parenleft" unicode="(" horiz-adv-x="352" 
d="M29 235q0 114 30.5 207t74 165t92 122t84.5 79h133q-38 -50 -76 -112.5t-68 -137t-49 -159.5t-19 -179q0 -59 6 -110.5t15.5 -95.5t21 -80.5t21.5 -64.5h-131q-15 20 -37.5 54t-44.5 81t-37.5 105t-15.5 126z" />
    <glyph glyph-name="parenright" unicode=")" horiz-adv-x="352" 
d="M344 443q0 -115 -30.5 -208t-74 -165t-92 -122t-84.5 -79h-133q38 49 75.5 112t67.5 137.5t49 160t19 179.5q0 59 -6 110.5t-15.5 95t-20.5 79.5t-21 65h131q15 -20 37.5 -54t44.5 -80.5t37.5 -105t15.5 -125.5z" />
    <glyph glyph-name="asterisk" unicode="*" horiz-adv-x="460" 
d="M440 710l55 -128l-135 -28l127 -41l-85 -126l-88 83l13 -116h-161l48 116l-112 -74l-47 131l136 27l-127 40l85 126l83 -91l-13 115h161l-46 -115z" />
    <glyph glyph-name="plus" unicode="+" horiz-adv-x="619" 
d="M393 233l-28 -176h-179l28 176h-187l25 151h186l28 175h178l-27 -175h188l-25 -151h-187z" />
    <glyph glyph-name="comma" unicode="," horiz-adv-x="335" 
d="M44 -111q18 25 34.5 56t24.5 55h-116l31 195h275l-26 -160q-3 -18 -11.5 -38t-19.5 -40t-24 -38t-24 -30h-144z" />
    <glyph glyph-name="hyphen" unicode="-" horiz-adv-x="387" 
d="M373 390l-30 -186h-320l30 186h320z" />
    <glyph glyph-name="period" unicode="." horiz-adv-x="335" 
d="M262 0h-275l31 195h275z" />
    <glyph glyph-name="slash" unicode="/" horiz-adv-x="479" 
d="M101 -131h-199l472 939h200z" />
    <glyph glyph-name="one" unicode="1" horiz-adv-x="520" 
d="M47 440l25 155q98 7 154.5 45.5t89.5 103.5h229l-118 -744h-275l70 440h-175z" />
    <glyph glyph-name="two" unicode="2" horiz-adv-x="985" 
d="M67 480l1 8q4 25 11.5 54.5t25.5 59.5t49 58.5t80 50t119.5 34.5t167.5 13h42q129 0 211.5 -18t130 -47.5t65.5 -68t18 -78.5q0 -47 -14.5 -86t-53.5 -70.5t-107 -54t-175 -36.5l-187 -26q-64 -9 -103 -20.5t-60.5 -23.5t-29 -23t-7.5 -19h435l14 88h257l-44 -275h-933
l14 87q4 28 11.5 60t23 65t43 66t73 63t111 55.5t157.5 43.5q19 4 43.5 8.5l49 9t46.5 8t36 6.5q37 7 58 13.5t32 13t14 14t3 16.5t-5 17.5t-21 15.5t-46.5 11t-81.5 4q-63 0 -99.5 -11t-56 -26.5t-26 -32t-8.5 -27.5h-284z" />
    <glyph glyph-name="three" unicode="3" horiz-adv-x="1007" 
d="M451 -14q-104 0 -178 14.5t-123.5 39t-78 55t-42.5 63t-16 63t1 54.5h286q0 -7 3 -23.5t20 -34t54.5 -31t105.5 -13.5q69 0 109.5 7.5t61.5 18.5t27.5 24t6.5 25q0 23 -16.5 36t-66.5 13h-242l28 178h237q54 0 71.5 15t17.5 33q0 10 -5.5 19.5t-24.5 17t-55.5 12
t-98.5 4.5q-66 0 -104.5 -10t-58.5 -23.5t-26 -26t-7 -18.5h-284q3 22 11 50.5t25.5 57t48.5 56t81.5 49t123.5 34.5t174 13h44q144 0 232 -15.5t137 -41t65.5 -58.5t16.5 -68t-14.5 -60.5t-37 -43t-48.5 -27t-48 -12.5q21 -6 43 -18t40 -31.5t30 -47.5t12 -67
q0 -30 -7 -62.5t-26.5 -64t-53.5 -59.5t-88.5 -49.5t-132 -34t-182.5 -12.5h-48z" />
    <glyph glyph-name="four" unicode="4" horiz-adv-x="984" 
d="M591 748h303l-66 -414h150l-30 -192h-150l-23 -142h-275l22 142h-527l25 161zM588 554l-282 -220h246z" />
    <glyph glyph-name="five" unicode="5" horiz-adv-x="959" 
d="M442 -14q-101 0 -172.5 13t-119 34.5t-74.5 49t-40 55.5t-14.5 54t2.5 45h287q1 -5 5 -16t20 -22t48.5 -20t90.5 -9t93 9.5t54 23.5t25 30.5t6 31.5q0 14 -6 28t-23 25t-47.5 18t-79.5 7q-56 0 -90.5 -8t-54 -18t-27 -19.5t-8.5 -12.5h-273l74 459h846l-29 -181h-572
l-18 -121q5 4 22.5 15t49.5 22.5t78.5 20t110.5 8.5h8q101 0 165 -18.5t100.5 -49t50 -71t13.5 -85.5q0 -14 -2 -31t-5 -31q-5 -21 -14.5 -47t-29 -52t-51 -51t-79.5 -44t-115.5 -30.5t-158.5 -11.5h-46z" />
    <glyph glyph-name="six" unicode="6" horiz-adv-x="1019" 
d="M728 517q-2 4 -8 14t-23.5 20t-49 17.5t-83.5 7.5q-68 0 -112 -17.5t-69.5 -43t-37 -54t-15.5 -51.5q8 6 26 17.5t52 23t87.5 20.5t132.5 9h12q105 0 174.5 -16t111 -44t58 -66t16.5 -81q0 -26 -3 -47q-4 -24 -12.5 -51.5t-28 -54t-51.5 -51t-83 -43.5t-123.5 -30
t-170.5 -11h-44q-129 0 -215.5 25.5t-138 69t-73.5 101.5t-22 124q0 22 1.5 41.5t3.5 39.5q5 39 17 81.5t35.5 84t60.5 79t91.5 65.5t128.5 45t172 17h41q135 0 217.5 -23t128.5 -58.5t61.5 -77.5t15.5 -80v-2h-281zM328 237q0 -12 7.5 -25t27.5 -23.5t55 -17t91 -6.5
q70 0 110 9t60.5 22.5t25.5 28.5t5 27q0 11 -6 22.5t-25 21.5t-54.5 16t-93.5 6q-69 0 -109 -8.5t-61 -20.5t-27 -26t-6 -26z" />
    <glyph glyph-name="seven" unicode="7" horiz-adv-x="946" 
d="M999 744l-26 -168q-12 -11 -34 -33.5t-49.5 -51t-57.5 -61.5t-57 -66q-40 -49 -67 -93t-44.5 -87.5t-27 -87t-13.5 -90.5l-1 -6h-317l15 89q7 43 19.5 79t35.5 71t60.5 73.5t95.5 88.5q36 31 67.5 57t54.5 46t36.5 34t14.5 20h-360l-23 -144h-267l52 330h893z" />
    <glyph glyph-name="eight" unicode="8" horiz-adv-x="999" 
d="M1010 565q0 -39 -17.5 -69.5t-44.5 -52t-60.5 -34t-65.5 -16.5q32 -7 60 -20.5t49 -33.5t33 -47.5t12 -63.5q0 -23 -6.5 -50t-24.5 -54t-51 -52t-86 -44.5t-129 -31t-180 -11.5h-42q-137 0 -224 17.5t-136.5 47.5t-68 69t-18.5 81q0 49 21.5 83.5t53 57.5t68 35t66.5 17
q-27 6 -52.5 18.5t-45 30.5t-31 43t-11.5 57q0 21 4.5 45.5t20.5 48.5t46 46t80.5 39t125.5 27t180 10h43q135 0 219 -16t131.5 -42.5t64 -61.5t16.5 -73zM533 469q63 0 100 6.5t56.5 17t25 22.5t5.5 23q0 10 -6 20.5t-24 18t-51.5 12.5t-88.5 5q-64 0 -101 -6.5t-56 -16.5
t-24 -22t-5 -23t6.5 -21.5t24.5 -18.5t51 -12.5t87 -4.5zM485 162q71 0 112.5 8t62.5 20t27 25.5t6 24.5q0 12 -7 22.5t-27 19t-56.5 13.5t-96.5 5q-71 0 -112 -7t-62 -17.5t-26.5 -24t-5.5 -25.5q0 -11 6.5 -22.5t26.5 -20.5t56 -15t96 -6z" />
    <glyph glyph-name="nine" unicode="9" horiz-adv-x="1019" 
d="M724 506q0 12 -7.5 24.5t-27.5 23t-55.5 17t-91.5 6.5q-70 0 -110 -9t-60.5 -22.5t-25.5 -28t-5 -26.5q0 -11 6.5 -22.5t25.5 -21.5t54.5 -16t93.5 -6q68 0 108.5 8t61.5 20.5t27 26.5t6 26zM324 226q1 -4 7.5 -14t24 -20t49 -18t84.5 -8q68 0 111.5 17.5t69.5 43t37 54
t15 51.5q-7 -6 -24.5 -17.5t-50.5 -23.5t-85 -20.5t-129 -8.5h-12q-105 0 -176 16.5t-113.5 45t-61 68t-18.5 86.5q0 28 3 49q3 22 11.5 48t27.5 51.5t51 49.5t82.5 42t121.5 29t168 11h43q130 0 217.5 -25t140.5 -68t75.5 -100.5t22.5 -123.5q0 -23 -1 -42.5t-3 -39.5
q-5 -38 -16.5 -81t-34.5 -84.5t-59.5 -79.5t-90.5 -66.5t-127.5 -45.5t-170.5 -17h-41q-136 0 -219.5 23.5t-130 59t-62.5 77.5t-16 79v2h280z" />
    <glyph glyph-name="colon" unicode=":" horiz-adv-x="339" 
d="M311 300h-274l31 195h274zM264 0h-275l31 195h275z" />
    <glyph glyph-name="semicolon" unicode=";" horiz-adv-x="339" 
d="M312 300h-275l31 195h275zM46 -111q18 25 34.5 56t24.5 55h-116l31 195h275l-26 -160q-3 -18 -11.5 -38t-19.5 -40t-24 -38t-24 -30h-144z" />
    <glyph glyph-name="less" unicode="&#x3c;" horiz-adv-x="538" 
d="M25 217l27 172l491 154l-26 -163l-322 -83l297 -80l-25 -154z" />
    <glyph glyph-name="equal" unicode="=" horiz-adv-x="585" 
d="M582 478l-22 -140h-512l22 140h512zM551 280l-22 -139h-512l22 139h512z" />
    <glyph glyph-name="greater" unicode="&#x3e;" horiz-adv-x="538" 
d="M32 228l324 82l-298 80l25 153l443 -154l-27 -172l-493 -154z" />
    <glyph glyph-name="question" unicode="?" horiz-adv-x="887" 
d="M260 249l11 67q4 28 12.5 51t25.5 41t47 31.5t78 23.5l116 22q29 6 47 12t27.5 13t13 14.5t3.5 15.5t-4 16t-18.5 14.5t-43.5 10.5t-78 4q-61 0 -96 -9.5t-52.5 -23t-22.5 -28t-7 -25.5h-268l2 14q4 25 11 52.5t23 54t44 51t74 43t113 29.5t161 11h52q120 0 195 -17
t117 -45.5t57 -64.5t15 -75q0 -37 -10.5 -70.5t-35 -61.5t-65 -49t-100.5 -33l-112 -22q-20 -4 -31.5 -9t-18.5 -12t-10 -16.5t-5 -22.5l-1 -7h-266zM494 0h-275l31 195h274z" />
    <glyph glyph-name="at" unicode="@" horiz-adv-x="1302" 
d="M627 -157q-175 0 -290.5 31.5t-184.5 85.5t-97.5 126t-28.5 153q0 60 12.5 120.5t42 116t79 104t123.5 84.5t176 56.5t236 20.5h14q130 0 224 -14t159 -38.5t104.5 -57.5t61.5 -71t29 -78.5t7 -80.5q0 -68 -19.5 -133t-62 -116t-110 -82.5t-164.5 -31.5h-16
q-52 0 -85.5 8.5t-53 20.5t-28.5 24.5t-13 20.5q-7 -7 -23.5 -19.5t-42.5 -24.5t-62.5 -21t-83.5 -9h-14q-59 0 -103.5 16t-74.5 44.5t-45 67t-15 83.5q0 38 6 70q8 44 29 84.5t57 71t87 49t120 18.5h17q49 0 85 -8.5t61 -20.5t40 -24t23 -18l12 62h253l-69 -352
q-3 -17 1.5 -28.5t21.5 -11.5q25 0 50 19t45 53.5t32.5 82t12.5 104.5q0 33 -6 63.5t-23 57t-48.5 48.5t-82 37.5t-123.5 24t-173 8.5h-13q-114 0 -197.5 -17.5t-142 -47.5t-94.5 -70t-56.5 -84t-27.5 -91t-7 -90q0 -59 21 -112t73 -93.5t141 -64t224 -23.5q121 0 207.5 9.5
t145.5 22.5t95 27.5t56 23.5l29 -104q-18 -9 -55 -23t-100 -27t-155.5 -22.5t-222.5 -9.5zM656 400q-36 0 -59.5 -12t-37.5 -31t-19.5 -42t-5.5 -45q0 -35 22 -61.5t71 -26.5h5q28 0 49 7t36 18.5t24.5 26t15.5 29.5q8 21 8 44q0 38 -23.5 65.5t-80.5 27.5h-5z" />
    <glyph glyph-name="A" unicode="A" horiz-adv-x="1071" 
d="M561 563l-155 -257h242zM710 120h-415l-72 -120h-283l464 744h371l273 -744h-297z" />
    <glyph glyph-name="B" unicode="B" horiz-adv-x="1050" 
d="M122 744h672q72 0 120.5 -12.5t77.5 -34.5t41 -52.5t12 -65.5q0 -38 -16 -66t-39.5 -47.5t-50 -30.5t-48.5 -16q20 -5 45 -17t46.5 -32t36 -50.5t14.5 -72.5q0 -50 -16 -94.5t-54 -78.5t-102 -54t-161 -20h-696zM678 470q46 0 63.5 18t17.5 40q0 21 -14 34t-54 13h-319
l-17 -105h323zM647 175q30 0 48.5 7t29 18t14.5 23.5t4 23.5q0 10 -3 20.5t-11.5 18t-24 12.5t-39.5 5h-336l-20 -128h338z" />
    <glyph glyph-name="C" unicode="C" horiz-adv-x="1098" 
d="M520 -14q-99 0 -173.5 14.5t-128.5 40t-89.5 59.5t-56.5 72t-29.5 78t-8.5 79q0 21 1 39.5t5 44.5q5 33 16.5 71t36 76.5t63.5 74t98 63t140.5 44t191.5 16.5h37q113 0 194.5 -16t136.5 -42t87.5 -59.5t48.5 -68t18.5 -68.5t-2.5 -60h-287q-1 8 -7.5 26.5t-29.5 38
t-68 34.5t-123 15q-74 0 -123 -15.5t-78.5 -39t-43 -51.5t-17.5 -53q-2 -14 -3 -26t-1 -25q0 -30 10.5 -59t36 -51.5t68.5 -36.5t108 -14q53 0 91.5 8t66 20t44.5 26.5t27 28t14.5 24.5t6.5 15h287q-2 -27 -11.5 -61.5t-31 -70.5t-58.5 -70.5t-94.5 -61t-139 -43
t-192.5 -16.5h-38z" />
    <glyph glyph-name="D" unicode="D" horiz-adv-x="1107" 
d="M122 744h485q145 0 241.5 -26.5t154 -70.5t81 -102t23.5 -121q0 -46 -6 -86q-9 -58 -36.5 -118t-89 -109t-164 -80t-260.5 -31h-547zM311 197h207q72 0 122 11.5t83.5 30.5t52 42t28 45.5t11.5 42.5t2 32q0 25 -9 51.5t-35 48t-74 35t-126 13.5h-206z" />
    <glyph glyph-name="E" unicode="E" horiz-adv-x="887" 
d="M922 744l-29 -182h-527l-14 -93h517l-29 -181h-517l-17 -102h535l-29 -186h-808l118 744h800z" />
    <glyph glyph-name="F" unicode="F" horiz-adv-x="866" 
d="M907 744l-29 -182h-511l-15 -93h501l-29 -183h-501l-45 -286h-274l118 744h785z" />
    <glyph glyph-name="G" unicode="G" horiz-adv-x="1129" 
d="M496 -14q-138 0 -227 32t-141.5 81.5t-73 110.5t-20.5 118q0 35 6 76q6 39 19 80.5t38.5 80.5t65.5 74.5t99.5 61.5t139.5 41.5t187 15.5h31q110 0 190 -14t135 -37t88.5 -53t51 -62t22.5 -64t4 -58h-287q-2 7 -8.5 22.5t-29 31.5t-66.5 28t-119 12q-73 0 -123 -15
t-81.5 -40t-47.5 -57t-21 -65q-2 -12 -3 -21t-1 -19q0 -34 12.5 -64t39.5 -52.5t70.5 -36t105.5 -13.5q69 0 116.5 11t77.5 26.5t44.5 31t16.5 24.5h-256l23 145h536l-66 -419h-169q0 10 -1.5 23.5t-4 28t-5.5 28.5t-7 24q-11 -12 -35.5 -32t-65.5 -39t-100 -33t-139 -14
h-21z" />
    <glyph glyph-name="H" unicode="H" horiz-adv-x="1091" 
d="M122 744h277l-42 -263h445l41 263h277l-118 -744h-277l45 283h-444l-45 -283h-277z" />
    <glyph glyph-name="I" unicode="I" horiz-adv-x="370" 
d="M281 0h-277l118 744h277z" />
    <glyph glyph-name="J" unicode="J" horiz-adv-x="924" 
d="M397 -11q-86 0 -149 16t-106.5 42.5t-70.5 61t-40.5 72.5t-15.5 76.5t3 72.5h270q0 -12 2 -33.5t16 -42.5t43 -36.5t83 -15.5h8q44 0 76 12.5t54 35t34.5 53.5t18.5 67l59 374h277l-60 -380q-7 -40 -18 -83.5t-31 -85t-51 -79t-78 -66t-112 -45t-152 -16.5h-60v0z" />
    <glyph glyph-name="K" unicode="K" horiz-adv-x="1016" 
d="M4 0l118 744h277l-46 -292l394 292h351l-473 -349l370 -395h-353l-308 333l-53 -333h-277z" />
    <glyph glyph-name="L" unicode="L" horiz-adv-x="847" 
d="M399 744l-85 -531h499l-33 -213h-776l118 744h277z" />
    <glyph glyph-name="M" unicode="M" horiz-adv-x="1280" 
d="M122 744h373l162 -418l283 418h369l-118 -744h-273l73 464l-319 -464h-140l-184 464l-73 -464h-271z" />
    <glyph glyph-name="N" unicode="N" horiz-adv-x="1091" 
d="M429 744l349 -430l68 430h274l-118 -744h-274l-377 457l-72 -457h-275l118 744h307z" />
    <glyph glyph-name="O" unicode="O" horiz-adv-x="1146" 
d="M536 -14q-104 0 -182 15t-134 40.5t-92 58.5t-57 70t-29 75.5t-8 73.5q0 17 1 37t4 45q5 34 16 73.5t34.5 79t62 76.5t99 65.5t145.5 45.5t201 17h45q105 0 183 -14.5t134 -39.5t92 -58t57 -69.5t29 -74t8 -72.5q0 -17 -1 -38t-4 -41q-5 -35 -16 -75t-34 -81t-61.5 -78.5
t-99 -66.5t-146 -46.5t-202.5 -17.5h-45zM856 404q0 28 -11.5 55.5t-39.5 49.5t-76.5 35.5t-121.5 13.5q-81 0 -133.5 -16t-84 -41t-45.5 -55.5t-17 -59.5q-2 -14 -2 -20.5v-15.5q0 -28 10.5 -57t38.5 -52.5t76 -38.5t122 -15q80 0 132 16.5t83.5 42t46 57t19.5 62.5
q3 19 3 39z" />
    <glyph glyph-name="P" unicode="P" horiz-adv-x="1016" 
d="M4 0l118 744h587q94 0 157 -17t101 -47t54 -71.5t16 -89.5q0 -51 -14.5 -102t-54.5 -92t-111.5 -66.5t-184.5 -25.5h-354l-37 -233h-277zM643 419q56 0 79.5 22.5t23.5 56.5q0 60 -83 60h-294l-22 -139h296z" />
    <glyph glyph-name="Q" unicode="Q" horiz-adv-x="1146" 
d="M428 -9q-122 11 -198.5 46t-120 81.5t-59.5 99.5t-16 101q0 17 1 37.5t4 44.5q5 34 16.5 73.5t34.5 79.5t62 76.5t99 65t145 45.5t201 17h45q105 0 183 -14.5t134 -39.5t92 -58t57 -69.5t29 -74t8 -72.5q0 -18 -1 -39t-4 -42q-5 -31 -14.5 -67.5t-29 -74t-51 -73
t-80.5 -65t-118.5 -50.5t-163.5 -29l98 -145h-376zM856 404q0 28 -11.5 55.5t-39.5 49.5t-76.5 35.5t-121.5 13.5q-81 0 -134 -16t-84.5 -41.5t-45 -56t-16.5 -59.5q-2 -9 -2 -18v-17q0 -28 10.5 -57t38.5 -52.5t76 -38.5t122 -15q80 0 132 16.5t83.5 42.5t46 57.5
t19.5 62.5q3 21 3 38z" />
    <glyph glyph-name="R" unicode="R" horiz-adv-x="1045" 
d="M670 435q26 0 43.5 6.5t28.5 16.5t16 23t5 26q0 25 -16.5 40.5t-59.5 15.5h-317l-21 -128h321zM281 0h-277l118 744h663q73 0 124.5 -13t84.5 -36t48.5 -56t15.5 -73q0 -44 -17 -76.5t-43 -56t-57 -37.5t-60 -21q30 -9 55 -23.5t42 -36t24.5 -50t1.5 -64.5l-19 -117
q-6 -35 -3.5 -52.5t4.5 -26.5l-1 -5h-283q-3 5 -3.5 14.5t2.5 28.5l13 82q10 64 -18.5 97t-111.5 33h-263z" />
    <glyph glyph-name="S" unicode="S" horiz-adv-x="1012" 
d="M424 -14q-100 0 -170.5 13.5t-117 35.5t-73.5 50.5t-39.5 59t-14.5 60.5t1 55h304q0 -16 4.5 -34.5t21.5 -34t50.5 -26t93.5 -10.5h8q64 0 100.5 7.5t55.5 18.5t24 24.5t5 25.5q0 13 -5.5 24t-22 18.5t-47 12.5t-81.5 7l-124 5q-99 3 -163.5 22t-102.5 49t-53 68.5
t-15 81.5q0 12 1 23.5t3 19.5q7 42 31.5 77.5t75 62t133 41t206.5 14.5h85q139 0 223 -21.5t127.5 -56.5t55 -78.5t6.5 -86.5h-300q-1 11 -5 25t-20.5 26t-50 20.5t-92.5 8.5h-9q-57 0 -90 -5t-50.5 -13t-22 -18.5t-4.5 -21.5q0 -10 4.5 -19.5t19.5 -17.5t43.5 -13t76.5 -6
l121 -3q100 -3 169 -17t111.5 -39.5t61.5 -64t19 -89.5q0 -14 -1 -27.5t-3 -23.5q-7 -44 -28.5 -85.5t-73 -73.5t-141.5 -51.5t-234 -19.5h-87v0z" />
    <glyph glyph-name="T" unicode="T" horiz-adv-x="943" 
d="M376 541h-310l32 203h898l-33 -203h-309l-86 -541h-278z" />
    <glyph glyph-name="U" unicode="U" horiz-adv-x="1072" 
d="M114 744h278l-52 -328q-6 -36 -1.5 -72.5t25.5 -66t63 -48t111 -18.5h1q66 0 109 18.5t70 47.5t40.5 64.5t19.5 70.5l52 332h278l-55 -346q-6 -40 -18 -86t-34.5 -91.5t-58 -87.5t-89 -74t-127 -51.5t-172.5 -19.5h-39q-106 0 -183 20t-129.5 53t-84 75.5t-46.5 88.5
t-16.5 92t4.5 85z" />
    <glyph glyph-name="V" unicode="V" horiz-adv-x="1041" 
d="M57 744h305l171 -522l304 522h293l-444 -744h-369z" />
    <glyph glyph-name="W" unicode="W" horiz-adv-x="1494" 
d="M242 0l-181 744h301l100 -490l211 490h310l83 -484l227 484h290l-382 -744h-322l-93 471l-206 -471h-338z" />
    <glyph glyph-name="X" unicode="X" horiz-adv-x="1049" 
d="M-57 0l393 383l-265 361h344l152 -221l222 221h335l-370 -361l267 -383h-332l-167 233l-237 -233h-342z" />
    <glyph glyph-name="Y" unicode="Y" horiz-adv-x="1015" 
d="M375 280l-324 464h319l173 -257l257 257h314l-462 -466l-44 -278h-277z" />
    <glyph glyph-name="Z" unicode="Z" horiz-adv-x="928" 
d="M971 744l-24 -151l-532 -391h476l-32 -202h-875l25 151l530 397h-461l30 196h863z" />
    <glyph glyph-name="bracketleft" unicode="[" horiz-adv-x="365" 
d="M131 808h306l-19 -118h-109l-111 -702h109l-19 -119h-306z" />
    <glyph glyph-name="backslash" unicode="\" horiz-adv-x="479" 
d="M68 808h187l206 -939h-185z" />
    <glyph glyph-name="bracketright" unicode="]" horiz-adv-x="365" 
d="M-31 -12h108l111 702h-108l18 118h305l-148 -939h-305z" />
    <glyph glyph-name="asciicircum" unicode="^" horiz-adv-x="718" 
d="M412 600l-151 -176h-235l277 320h250l187 -320h-227z" />
    <glyph glyph-name="underscore" unicode="_" horiz-adv-x="825" 
d="M-45 -20h824l-22 -142h-823z" />
    <glyph glyph-name="grave" unicode="`" 
d="M580 583h-241l-88 161h264z" />
    <glyph glyph-name="a" unicode="a" horiz-adv-x="826" 
d="M335 120q69 0 113.5 30.5t53.5 77.5l4 26l-179 -32q-41 -7 -56 -19.5t-15 -33.5q0 -18 16.5 -33.5t62.5 -15.5zM231 -10q-64 0 -108.5 12.5t-72 34.5t-39.5 50t-12 60q0 35 12 71t48 62q28 21 71 33t110 18l253 22q34 3 34 28q0 7 -3 14t-14.5 13t-33.5 9.5t-60 3.5h-2
q-42 0 -66.5 -6t-36.5 -15t-16 -18.5t-6 -15.5h-244q2 17 7 38t18 41.5t36 39.5t61 34t94.5 24t136.5 9h50q122 0 191.5 -18t103 -45.5t39 -61.5t0.5 -66l-29 -181q-2 -10 2.5 -16.5t18.5 -6.5h28l-25 -157h-216q-33 0 -53 19t-23 53q-10 -11 -29 -25t-49 -26.5t-71 -21.5
t-95 -9h-10z" />
    <glyph glyph-name="b" unicode="b" horiz-adv-x="911" 
d="M379 744l-44 -277q8 7 27.5 21t51.5 27t76 23t101 10h15q81 0 136 -19.5t89 -52.5t49 -75.5t15 -87.5q0 -14 -1 -29t-4 -38q-7 -52 -30 -98.5t-65.5 -81.5t-106.5 -55.5t-154 -20.5h-15q-54 0 -95.5 10t-71.5 23.5t-49.5 28t-29.5 24.5q-8 -15 -16 -37t-12 -39h-249
l118 744h265zM307 289q-4 -17 -4 -36q0 -21 9.5 -41t28 -36t47.5 -26t68 -10h6q48 0 79.5 14t50 36t25.5 49t7 52q0 22 -7.5 42t-24 35t-43.5 23.5t-66 8.5h-6q-39 0 -69 -10t-51 -26t-33.5 -36t-16.5 -39z" />
    <glyph glyph-name="c" unicode="c" horiz-adv-x="868" 
d="M381 -15q-110 0 -180.5 21.5t-111.5 56.5t-57 79.5t-16 89.5q0 15 1 29t4 35q6 44 27.5 90t67.5 83t122.5 60.5t192.5 23.5h61q88 0 150 -12t103.5 -32.5t65.5 -46t35 -52.5t13 -53t-1 -47h-270q0 7 -3.5 22.5t-17 31.5t-40.5 27.5t-75 11.5h-4q-48 0 -79.5 -15
t-49.5 -37.5t-25 -50t-7 -52.5q0 -22 6.5 -42t21.5 -35.5t40 -24.5t61 -9h5q45 0 74 12t46 27.5t24.5 32t10.5 25.5h270q-3 -19 -9.5 -45.5t-22 -54t-42.5 -54.5t-71 -48t-108.5 -34t-153.5 -13h-58z" />
    <glyph glyph-name="d" unicode="d" horiz-adv-x="912" 
d="M605 254q2 7 2.5 15t0.5 16q0 22 -9 42.5t-27 36t-46.5 25t-67.5 9.5h-5q-47 0 -78.5 -13t-50.5 -33t-27 -46t-8 -51q0 -22 7 -42.5t23 -36t41 -25t61 -9.5h4q42 0 74 10.5t54 27t35 36.5t17 38zM948 744l-118 -744h-264l12 79q-7 -8 -25.5 -23t-49 -29.5t-75 -25.5
t-104.5 -11h-15q-75 0 -130 19t-91 52t-53.5 77.5t-17.5 95.5q0 14 1 30t4 36q7 49 29.5 93.5t63 79t101.5 55t145 20.5h17q61 0 106.5 -10t77 -23.5t50.5 -27t27 -20.5l43 277h266z" />
    <glyph glyph-name="e" unicode="e" horiz-adv-x="867" 
d="M452 421q-38 0 -65 -6t-46 -16.5t-30.5 -25.5t-18.5 -33h303q-4 38 -36 59.5t-107 21.5zM839 196q-3 -19 -10 -41.5t-22.5 -46t-42.5 -45.5t-70 -39.5t-105 -28t-148 -10.5h-51q-112 0 -184.5 21.5t-114.5 57t-58.5 81t-16.5 93.5q0 13 1 26.5t3 28.5q7 46 27.5 92
t66.5 83.5t122.5 61t195.5 23.5h54q117 0 188.5 -22.5t111 -59t52.5 -83t13 -94.5q0 -15 -2 -35t-4 -29h-571q0 -20 8 -38t25 -31.5t45 -21.5t68 -8h1q46 0 75 8t46 19t24.5 21.5t9.5 16.5h263z" />
    <glyph glyph-name="f" unicode="f" horiz-adv-x="518" 
d="M550 600h-82q-23 0 -31 -10t-10 -27l-4 -25h118l-27 -165h-118l-59 -373h-262l59 373h-103l26 165h103l9 60q5 30 17.5 56.5t36.5 46.5t61.5 31.5t92.5 11.5h196z" />
    <glyph glyph-name="g" unicode="g" horiz-adv-x="917" 
d="M433 169q42 0 73.5 8.5t54 22.5t35 32t17.5 38q3 12 3 25q0 42 -38 71.5t-117 29.5h-7q-50 0 -82 -11t-50.5 -29t-25.5 -40.5t-7 -44.5q0 -21 7 -39.5t23.5 -32.5t43 -22t64.5 -8h6zM275 0q1 -5 4.5 -13t17 -15t40 -12t71.5 -5h2q48 0 80 12t52 31.5t30 43.5t14 48l2 11
q-9 -9 -26.5 -22t-47.5 -25.5t-74 -21.5t-104 -9h-12q-86 0 -144 20t-93.5 53t-51 75.5t-15.5 87.5q0 13 1 25t3 28q7 46 28 89t60.5 75.5t99.5 52t145 19.5h16q64 0 110.5 -9.5t79 -22t52.5 -26t30 -22.5l11 70h265l-70 -444q-8 -49 -27.5 -100.5t-64 -93.5t-121.5 -68.5
t-200 -26.5h-71q-84 0 -143.5 10.5t-99.5 27t-63 38t-35 43t-14.5 41.5t-0.5 35h264z" />
    <glyph glyph-name="h" unicode="h" horiz-adv-x="866" 
d="M114 744h265l-47 -300q7 7 27 24.5t53.5 35.5t80 32t105.5 14h6q74 0 122 -21t74.5 -54t34.5 -73t2 -78l-51 -324h-266l41 257q4 27 0.5 49.5t-16.5 39t-35.5 26t-56.5 9.5q-67 0 -105 -36.5t-47 -92.5l-40 -252h-265z" />
    <glyph glyph-name="i" unicode="i" horiz-adv-x="343" 
d="M353 583h-265l26 161h265zM261 0h-265l85 538h265z" />
    <glyph glyph-name="j" unicode="j" horiz-adv-x="344" 
d="M355 583h-265l26 161h265zM-37 -27q17 0 25 7.5t11 27.5l84 530h265l-94 -593q-11 -68 -43.5 -100.5t-80.5 -32.5h-229l27 161h35z" />
    <glyph glyph-name="k" unicode="k" horiz-adv-x="782" 
d="M-4 0l118 744h265l-65 -411l200 205h298l-247 -250l193 -288h-302l-156 246l-39 -246h-265z" />
    <glyph glyph-name="l" unicode="l" horiz-adv-x="343" 
d="M261 0h-265l118 744h265z" />
    <glyph glyph-name="m" unicode="m" horiz-adv-x="1331" 
d="M-4 0l85 538h264l-16 -96q7 7 27 25t52.5 36.5t76 32.5t98.5 14h6q43 0 77 -9t59 -24t42 -35t27 -42q14 13 38.5 32t59 36t78 29.5t95.5 12.5h6q75 0 122.5 -22t73.5 -55.5t33 -72.5t2 -72l-52 -328h-266l42 262q3 22 0.5 43.5t-13 38.5t-30.5 27t-50 10q-32 0 -56 -10
t-40.5 -27t-26 -39.5t-13.5 -46.5l-41 -258h-266l42 264q3 22 0.5 43t-13.5 37.5t-30.5 26.5t-49.5 10q-32 0 -56 -10t-40.5 -27t-26.5 -39t-14 -46l-41 -259h-265z" />
    <glyph glyph-name="n" unicode="n" horiz-adv-x="866" 
d="M81 538h264l-16 -96q7 7 28 25t55 36.5t80.5 32.5t105.5 14h6q73 0 121 -21t75 -54t35 -73t2 -78l-51 -324h-266l41 257q4 27 0.5 49.5t-16.5 39t-35.5 26t-56.5 9.5q-67 0 -105 -36.5t-47 -92.5l-40 -252h-265z" />
    <glyph glyph-name="o" unicode="o" horiz-adv-x="904" 
d="M394 -16q-115 0 -188.5 24t-115.5 61t-58 81.5t-16 86.5q0 11 0.5 24.5t2.5 25.5q6 43 24.5 90t64.5 86t125.5 64.5t205.5 25.5h73q117 0 190.5 -22t115 -57.5t56.5 -79t15 -85.5q0 -11 -1 -25t-3 -30q-4 -28 -12 -58.5t-25.5 -60.5t-46 -57.5t-74 -48t-109.5 -33
t-152 -12.5h-72zM465 401q-55 0 -89.5 -14t-54 -35.5t-27 -48t-7.5 -51.5q0 -20 7.5 -40.5t24.5 -37t46 -26.5t73 -10h1q54 0 88.5 14.5t55 37t28.5 49.5t8 53q0 20 -7.5 39.5t-25 35t-47 25t-73.5 9.5h-1z" />
    <glyph glyph-name="p" unicode="p" horiz-adv-x="912" 
d="M479 399q-41 0 -71 -10t-51 -26t-33 -35.5t-16 -38.5q-2 -7 -3 -16t-1 -19q0 -21 9 -41t27.5 -36.5t47.5 -26.5t68 -10h6q47 0 78.5 13.5t50 35.5t26 48t7.5 52q0 22 -7 42t-23.5 35t-43.5 24t-66 9h-5zM346 538l-11 -71q8 7 27.5 20.5t51 27t75 23.5t100.5 10h16
q82 0 138 -20t90 -53t48.5 -75.5t14.5 -87.5q0 -13 -1 -29.5t-3 -34.5q-6 -51 -28.5 -97.5t-65.5 -82.5t-107.5 -57t-155.5 -21h-15q-56 0 -98.5 9.5t-73 22.5t-49.5 26.5t-27 21.5l-41 -258h-265l115 726h265z" />
    <glyph glyph-name="q" unicode="q" horiz-adv-x="912" 
d="M376 548q61 0 106.5 -9t77.5 -22t52 -27t32 -24q8 16 15.5 36t10.5 36h246l-116 -729h-264l41 259q-8 -7 -26.5 -20t-49 -26t-74 -22.5t-101.5 -9.5h-17q-75 0 -130.5 18.5t-91.5 51.5t-54 77.5t-18 96.5q0 15 1 30.5t4 35.5q7 49 29.5 94t63 79.5t101 54.5t144.5 20h18z
M423 142q42 0 74 10.5t54 26.5t34.5 35.5t17.5 38.5q4 17 4 33q0 21 -9.5 41.5t-29 36t-48 25t-66.5 9.5h-5q-44 0 -74.5 -12t-50 -31.5t-28.5 -45.5t-9 -53q0 -23 7.5 -44t23.5 -36.5t41 -24.5t60 -9h4z" />
    <glyph glyph-name="r" unicode="r" horiz-adv-x="762" 
d="M261 0h-265l85 538h264l-16 -99q8 12 25.5 30.5t45.5 36.5t65.5 31t85.5 13h10q65 0 105.5 -22t62 -57t26 -79.5t-2.5 -89.5l-7 -44h-256l3 19q3 21 1.5 41t-10.5 35.5t-26 24.5t-43 9q-47 0 -74 -30t-35 -84z" />
    <glyph glyph-name="s" unicode="s" horiz-adv-x="797" 
d="M334 -15q-80 0 -136.5 9.5t-94.5 25t-59.5 36t-32 42.5t-13 44t-0.5 41h270q0 -9 2.5 -20t12.5 -21t30.5 -17t56.5 -7h2q39 0 62 4t34.5 11t15 15t3.5 17t-3 16.5t-12.5 13t-27 9t-45.5 4.5l-108 4q-76 3 -125.5 18t-78 37.5t-39.5 51t-11 58.5q0 8 1 17.5t3 19.5
q7 30 26 55.5t59.5 44t106 29t166.5 10.5h49q110 0 177 -14t102 -38t45 -55.5t7 -66.5h-263q0 7 -3 15.5t-14 16t-32.5 12.5t-59.5 5q-35 0 -55 -3t-30.5 -8.5t-13.5 -12.5t-3 -14q0 -8 3.5 -14.5t12.5 -11t25.5 -7.5t42.5 -4l106 -4q82 -3 135 -15t83.5 -32.5t42 -48.5
t11.5 -63q0 -11 -1 -23t-3 -23q-7 -33 -24.5 -61.5t-58.5 -50.5t-111.5 -34.5t-183.5 -12.5h-51v0z" />
    <glyph glyph-name="t" unicode="t" horiz-adv-x="502" 
d="M217 0q-69 0 -101 40t-19 120l35 213h-101l26 165h100l25 157h263l-25 -157h102l-27 -165h-101l-26 -163q-3 -20 3 -31.5t33 -11.5h59l-27 -167h-219z" />
    <glyph glyph-name="u" unicode="u" horiz-adv-x="857" 
d="M776 0h-264l16 96q-8 -8 -28.5 -25.5t-54 -36t-79 -32.5t-103.5 -14h-6q-72 0 -118.5 21t-73 54.5t-34 74.5t-1.5 80l50 320h266l-41 -257q-8 -53 14.5 -88.5t87.5 -35.5q63 0 101.5 36t47.5 92l40 253h265z" />
    <glyph glyph-name="v" unicode="v" horiz-adv-x="802" 
d="M28 538h279l94 -348l182 348h276l-309 -538h-350z" />
    <glyph glyph-name="w" unicode="w" horiz-adv-x="1182" 
d="M162 0l-133 538h273l57 -338l146 338h272l58 -337l146 337h256l-268 -538h-297l-65 323l-146 -323h-299z" />
    <glyph glyph-name="x" unicode="x" horiz-adv-x="820" 
d="M-56 0l284 280l-195 258h297l98 -141l140 141h297l-271 -260l199 -278h-291l-110 158l-152 -158h-296z" />
    <glyph glyph-name="y" unicode="y" horiz-adv-x="799" 
d="M77 -22h118q29 0 29 23q0 13 -14 50l-182 487h278l100 -347l182 347h268l-330 -560q-25 -43 -48.5 -74t-48.5 -51.5t-54 -30.5t-64 -10h-261z" />
    <glyph glyph-name="z" unicode="z" horiz-adv-x="734" 
d="M-20 0l22 146l387 233h-349l25 159h688l-22 -143l-395 -230h359l-25 -165h-690z" />
    <glyph glyph-name="braceleft" unicode="{" horiz-adv-x="382" 
d="M164 -131q-82 0 -124.5 25t-42.5 82q0 32 19.5 69.5t42.5 74.5t42.5 70.5t19.5 56.5q0 18 -8.5 26.5t-31.5 8.5h-61l19 118h69q26 0 35.5 12t9.5 30q0 21 -7 49t-15.5 59.5t-15.5 63.5t-7 59q0 31 9.5 56t31.5 42.5t56.5 27t85.5 9.5h163l-19 -118h-84q-47 0 -47 -41
q0 -17 5 -42.5t10.5 -53.5t10.5 -55.5t5 -49.5q0 -38 -25 -68t-93 -40q51 -10 69 -31t18 -49t-15.5 -60.5t-33.5 -64.5t-33.5 -60.5t-15.5 -49.5q0 -37 48 -37h70l-19 -119h-141z" />
    <glyph glyph-name="bar" unicode="|" horiz-adv-x="378" 
d="M300 -131h-187v939h187v-939z" />
    <glyph glyph-name="braceright" unicode="}" horiz-adv-x="382" 
d="M-50 -131l19 119h84q47 0 47 41q0 17 -5 43t-10.5 54.5t-10.5 57t-5 50.5q0 19 6 36t19.5 31.5t36.5 25t57 15.5q-52 11 -70 33.5t-18 51.5q0 26 15.5 56.5t33.5 61t33.5 58.5t15.5 49q0 38 -48 38h-70l19 118h141q82 0 124.5 -25t42.5 -82q0 -32 -19.5 -71t-43.5 -77
t-43.5 -71t-19.5 -52q0 -30 42 -30h61l-19 -118h-68q-26 0 -35.5 -12t-9.5 -30q0 -21 6.5 -50t15 -61.5t15 -65t6.5 -59.5q0 -62 -41 -98.5t-141 -36.5h-163z" />
    <glyph glyph-name="asciitilde" unicode="~" horiz-adv-x="678" 
d="M510 243q-27 0 -50.5 4t-45 12.5t-43.5 20.5t-47 28q-17 10 -29 17t-21 11t-16 5.5t-14 1.5q-22 0 -27 -30l-13 -87h-189l24 151q4 27 14 56.5t29 53.5t49.5 39.5t75.5 15.5q28 0 52 -4.5t45.5 -13t42.5 -20t44 -25.5q32 -20 50 -29t32 -9q12 0 17.5 7.5t7.5 21.5l15 91
h188l-27 -172q-4 -26 -14 -52t-29 -47t-48.5 -34t-72.5 -13z" />
    <glyph glyph-name="exclamdown" unicode="&#xa1;" horiz-adv-x="372" 
d="M-64.2109 -206l169.083 504h162.079l9.00391 -504h-340.166zM85.8633 538h276.135l-31.0156 -195h-275.135z" />
    <glyph glyph-name="cent" unicode="&#xa2;" horiz-adv-x="880" 
d="M287 249q0 -38 19.5 -66.5t65.5 -39.5l40 258q-34 -6 -57.5 -20.5t-38.5 -35t-22 -45.5t-7 -51zM337 -77l10 63q-99 4 -163 27t-101.5 57.5t-52 77t-14.5 85.5q0 16 1 31.5t3 31.5q4 27 13.5 57t29 58.5t49.5 54t75 45t106 31t143 11.5l10 61h99l-10 -62q80 -3 136.5 -16
t95 -33t60.5 -45t33 -51t12.5 -51.5t-1.5 -45.5h-270q0 7 -3 19.5t-12.5 26t-27 25.5t-47.5 18l-41 -259q33 6 55 18t35.5 26.5t20 28t8.5 21.5h270q-3 -19 -9 -45.5t-22 -54t-44 -54.5t-73 -48t-110 -34t-155 -13h-1l-10 -62h-98z" />
    <glyph glyph-name="sterling" unicode="&#xa3;" horiz-adv-x="940" 
d="M870 0h-893l26 165h61q54 0 80 22.5t26 72.5q0 13 -1 27t-3 28h-140l19 113h104q-2 15 -3 30t-1 30q0 45 14 92t56 85.5t118.5 63t202.5 24.5h39q89 0 151 -12t102.5 -33t63 -48t32 -57t10 -61.5t-2.5 -59.5h-271q0 13 -1.5 30t-12 32.5t-34 26.5t-66.5 11t-70 -10.5
t-42.5 -27.5t-21.5 -40.5t-7 -48.5q0 -6 -0.5 -12.5t-0.5 -14.5h343l-18 -113h-323v-20q-1 -28 -9 -49t-20.5 -36t-29.5 -26t-36 -19h305l15 96h281z" />
    <glyph glyph-name="yen" unicode="&#xa5;" horiz-adv-x="984" 
d="M341 158h-252l15 88h251l8 48h-252l14 88h187l-260 362h316l162 -248l245 248h307l-366 -362h190l-14 -88h-253l-8 -48h253l-14 -88h-252l-25 -158h-277z" />
    <glyph glyph-name="brokenbar" unicode="&#xa6;" horiz-adv-x="378" 
d="M300 383h-187v425h187v-425zM300 -131h-187v459h187v-459z" />
    <glyph glyph-name="section" unicode="&#xa7;" horiz-adv-x="937" 
d="M570 322q-109 20 -173 31.5t-84 16.5q-11 -5 -24.5 -19.5t-13.5 -37.5q0 -11 3.5 -20.5t13 -18.5t26.5 -16t44 -12q95 -17 164 -30t98 -20q13 7 25.5 21t12.5 36q0 26 -18.5 42.5t-73.5 26.5zM543 -12q0 10 -3 19t-14 16.5t-33 14t-60 12.5l-172 27q-69 11 -115.5 28
t-75.5 40t-41.5 52t-12.5 64q0 37 14 65.5t38 48.5t55.5 32.5t65.5 19.5q-25 15 -45 47t-20 79q0 39 14 75.5t56 65.5t118.5 46.5t200.5 17.5h53q124 0 194.5 -17.5t105.5 -47t42.5 -68t4.5 -80.5h-259q0 9 -2.5 21.5t-14.5 24.5t-37.5 20t-72.5 8h-6q-44 0 -70 -3.5
t-39.5 -9.5t-18 -14.5t-4.5 -18.5q0 -9 4 -17t15 -14.5t31 -12.5t52 -11l204 -34q69 -12 114 -27.5t71.5 -36.5t36.5 -48t10 -60q0 -42 -18 -72t-44 -50.5t-55.5 -31.5t-52.5 -15q21 -14 40 -43.5t19 -79.5q0 -22 -5.5 -47.5t-20 -51t-41.5 -49t-69.5 -41.5t-103.5 -29
t-145 -11h-53q-91 0 -154 10.5t-104.5 28.5t-64 41.5t-33 49t-11.5 52t1 49.5h262q0 -12 2.5 -27t15.5 -28.5t41.5 -23t79.5 -9.5h4q37 0 61 4.5t38.5 12t20.5 17.5t6 20z" />
    <glyph glyph-name="dieresis" unicode="&#xa8;" horiz-adv-x="688" 
d="M378 583h-232l25 161h233zM656 583h-233l25 161h233z" />
    <glyph glyph-name="copyright" unicode="&#xa9;" horiz-adv-x="1189" 
d="M598 -12q-166 0 -274 31t-171 82.5t-88 118.5t-25 139v28q0 70 24.5 136.5t87.5 118.5t171 83t275 31h24q167 0 275 -31.5t171 -83t87.5 -118t24.5 -136.5v-28q0 -48 -10.5 -94.5t-35.5 -87.5t-66.5 -76t-103.5 -60t-146.5 -39t-195.5 -14h-24zM175 364q0 -57 20 -108.5
t68.5 -90t130.5 -61t206 -22.5h20q124 0 206.5 22.5t131 61t68.5 89.5t20 109v17q0 61 -20 113t-68.5 89.5t-131 58.5t-206.5 21h-20q-124 0 -206 -21t-130.5 -58.5t-68.5 -89.5t-20 -113v-17zM608 147q-111 0 -178.5 22t-103.5 54.5t-48 70.5t-12 70v23q0 33 11.5 70
t47.5 69t103.5 53t179.5 21h20q74 0 127.5 -9.5t90.5 -25t59.5 -35t35 -40t16.5 -40t4 -34.5v-7h-223q-1 4 -5 14t-17 20.5t-37 18.5t-64 8q-39 0 -64 -7.5t-39.5 -19.5t-20 -28t-5.5 -34v-7q0 -17 5.5 -34t20 -31t39.5 -22.5t64 -8.5q41 0 65 9t36.5 20.5t16.5 22.5t5 16
h224v-10q0 -16 -4 -36t-16.5 -41t-34.5 -41t-59 -36t-90.5 -25.5t-127.5 -9.5h-22z" />
    <glyph glyph-name="ordfeminine" unicode="&#xaa;" horiz-adv-x="598" 
d="M294 471q45 0 73 20t33 49l2 13l-110 -18q-27 -5 -37 -13.5t-10 -22.5q0 -28 49 -28zM393 436q-6 -7 -19 -16.5t-33.5 -18.5t-49.5 -15.5t-67 -6.5h-7q-47 0 -78.5 9t-50.5 24t-27 34.5t-8 41.5q0 23 8 43t27.5 36t53 26t84.5 14l168 12q22 1 22 18q0 5 -2 9.5t-9.5 8
t-21 5.5t-36.5 2h-5q-25 0 -39.5 -4t-22 -9t-9.5 -10.5t-3 -9.5h-184q2 20 9.5 41.5t33 39.5t74 29.5t131.5 11.5h37q85 0 133.5 -11.5t72.5 -29t28.5 -39t1.5 -42.5l-18 -116q-3 -17 14 -17h19l-18 -110h-150q-24 0 -39 13.5t-20 36.5z" />
    <glyph glyph-name="guillemotleft" unicode="&#xab;" horiz-adv-x="568" 
d="M112 114l-97 173l144 170h185l-144 -170l96 -173h-184zM343 114l-93 173l145 170h186l-145 -170l92 -173h-185z" />
    <glyph glyph-name="registered" unicode="&#xae;" horiz-adv-x="666" 
d="M398 756q93 0 151.5 -19t91.5 -49t45 -66t12 -69v-14q0 -35 -14 -71.5t-48.5 -65.5t-93 -47.5t-146.5 -18.5h-34q-92 0 -150.5 18.5t-92.5 47.5t-46.5 65.5t-12.5 71.5v14q0 33 12 69t45 66t92 49t153 19h36zM382 395q81 0 128.5 14.5t71.5 37t30.5 49.5t6.5 53
q0 25 -6.5 51t-31 47.5t-71.5 35t-128 13.5h-4q-82 0 -130 -13t-72.5 -34.5t-31 -48.5t-6.5 -54q0 -26 6.5 -52.5t31 -48.5t72 -36t130.5 -14h4zM408 565q14 0 19.5 5.5t5.5 13.5t-5.5 12.5t-19.5 4.5h-70v-36h70zM338 440h-114v214h222q30 0 49 -4.5t30 -12t15.5 -17.5
t4.5 -20v-2q0 -23 -16.5 -34.5t-35.5 -13.5q28 -5 41 -18.5t13 -32.5v-35q0 -9 1.5 -13t3.5 -8v-3h-113q-2 2 -4 4.5t-2 10.5v22q0 17 -6.5 24.5t-26.5 7.5h-62v-69z" />
    <glyph glyph-name="macron" unicode="&#xaf;" 
d="M206 722h440l-21 -129h-440z" />
    <glyph glyph-name="degree" unicode="&#xb0;" horiz-adv-x="440" 
d="M268 755q43 0 80.5 -14t65 -39.5t43.5 -61.5t16 -79q0 -44 -16 -79.5t-43.5 -61t-65 -39.5t-80.5 -14q-44 0 -81.5 14t-65 39.5t-43.5 61t-16 79.5q0 43 16 79t43.5 61.5t65 39.5t81.5 14zM268 483q35 0 57.5 21.5t22.5 56.5t-22.5 57t-57.5 22t-58 -22t-23 -57t23 -56.5
t58 -21.5z" />
    <glyph glyph-name="acute" unicode="&#xb4;" 
d="M238 583l108 161h261l-129 -161h-240z" />
    <glyph glyph-name="paragraph" unicode="&#xb6;" horiz-adv-x="791" 
d="M322 316h-39q-121 0 -177 46t-56 125q0 12 1 26.5t4 33.5q7 41 21 77t43.5 62.5t77 42t121.5 15.5h538l-19 -124h-76l-98 -620h-148l98 620h-95l-98 -620h-148z" />
    <glyph glyph-name="periodcentered" unicode="&#xb7;" horiz-adv-x="337" 
d="M299 220h-275l31 195h275z" />
    <glyph glyph-name="cedilla" unicode="&#xb8;" 
d="M114 -167h106q23 0 30 7t7 16t-6 15t-26 6h-68l20 123h134l-7 -49q52 0 85 -7t52.5 -19.5t27 -30t7.5 -37.5t-6.5 -40.5t-27 -37t-59.5 -27.5t-104 -11h-180z" />
    <glyph glyph-name="ordmasculine" unicode="&#xba;" horiz-adv-x="633" 
d="M320 376q-78 0 -128 16t-78.5 40.5t-39 54.5t-10.5 58q0 29 9 64.5t40 67t89 53t156 21.5h50q79 0 128.5 -15.5t77.5 -39.5t37.5 -53.5t9.5 -56.5t-7.5 -63t-36.5 -69t-88 -55.5t-161 -22.5h-48zM351 484q34 0 55.5 9.5t34 23.5t17 30t4.5 29t-4 25.5t-14.5 22.5
t-27.5 15.5t-43 5.5h-1q-33 0 -54.5 -8.5t-33.5 -22t-17 -29.5t-5 -31q0 -13 4.5 -25.5t15 -22.5t27.5 -16t42 -6z" />
    <glyph glyph-name="guillemotright" unicode="&#xbb;" horiz-adv-x="568" 
d="M-7 114l145 173l-92 170h183l95 -170l-143 -173h-188zM230 114l143 173l-93 170h182l96 -170l-140 -173h-188z" />
    <glyph glyph-name="onequarter" unicode="&#xbc;" horiz-adv-x="998" 
d="M64 581l15 92q30 1 52.5 7t38.5 15.5t27 22t19 26.5h154l-58 -368h-182l32 205h-98zM987 744l-860 -744h-184l855 744h189zM727 369h203l-30 -190h74l-17 -107h-73l-12 -72h-180l11 72h-265l15 95zM720 179l16 101l-138 -101h122z" />
    <glyph glyph-name="onehalf" unicode="&#xbd;" horiz-adv-x="1064" 
d="M987 744l-860 -744h-184l855 744h189zM64 581l15 92q30 1 52.5 7t38.5 15.5t27 22t19 26.5h154l-58 -368h-182l32 205h-98zM494 0l7 48q4 27 14.5 52.5t38 48t78 41.5t134.5 32q30 5 49 9t29.5 8.5t14.5 8.5t4 9q0 10 -12 17t-53 7q-27 0 -43 -4.5t-24.5 -11.5t-12 -14
t-4.5 -13h-177q3 19 11 43t34 45t75.5 35.5t133.5 14.5h18q76 0 123 -9.5t72.5 -25t34.5 -36.5t9 -44q0 -26 -11.5 -45.5t-38 -34t-69 -24t-103.5 -14.5q-72 -7 -115.5 -14t-53.5 -19h365l-17 -110h-511z" />
    <glyph glyph-name="threequarters" unicode="&#xbe;" horiz-adv-x="1192" 
d="M1171 744l-860 -744h-184l855 744h189zM273 370q-84 0 -132.5 15t-71.5 37t-28 47t-2 45h177q0 -5 2 -11.5t10 -13t24 -11t44 -4.5q29 0 46.5 2.5t27 7t12.5 9.5t3 11q0 11 -8 16t-29 5h-111l15 90h106q23 0 32 5.5t9 14.5q0 4 -2.5 8t-10.5 7t-23.5 4.5t-42.5 1.5
q-29 0 -45.5 -4t-25.5 -9t-11.5 -10t-2.5 -8h-174q3 16 10 38t32 42t73 34t132 14h33q81 0 129 -8t73.5 -20.5t33 -29t7.5 -33.5q0 -18 -8 -30.5t-20.5 -21t-27.5 -13t-29 -6.5q31 -6 53.5 -25t22.5 -57q0 -18 -7 -41.5t-34.5 -45.5t-81 -37t-146.5 -15h-33zM913 369h203
l-30 -190h74l-17 -107h-73l-12 -72h-180l11 72h-265l15 95zM906 179l16 101l-138 -101h122z" />
    <glyph glyph-name="questiondown" unicode="&#xbf;" horiz-adv-x="877" 
d="M619.873 289l-11.0059 -67q-4.00195 -28 -12.5059 -51t-25.5117 -41q-17.0088 -18 -47.0234 -31.5t-78.0381 -23.5l-116.057 -22q-29.0146 -6 -47.0225 -12q-18.0098 -6 -27.5137 -13q-9.50488 -7 -13.0068 -14.5q-3.50098 -7.5 -3.50098 -15.5t4.00195 -16
t18.5088 -14.5t43.5205 -10.5q29.0146 -4 78.0391 -4q61.0293 0 96.0469 9.5q35.0166 9.5 52.5254 23q17.5078 13.5 22.5107 28t7.00293 25.5h268.131l-2 -14q-4.00195 -25 -11.0059 -52.5t-23.0117 -54t-44.0215 -51t-74.0352 -43q-46.0234 -18.5 -113.056 -29.5
t-161.079 -11h-52.0254q-120.059 0 -195.095 17t-117.058 45.5q-42.0195 28.5 -57.0273 64.5t-15.0078 75q0 37 10.5059 70.5q10.5049 33.5 35.0166 61.5q24.5127 28 65.0322 49t100.549 33l112.055 22q20.0098 4 31.5156 9t18.5088 12t10.0049 16.5t5.00195 22.5l1.00098 7
h266.13zM385.759 538h275.134l-31.0146 -195h-274.134z" />
    <glyph glyph-name="Agrave" unicode="&#xc0;" horiz-adv-x="1071" 
d="M561 563l-155 -257h242zM710 120h-415l-72 -120h-283l464 744h371l273 -744h-297zM465 789l-80 155h273l58 -155h-251z" />
    <glyph glyph-name="Aacute" unicode="&#xc1;" horiz-adv-x="1071" 
d="M561 563l-155 -257h242zM710 120h-415l-72 -120h-283l464 744h371l273 -744h-297zM468 789l100 155h273l-121 -155h-252z" />
    <glyph glyph-name="Acircumflex" unicode="&#xc2;" horiz-adv-x="1071" 
d="M561 563l-155 -257h242zM710 120h-415l-72 -120h-283l464 744h371l273 -744h-297zM741 944l137 -155h-226l-55 58l-66 -58h-235l173 155h272z" />
    <glyph glyph-name="Atilde" unicode="&#xc3;" horiz-adv-x="1071" 
d="M561 563l-155 -257h242zM710 120h-415l-72 -120h-283l464 744h371l273 -744h-297zM726 793q-17 0 -32 2t-30 5.5t-33 9t-41 12.5q-20 7 -33 10.5t-24 3.5t-14.5 -7t-5.5 -17l-4 -25h-157l12 81q3 18 9.5 36t19.5 33t33.5 24t52.5 9h4q35 0 64.5 -7.5t74.5 -22.5
q17 -5 30.5 -9.5t24.5 -4.5q16 0 19 19l4 30h158l-12 -77q-3 -18 -8.5 -36.5t-18.5 -34t-34 -25t-54 -9.5h-5v0z" />
    <glyph glyph-name="Adieresis" unicode="&#xc4;" horiz-adv-x="1071" 
d="M561 563l-155 -257h242zM710 120h-415l-72 -120h-283l464 744h371l273 -744h-297zM567 789h-240l25 155h239zM853 789h-240l25 155h240z" />
    <glyph glyph-name="Aring" unicode="&#xc5;" horiz-adv-x="1071" 
d="M561 563l-155 -257h242zM710 120h-415l-72 -120h-283l464 744h371l273 -744h-297zM798 899q0 -25 -9 -46.5t-31.5 -37.5t-61 -25.5t-96.5 -9.5q-59 0 -97.5 9.5t-61.5 25.5t-32 38t-9 46t9.5 46t32.5 38t61.5 25.5t96.5 9.5t96.5 -9.5t61 -25.5t31.5 -38t9 -46zM524 900
q0 -21 18 -33.5t58 -12.5q41 0 58 12.5t17 33.5q0 20 -17 32t-58 12q-40 0 -58 -12t-18 -32z" />
    <glyph glyph-name="AE" unicode="&#xc6;" horiz-adv-x="1476" 
d="M698 577l-229 -275h186zM625 116h-311l-98 -116h-286l624 744h957l-29 -182h-514l-14 -93h504l-29 -181h-504l-17 -102h522l-30 -186h-793z" />
    <glyph glyph-name="Ccedilla" unicode="&#xc7;" horiz-adv-x="1098" 
d="M520 -14q-99 0 -173.5 14.5t-128.5 40t-89.5 59.5t-56.5 72t-29.5 78t-8.5 79q0 21 1 39.5t5 44.5q5 33 16.5 71t36 76.5t63.5 74t98 63t140.5 44t191.5 16.5h37q113 0 194.5 -16t136.5 -42t87.5 -59.5t48.5 -68t18.5 -68.5t-2.5 -60h-287q-1 8 -7.5 26.5t-29.5 38
t-68 34.5t-123 15q-74 0 -123 -15.5t-78.5 -39t-43 -51.5t-17.5 -53q-2 -14 -3 -26t-1 -25q0 -30 10.5 -59t36 -51.5t68.5 -36.5t108 -14q53 0 91.5 8t66 20t44.5 26.5t27 28t14.5 24.5t6.5 15h287q-2 -27 -11.5 -61.5t-31 -70.5t-58.5 -70.5t-94.5 -61t-139 -43
t-192.5 -16.5h-38zM334 -167h106q23 0 30 7t7 16t-6 15t-26 6h-68l20 123h134l-7 -49q52 0 85 -7t52.5 -19.5t27 -30t7.5 -37.5t-6.5 -40.5t-27 -37t-59.5 -27.5t-104 -11h-180z" />
    <glyph glyph-name="Egrave" unicode="&#xc8;" horiz-adv-x="887" 
d="M922 744l-29 -182h-527l-14 -93h517l-29 -181h-517l-17 -102h535l-29 -186h-808l118 744h800zM421 789l-80 155h273l58 -155h-251z" />
    <glyph glyph-name="Eacute" unicode="&#xc9;" horiz-adv-x="887" 
d="M922 744l-29 -182h-527l-14 -93h517l-29 -181h-517l-17 -102h535l-29 -186h-808l118 744h800zM394 789l100 155h273l-121 -155h-252z" />
    <glyph glyph-name="Ecircumflex" unicode="&#xca;" horiz-adv-x="887" 
d="M922 744l-29 -182h-527l-14 -93h517l-29 -181h-517l-17 -102h535l-29 -186h-808l118 744h800zM687 944l137 -155h-226l-55 58l-66 -58h-235l173 155h272z" />
    <glyph glyph-name="Edieresis" unicode="&#xcb;" horiz-adv-x="887" 
d="M922 744l-29 -182h-527l-14 -93h517l-29 -181h-517l-17 -102h535l-29 -186h-808l118 744h800zM511 789h-240l25 155h239zM797 789h-240l25 155h240z" />
    <glyph glyph-name="Igrave" unicode="&#xcc;" horiz-adv-x="370" 
d="M281 0h-277l118 744h277zM139 789l-80 155h273l58 -155h-251z" />
    <glyph glyph-name="Iacute" unicode="&#xcd;" horiz-adv-x="370" 
d="M281 0h-277l118 744h277zM144 789l100 155h273l-121 -155h-252z" />
    <glyph glyph-name="Icircumflex" unicode="&#xce;" horiz-adv-x="370" 
d="M281 0h-277l118 744h277zM415 944l137 -155h-226l-55 58l-66 -58h-235l173 155h272z" />
    <glyph glyph-name="Idieresis" unicode="&#xcf;" horiz-adv-x="370" 
d="M281 0h-277l118 744h277zM241 789h-240l25 155h239zM527 789h-240l25 155h240z" />
    <glyph glyph-name="Eth" unicode="&#xd0;" horiz-adv-x="1119" 
d="M66 296h-60l25 157h60l46 291h485q145 0 241.5 -26.5t154 -70.5t81 -102t23.5 -121q0 -46 -6 -86q-9 -58 -36.5 -118t-89 -109t-164 -80t-260.5 -31h-547zM366 453h294l-25 -157h-294l-15 -99h207q72 0 122 11.5t83.5 30.5t52 42t28 45.5t11.5 42.5t2 32q0 25 -9 51.5
t-35 48t-74 35t-126 13.5h-206z" />
    <glyph glyph-name="Ntilde" unicode="&#xd1;" horiz-adv-x="1091" 
d="M429 744l349 -430l68 430h274l-118 -744h-274l-377 457l-72 -457h-275l118 744h307zM762 793q-17 0 -32 2t-30 5.5t-33 9t-41 12.5q-20 7 -33 10.5t-24 3.5t-14.5 -7t-5.5 -17l-4 -25h-157l12 81q3 18 9.5 36t19.5 33t33.5 24t52.5 9h4q35 0 64.5 -7.5t74.5 -22.5
q17 -5 30.5 -9.5t24.5 -4.5q16 0 19 19l4 30h158l-12 -77q-3 -18 -8.5 -36.5t-18.5 -34t-34 -25t-54 -9.5h-5v0z" />
    <glyph glyph-name="Ograve" unicode="&#xd2;" horiz-adv-x="1146" 
d="M536 -14q-104 0 -182 15t-134 40.5t-92 58.5t-57 70t-29 75.5t-8 73.5q0 17 1 37t4 45q5 34 16 73.5t34.5 79t62 76.5t99 65.5t145.5 45.5t201 17h45q105 0 183 -14.5t134 -39.5t92 -58t57 -69.5t29 -74t8 -72.5q0 -17 -1 -38t-4 -41q-5 -35 -16 -75t-34 -81t-61.5 -78.5
t-99 -66.5t-146 -46.5t-202.5 -17.5h-45zM856 404q0 28 -11.5 55.5t-39.5 49.5t-76.5 35.5t-121.5 13.5q-81 0 -133.5 -16t-84 -41t-45.5 -55.5t-17 -59.5q-2 -14 -2 -20.5v-15.5q0 -28 10.5 -57t38.5 -52.5t76 -38.5t122 -15q80 0 132 16.5t83.5 42t46 57t19.5 62.5
q3 19 3 39zM505 789l-80 155h273l58 -155h-251z" />
    <glyph glyph-name="Oacute" unicode="&#xd3;" horiz-adv-x="1146" 
d="M536 -14q-104 0 -182 15t-134 40.5t-92 58.5t-57 70t-29 75.5t-8 73.5q0 17 1 37t4 45q5 34 16 73.5t34.5 79t62 76.5t99 65.5t145.5 45.5t201 17h45q105 0 183 -14.5t134 -39.5t92 -58t57 -69.5t29 -74t8 -72.5q0 -17 -1 -38t-4 -41q-5 -35 -16 -75t-34 -81t-61.5 -78.5
t-99 -66.5t-146 -46.5t-202.5 -17.5h-45zM856 404q0 28 -11.5 55.5t-39.5 49.5t-76.5 35.5t-121.5 13.5q-81 0 -133.5 -16t-84 -41t-45.5 -55.5t-17 -59.5q-2 -14 -2 -20.5v-15.5q0 -28 10.5 -57t38.5 -52.5t76 -38.5t122 -15q80 0 132 16.5t83.5 42t46 57t19.5 62.5
q3 19 3 39zM502 792l100 155h273l-121 -155h-252z" />
    <glyph glyph-name="Ocircumflex" unicode="&#xd4;" horiz-adv-x="1146" 
d="M536 -14q-104 0 -182 15t-134 40.5t-92 58.5t-57 70t-29 75.5t-8 73.5q0 17 1 37t4 45q5 34 16 73.5t34.5 79t62 76.5t99 65.5t145.5 45.5t201 17h45q105 0 183 -14.5t134 -39.5t92 -58t57 -69.5t29 -74t8 -72.5q0 -17 -1 -38t-4 -41q-5 -35 -16 -75t-34 -81t-61.5 -78.5
t-99 -66.5t-146 -46.5t-202.5 -17.5h-45zM856 404q0 28 -11.5 55.5t-39.5 49.5t-76.5 35.5t-121.5 13.5q-81 0 -133.5 -16t-84 -41t-45.5 -55.5t-17 -59.5q-2 -14 -2 -20.5v-15.5q0 -28 10.5 -57t38.5 -52.5t76 -38.5t122 -15q80 0 132 16.5t83.5 42t46 57t19.5 62.5
q3 19 3 39zM783 944l137 -155h-226l-55 58l-66 -58h-235l173 155h272z" />
    <glyph glyph-name="Otilde" unicode="&#xd5;" horiz-adv-x="1146" 
d="M536 -14q-104 0 -182 15t-134 40.5t-92 58.5t-57 70t-29 75.5t-8 73.5q0 17 1 37t4 45q5 34 16 73.5t34.5 79t62 76.5t99 65.5t145.5 45.5t201 17h45q105 0 183 -14.5t134 -39.5t92 -58t57 -69.5t29 -74t8 -72.5q0 -17 -1 -38t-4 -41q-5 -35 -16 -75t-34 -81t-61.5 -78.5
t-99 -66.5t-146 -46.5t-202.5 -17.5h-45zM856 404q0 28 -11.5 55.5t-39.5 49.5t-76.5 35.5t-121.5 13.5q-81 0 -133.5 -16t-84 -41t-45.5 -55.5t-17 -59.5q-2 -14 -2 -20.5v-15.5q0 -28 10.5 -57t38.5 -52.5t76 -38.5t122 -15q80 0 132 16.5t83.5 42t46 57t19.5 62.5
q3 19 3 39zM764 795q-17 0 -32 2t-30 5.5t-33 9t-41 12.5q-20 7 -33 10.5t-24 3.5t-14.5 -7t-5.5 -17l-4 -25h-157l12 81q3 18 9.5 36t19.5 33t33.5 24t52.5 9h4q35 0 64.5 -7.5t74.5 -22.5q17 -5 30.5 -9.5t24.5 -4.5q16 0 19 19l4 30h158l-12 -77q-3 -18 -8.5 -36.5
t-18.5 -34t-34 -25t-54 -9.5h-5v0z" />
    <glyph glyph-name="Odieresis" unicode="&#xd6;" horiz-adv-x="1146" 
d="M536 -14q-104 0 -182 15t-134 40.5t-92 58.5t-57 70t-29 75.5t-8 73.5q0 17 1 37t4 45q5 34 16 73.5t34.5 79t62 76.5t99 65.5t145.5 45.5t201 17h45q105 0 183 -14.5t134 -39.5t92 -58t57 -69.5t29 -74t8 -72.5q0 -17 -1 -38t-4 -41q-5 -35 -16 -75t-34 -81t-61.5 -78.5
t-99 -66.5t-146 -46.5t-202.5 -17.5h-45zM856 404q0 28 -11.5 55.5t-39.5 49.5t-76.5 35.5t-121.5 13.5q-81 0 -133.5 -16t-84 -41t-45.5 -55.5t-17 -59.5q-2 -14 -2 -20.5v-15.5q0 -28 10.5 -57t38.5 -52.5t76 -38.5t122 -15q80 0 132 16.5t83.5 42t46 57t19.5 62.5
q3 19 3 39zM611 792h-240l25 155h239zM897 792h-240l25 155h240z" />
    <glyph glyph-name="multiply" unicode="&#xd7;" horiz-adv-x="541" 
d="M266 199l-170 -138l-93 118l160 131l-119 129l120 115l128 -138l170 138l94 -119l-161 -131l120 -129l-120 -114z" />
    <glyph glyph-name="Oslash" unicode="&#xd8;" horiz-adv-x="1146" 
d="M536 -14q-93 0 -164.5 13t-125.5 36l-48 -35h-219l147 109q-50 46 -71 100.5t-21 109.5q0 19 1 38.5t4 41.5q5 34 16 74.5t34.5 80t62 76.5t99 65.5t146 45.5t201.5 17h45q92 0 163 -12.5t125 -35.5l46 34h220l-144 -106q51 -45 71.5 -99t20.5 -109q0 -19 -1 -40t-4 -41
q-6 -34 -17 -74.5t-34 -81t-61.5 -78t-99 -66t-145.5 -46t-202 -17.5h-45zM317 350q0 -52 20 -84l385 288q-23 5 -51 6.5t-63 1.5q-85 0 -139 -16.5t-86 -42t-45.5 -56.5t-17.5 -59q-3 -23 -3 -38zM572 184q83 0 137 17t86.5 43.5t47 58.5t18.5 63q3 22 3 38q0 20 -4 40.5
t-15 39.5l-390 -290q46 -10 117 -10z" />
    <glyph glyph-name="Ugrave" unicode="&#xd9;" horiz-adv-x="1072" 
d="M114 744h278l-52 -328q-6 -36 -1.5 -72.5t25.5 -66t63 -48t111 -18.5h1q66 0 109 18.5t70 47.5t40.5 64.5t19.5 70.5l52 332h278l-55 -346q-6 -40 -18 -86t-34.5 -91.5t-58 -87.5t-89 -74t-127 -51.5t-172.5 -19.5h-39q-106 0 -183 20t-129.5 53t-84 75.5t-46.5 88.5
t-16.5 92t4.5 85zM495 789l-80 155h273l58 -155h-251z" />
    <glyph glyph-name="Uacute" unicode="&#xda;" horiz-adv-x="1072" 
d="M114 744h278l-52 -328q-6 -36 -1.5 -72.5t25.5 -66t63 -48t111 -18.5h1q66 0 109 18.5t70 47.5t40.5 64.5t19.5 70.5l52 332h278l-55 -346q-6 -40 -18 -86t-34.5 -91.5t-58 -87.5t-89 -74t-127 -51.5t-172.5 -19.5h-39q-106 0 -183 20t-129.5 53t-84 75.5t-46.5 88.5
t-16.5 92t4.5 85zM468 789l100 155h273l-121 -155h-252z" />
    <glyph glyph-name="Ucircumflex" unicode="&#xdb;" horiz-adv-x="1072" 
d="M114 744h278l-52 -328q-6 -36 -1.5 -72.5t25.5 -66t63 -48t111 -18.5h1q66 0 109 18.5t70 47.5t40.5 64.5t19.5 70.5l52 332h278l-55 -346q-6 -40 -18 -86t-34.5 -91.5t-58 -87.5t-89 -74t-127 -51.5t-172.5 -19.5h-39q-106 0 -183 20t-129.5 53t-84 75.5t-46.5 88.5
t-16.5 92t4.5 85zM760 944l137 -155h-226l-55 58l-66 -58h-235l173 155h272z" />
    <glyph glyph-name="Udieresis" unicode="&#xdc;" horiz-adv-x="1072" 
d="M114 744h278l-52 -328q-6 -36 -1.5 -72.5t25.5 -66t63 -48t111 -18.5h1q66 0 109 18.5t70 47.5t40.5 64.5t19.5 70.5l52 332h278l-55 -346q-6 -40 -18 -86t-34.5 -91.5t-58 -87.5t-89 -74t-127 -51.5t-172.5 -19.5h-39q-106 0 -183 20t-129.5 53t-84 75.5t-46.5 88.5
t-16.5 92t4.5 85zM590 789h-240l25 155h239zM876 789h-240l25 155h240z" />
    <glyph glyph-name="Yacute" unicode="&#xdd;" horiz-adv-x="1015" 
d="M375 280l-324 464h319l173 -257l257 257h314l-462 -466l-44 -278h-277zM454 789l100 155h273l-121 -155h-252z" />
    <glyph glyph-name="Thorn" unicode="&#xde;" horiz-adv-x="1014" 
d="M281 0h-277l118 744h277l-18 -111h306q94 0 156.5 -17t100.5 -47t54 -71.5t16 -89.5t-14 -99t-54 -93t-111 -68.5t-186 -26.5h-349zM330 309h290q56 0 79.5 22t23.5 57q0 29 -19.5 44.5t-62.5 15.5h-289z" />
    <glyph glyph-name="germandbls" unicode="&#xdf;" horiz-adv-x="894" 
d="M718 435q28 -6 56.5 -18.5t50.5 -34t36 -53t14 -75.5q0 -41 -12.5 -85.5t-48.5 -82t-100.5 -62t-169.5 -24.5h-228l26 169h128q41 0 65.5 8t38 20t18 26t4.5 27q0 12 -4 23t-16 18.5t-32.5 12t-53.5 4.5h-126l27 170h117q32 0 52 5.5t30.5 14.5t14 19.5t3.5 20.5t-4 19.5
t-16 17t-35 12t-61 4.5h-19q-36 0 -60 -5.5t-39 -15.5t-22 -25t-10 -34l-81 -511h-265l84 527q5 36 19.5 74.5t52.5 70t108.5 52t187.5 20.5h68q115 0 185 -14t108 -37.5t50 -53t12 -60.5t-12.5 -55.5t-33.5 -42.5t-49 -29.5t-58 -16.5z" />
    <glyph glyph-name="agrave" unicode="&#xe0;" horiz-adv-x="826" 
d="M335 120q69 0 113.5 30.5t53.5 77.5l4 26l-179 -32q-41 -7 -56 -19.5t-15 -33.5q0 -18 16.5 -33.5t62.5 -15.5zM231 -10q-64 0 -108.5 12.5t-72 34.5t-39.5 50t-12 60q0 35 12 71t48 62q28 21 71 33t110 18l253 22q34 3 34 28q0 7 -3 14t-14.5 13t-33.5 9.5t-60 3.5h-2
q-42 0 -66.5 -6t-36.5 -15t-16 -18.5t-6 -15.5h-244q2 17 7 38t18 41.5t36 39.5t61 34t94.5 24t136.5 9h50q122 0 191.5 -18t103 -45.5t39 -61.5t0.5 -66l-29 -181q-2 -10 2.5 -16.5t18.5 -6.5h28l-25 -157h-216q-33 0 -53 19t-23 53q-10 -11 -29 -25t-49 -26.5t-71 -21.5
t-95 -9h-10zM553 583h-241l-88 161h264z" />
    <glyph glyph-name="aacute" unicode="&#xe1;" horiz-adv-x="826" 
d="M335 120q69 0 113.5 30.5t53.5 77.5l4 26l-179 -32q-41 -7 -56 -19.5t-15 -33.5q0 -18 16.5 -33.5t62.5 -15.5zM231 -10q-64 0 -108.5 12.5t-72 34.5t-39.5 50t-12 60q0 35 12 71t48 62q28 21 71 33t110 18l253 22q34 3 34 28q0 7 -3 14t-14.5 13t-33.5 9.5t-60 3.5h-2
q-42 0 -66.5 -6t-36.5 -15t-16 -18.5t-6 -15.5h-244q2 17 7 38t18 41.5t36 39.5t61 34t94.5 24t136.5 9h50q122 0 191.5 -18t103 -45.5t39 -61.5t0.5 -66l-29 -181q-2 -10 2.5 -16.5t18.5 -6.5h28l-25 -157h-216q-33 0 -53 19t-23 53q-10 -11 -29 -25t-49 -26.5t-71 -21.5
t-95 -9h-10zM311 583l108 161h261l-129 -161h-240z" />
    <glyph glyph-name="acircumflex" unicode="&#xe2;" horiz-adv-x="826" 
d="M335 120q69 0 113.5 30.5t53.5 77.5l4 26l-179 -32q-41 -7 -56 -19.5t-15 -33.5q0 -18 16.5 -33.5t62.5 -15.5zM231 -10q-64 0 -108.5 12.5t-72 34.5t-39.5 50t-12 60q0 35 12 71t48 62q28 21 71 33t110 18l253 22q34 3 34 28q0 7 -3 14t-14.5 13t-33.5 9.5t-60 3.5h-2
q-42 0 -66.5 -6t-36.5 -15t-16 -18.5t-6 -15.5h-244q2 17 7 38t18 41.5t36 39.5t61 34t94.5 24t136.5 9h50q122 0 191.5 -18t103 -45.5t39 -61.5t0.5 -66l-29 -181q-2 -10 2.5 -16.5t18.5 -6.5h28l-25 -157h-216q-33 0 -53 19t-23 53q-10 -11 -29 -25t-49 -26.5t-71 -21.5
t-95 -9h-10zM721 582h-225l-49 66l-61 -66h-234l169 162h269z" />
    <glyph glyph-name="atilde" unicode="&#xe3;" horiz-adv-x="826" 
d="M335 120q69 0 113.5 30.5t53.5 77.5l4 26l-179 -32q-41 -7 -56 -19.5t-15 -33.5q0 -18 16.5 -33.5t62.5 -15.5zM231 -10q-64 0 -108.5 12.5t-72 34.5t-39.5 50t-12 60q0 35 12 71t48 62q28 21 71 33t110 18l253 22q34 3 34 28q0 7 -3 14t-14.5 13t-33.5 9.5t-60 3.5h-2
q-42 0 -66.5 -6t-36.5 -15t-16 -18.5t-6 -15.5h-244q2 17 7 38t18 41.5t36 39.5t61 34t94.5 24t136.5 9h50q122 0 191.5 -18t103 -45.5t39 -61.5t0.5 -66l-29 -181q-2 -10 2.5 -16.5t18.5 -6.5h28l-25 -157h-216q-33 0 -53 19t-23 53q-10 -11 -29 -25t-49 -26.5t-71 -21.5
t-95 -9h-10zM561 586q-18 0 -32 1.5t-28.5 4.5t-31.5 8.5t-39 13.5q-20 7 -32.5 11t-21.5 4q-10 0 -13.5 -6.5t-5.5 -16.5l-4 -25h-155l13 84q3 16 9 33t18.5 30.5t33 22t51.5 8.5h4q18 0 32.5 -1.5t29.5 -5t32.5 -9t40.5 -13.5q17 -6 29.5 -10t21.5 -4q14 0 17 19l5 29h157
l-12 -75q-3 -18 -9 -36.5t-18.5 -33t-33.5 -24t-53 -9.5h-5v0z" />
    <glyph glyph-name="adieresis" unicode="&#xe4;" horiz-adv-x="826" 
d="M335 120q69 0 113.5 30.5t53.5 77.5l4 26l-179 -32q-41 -7 -56 -19.5t-15 -33.5q0 -18 16.5 -33.5t62.5 -15.5zM231 -10q-64 0 -108.5 12.5t-72 34.5t-39.5 50t-12 60q0 35 12 71t48 62q28 21 71 33t110 18l253 22q34 3 34 28q0 7 -3 14t-14.5 13t-33.5 9.5t-60 3.5h-2
q-42 0 -66.5 -6t-36.5 -15t-16 -18.5t-6 -15.5h-244q2 17 7 38t18 41.5t36 39.5t61 34t94.5 24t136.5 9h50q122 0 191.5 -18t103 -45.5t39 -61.5t0.5 -66l-29 -181q-2 -10 2.5 -16.5t18.5 -6.5h28l-25 -157h-216q-33 0 -53 19t-23 53q-10 -11 -29 -25t-49 -26.5t-71 -21.5
t-95 -9h-10zM414 583h-232l25 161h233zM692 583h-233l25 161h233z" />
    <glyph glyph-name="aring" unicode="&#xe5;" horiz-adv-x="826" 
d="M335 120q69 0 113.5 30.5t53.5 77.5l4 26l-179 -32q-41 -7 -56 -19.5t-15 -33.5q0 -18 16.5 -33.5t62.5 -15.5zM231 -10q-64 0 -108.5 12.5t-72 34.5t-39.5 50t-12 60q0 35 12 71t48 62q28 21 71 33t110 18l253 22q34 3 34 28q0 7 -3 14t-14.5 13t-33.5 9.5t-60 3.5h-2
q-42 0 -66.5 -6t-36.5 -15t-16 -18.5t-6 -15.5h-244q2 17 7 38t18 41.5t36 39.5t61 34t94.5 24t136.5 9h50q122 0 191.5 -18t103 -45.5t39 -61.5t0.5 -66l-29 -181q-2 -10 2.5 -16.5t18.5 -6.5h28l-25 -157h-216q-33 0 -53 19t-23 53q-10 -11 -29 -25t-49 -26.5t-71 -21.5
t-95 -9h-10zM247 696q0 24 9.5 45.5t32.5 37.5t61 25.5t95 9.5t94.5 -9.5t60 -25.5t31.5 -37.5t9 -45.5q0 -25 -9 -46.5t-31.5 -37.5t-60 -25.5t-94.5 -9.5q-58 0 -96.5 9.5t-61 25.5t-31.5 38t-9 46zM370 696q0 -20 18 -32.5t57 -12.5q38 0 55.5 12.5t17.5 32.5t-17.5 32
t-55.5 12q-39 0 -57 -12t-18 -32z" />
    <glyph glyph-name="ae" unicode="&#xe6;" horiz-adv-x="1357" 
d="M942 421q-38 0 -65 -6t-46 -16.5t-30.5 -25.5t-18.5 -33h303q-4 38 -36 59.5t-107 21.5zM340 120q71 0 112.5 31t49.5 78q1 4 2.5 13.5t1.5 11.5l-179 -32q-40 -7 -52.5 -19.5t-12.5 -33.5q0 -18 16.5 -33.5t61.5 -15.5zM1329 196q-3 -19 -10 -41.5t-22.5 -46
t-42.5 -45.5t-70.5 -39.5t-105.5 -28t-148 -10.5h-50q-75 0 -130 10.5t-94.5 26.5t-65 36t-40.5 40q-10 -12 -30 -30.5t-53.5 -36t-83 -30t-118.5 -12.5h-10q-70 0 -118.5 12.5t-79 34.5t-44.5 50.5t-14 61.5q0 34 12 70t48 62q28 21 71 33.5t110 17.5l253 22q34 3 34 28
q0 7 -3 14t-14.5 13t-33.5 9.5t-60 3.5h-2q-42 0 -66.5 -6t-36.5 -15t-16 -18.5t-6 -15.5h-244q3 17 7.5 38t17 41.5t35.5 39.5t61 34t93.5 24t134.5 9h54q54 0 93 -4.5t66.5 -12t45.5 -16.5t29 -17q24 16 84 33.5t156 17.5h53q120 0 192.5 -24t111 -60.5t51 -80.5t12.5 -84
q0 -23 -3 -42.5t-5 -31.5h-571q1 -20 9 -38t25 -31.5t45 -21.5t68 -8h1q46 0 75.5 8t46.5 19t24 21.5t9 16.5h263z" />
    <glyph glyph-name="ccedilla" unicode="&#xe7;" horiz-adv-x="868" 
d="M381 -15q-110 0 -180.5 21.5t-111.5 56.5t-57 79.5t-16 89.5q0 15 1 29t4 35q6 44 27.5 90t67.5 83t122.5 60.5t192.5 23.5h61q88 0 150 -12t103.5 -32.5t65.5 -46t35 -52.5t13 -53t-1 -47h-270q0 7 -3.5 22.5t-17 31.5t-40.5 27.5t-75 11.5h-4q-48 0 -79.5 -15
t-49.5 -37.5t-25 -50t-7 -52.5q0 -22 6.5 -42t21.5 -35.5t40 -24.5t61 -9h5q45 0 74 12t46 27.5t24.5 32t10.5 25.5h270q-3 -19 -9.5 -45.5t-22 -54t-42.5 -54.5t-71 -48t-108.5 -34t-153.5 -13h-58zM196 -167h106q23 0 30 7t7 16t-6 15t-26 6h-68l20 123h134l-7 -49
q52 0 85 -7t52.5 -19.5t27 -30t7.5 -37.5t-6.5 -40.5t-27 -37t-59.5 -27.5t-104 -11h-180z" />
    <glyph glyph-name="egrave" unicode="&#xe8;" horiz-adv-x="867" 
d="M452 421q-38 0 -65 -6t-46 -16.5t-30.5 -25.5t-18.5 -33h303q-4 38 -36 59.5t-107 21.5zM839 196q-3 -19 -10 -41.5t-22.5 -46t-42.5 -45.5t-70 -39.5t-105 -28t-148 -10.5h-51q-112 0 -184.5 21.5t-114.5 57t-58.5 81t-16.5 93.5q0 13 1 26.5t3 28.5q7 46 27.5 92
t66.5 83.5t122.5 61t195.5 23.5h54q117 0 188.5 -22.5t111 -59t52.5 -83t13 -94.5q0 -15 -2 -35t-4 -29h-571q0 -20 8 -38t25 -31.5t45 -21.5t68 -8h1q46 0 75 8t46 19t24.5 21.5t9.5 16.5h263zM587 583h-241l-88 161h264z" />
    <glyph glyph-name="eacute" unicode="&#xe9;" horiz-adv-x="867" 
d="M452 421q-38 0 -65 -6t-46 -16.5t-30.5 -25.5t-18.5 -33h303q-4 38 -36 59.5t-107 21.5zM839 196q-3 -19 -10 -41.5t-22.5 -46t-42.5 -45.5t-70 -39.5t-105 -28t-148 -10.5h-51q-112 0 -184.5 21.5t-114.5 57t-58.5 81t-16.5 93.5q0 13 1 26.5t3 28.5q7 46 27.5 92
t66.5 83.5t122.5 61t195.5 23.5h54q117 0 188.5 -22.5t111 -59t52.5 -83t13 -94.5q0 -15 -2 -35t-4 -29h-571q0 -20 8 -38t25 -31.5t45 -21.5t68 -8h1q46 0 75 8t46 19t24.5 21.5t9.5 16.5h263zM346 583l108 161h261l-129 -161h-240z" />
    <glyph glyph-name="ecircumflex" unicode="&#xea;" horiz-adv-x="867" 
d="M452 421q-38 0 -65 -6t-46 -16.5t-30.5 -25.5t-18.5 -33h303q-4 38 -36 59.5t-107 21.5zM839 196q-3 -19 -10 -41.5t-22.5 -46t-42.5 -45.5t-70 -39.5t-105 -28t-148 -10.5h-51q-112 0 -184.5 21.5t-114.5 57t-58.5 81t-16.5 93.5q0 13 1 26.5t3 28.5q7 46 27.5 92
t66.5 83.5t122.5 61t195.5 23.5h54q117 0 188.5 -22.5t111 -59t52.5 -83t13 -94.5q0 -15 -2 -35t-4 -29h-571q0 -20 8 -38t25 -31.5t45 -21.5t68 -8h1q46 0 75 8t46 19t24.5 21.5t9.5 16.5h263zM752 582h-225l-49 66l-61 -66h-234l169 162h269z" />
    <glyph glyph-name="edieresis" unicode="&#xeb;" horiz-adv-x="867" 
d="M452 421q-38 0 -65 -6t-46 -16.5t-30.5 -25.5t-18.5 -33h303q-4 38 -36 59.5t-107 21.5zM839 196q-3 -19 -10 -41.5t-22.5 -46t-42.5 -45.5t-70 -39.5t-105 -28t-148 -10.5h-51q-112 0 -184.5 21.5t-114.5 57t-58.5 81t-16.5 93.5q0 13 1 26.5t3 28.5q7 46 27.5 92
t66.5 83.5t122.5 61t195.5 23.5h54q117 0 188.5 -22.5t111 -59t52.5 -83t13 -94.5q0 -15 -2 -35t-4 -29h-571q0 -20 8 -38t25 -31.5t45 -21.5t68 -8h1q46 0 75 8t46 19t24.5 21.5t9.5 16.5h263zM451 583h-232l25 161h233zM729 583h-233l25 161h233z" />
    <glyph glyph-name="igrave" unicode="&#xec;" horiz-adv-x="343" 
d="M261 0h-265l85 538h265zM336 583h-241l-88 161h264z" />
    <glyph glyph-name="iacute" unicode="&#xed;" horiz-adv-x="343" 
d="M261 0h-265l85 538h265zM102 583l108 161h261l-129 -161h-240z" />
    <glyph glyph-name="icircumflex" unicode="&#xee;" horiz-adv-x="343" 
d="M446 583h-185l-34 68l-50 -68h-186l126 161h243zM261 0h-265l85 538h265z" />
    <glyph glyph-name="idieresis" unicode="&#xef;" horiz-adv-x="343" 
d="M201 583h-184l26 161h183zM421 583h-184l25 161h184zM261 0h-265l85 538h265z" />
    <glyph glyph-name="eth" unicode="&#xf0;" horiz-adv-x="910" 
d="M400 -16q-108 0 -181.5 20.5t-118.5 55.5t-64.5 81.5t-19.5 97.5q0 23 3 49q5 46 24.5 90.5t58.5 80t99 57t147 21.5h12q82 0 133 -14t89 -35l-120 97l-280 -30l15 91l168 18l-99 80h308l64 -50l215 23l-15 -91l-100 -11q44 -35 74 -69.5t49 -69t27 -69.5t8 -72
q0 -14 -0.5 -30.5t-2.5 -32.5q-4 -30 -12.5 -63t-27 -65t-48.5 -61t-76.5 -51t-112 -35t-153.5 -13h-63zM288 252q0 -20 7.5 -40.5t24.5 -37t46 -26.5t73 -10h1q54 0 88.5 14.5t55 37t28.5 49.5t8 53q0 20 -7.5 39.5t-25 35t-47 25t-73.5 9.5h-1q-55 0 -90 -14t-54.5 -36
t-26.5 -48.5t-7 -50.5z" />
    <glyph glyph-name="ntilde" unicode="&#xf1;" horiz-adv-x="866" 
d="M81 538h264l-16 -96q7 7 28 25t55 36.5t80.5 32.5t105.5 14h6q73 0 121 -21t75 -54t35 -73t2 -78l-51 -324h-266l41 257q4 27 0.5 49.5t-16.5 39t-35.5 26t-56.5 9.5q-67 0 -105 -36.5t-47 -92.5l-40 -252h-265zM602 585q-18 0 -32 1.5t-28.5 4.5t-31.5 8.5t-39 13.5
q-20 7 -32.5 11t-21.5 4q-10 0 -13.5 -6.5t-5.5 -16.5l-4 -25h-155l13 84q3 16 9 33t18.5 30.5t33 22t51.5 8.5h4q18 0 32.5 -1.5t29.5 -5t32.5 -9t40.5 -13.5q17 -6 29.5 -10t21.5 -4q14 0 17 19l5 29h157l-12 -75q-3 -18 -9 -36.5t-18.5 -33t-33.5 -24t-53 -9.5h-5v0z" />
    <glyph glyph-name="ograve" unicode="&#xf2;" horiz-adv-x="904" 
d="M394 -16q-115 0 -188.5 24t-115.5 61t-58 81.5t-16 86.5q0 11 0.5 24.5t2.5 25.5q6 43 24.5 90t64.5 86t125.5 64.5t205.5 25.5h73q117 0 190.5 -22t115 -57.5t56.5 -79t15 -85.5q0 -11 -1 -25t-3 -30q-4 -28 -12 -58.5t-25.5 -60.5t-46 -57.5t-74 -48t-109.5 -33
t-152 -12.5h-72zM465 401q-55 0 -89.5 -14t-54 -35.5t-27 -48t-7.5 -51.5q0 -20 7.5 -40.5t24.5 -37t46 -26.5t73 -10h1q54 0 88.5 14.5t55 37t28.5 49.5t8 53q0 20 -7.5 39.5t-25 35t-47 25t-73.5 9.5h-1zM604 583h-241l-88 161h264z" />
    <glyph glyph-name="oacute" unicode="&#xf3;" horiz-adv-x="904" 
d="M394 -16q-115 0 -188.5 24t-115.5 61t-58 81.5t-16 86.5q0 11 0.5 24.5t2.5 25.5q6 43 24.5 90t64.5 86t125.5 64.5t205.5 25.5h73q117 0 190.5 -22t115 -57.5t56.5 -79t15 -85.5q0 -11 -1 -25t-3 -30q-4 -28 -12 -58.5t-25.5 -60.5t-46 -57.5t-74 -48t-109.5 -33
t-152 -12.5h-72zM465 401q-55 0 -89.5 -14t-54 -35.5t-27 -48t-7.5 -51.5q0 -20 7.5 -40.5t24.5 -37t46 -26.5t73 -10h1q54 0 88.5 14.5t55 37t28.5 49.5t8 53q0 20 -7.5 39.5t-25 35t-47 25t-73.5 9.5h-1zM363 583l108 161h261l-129 -161h-240z" />
    <glyph glyph-name="ocircumflex" unicode="&#xf4;" horiz-adv-x="904" 
d="M394 -16q-115 0 -188.5 24t-115.5 61t-58 81.5t-16 86.5q0 11 0.5 24.5t2.5 25.5q6 43 24.5 90t64.5 86t125.5 64.5t205.5 25.5h73q117 0 190.5 -22t115 -57.5t56.5 -79t15 -85.5q0 -11 -1 -25t-3 -30q-4 -28 -12 -58.5t-25.5 -60.5t-46 -57.5t-74 -48t-109.5 -33
t-152 -12.5h-72zM465 401q-55 0 -89.5 -14t-54 -35.5t-27 -48t-7.5 -51.5q0 -20 7.5 -40.5t24.5 -37t46 -26.5t73 -10h1q54 0 88.5 14.5t55 37t28.5 49.5t8 53q0 20 -7.5 39.5t-25 35t-47 25t-73.5 9.5h-1zM770 582h-225l-49 66l-61 -66h-234l169 162h269z" />
    <glyph glyph-name="otilde" unicode="&#xf5;" horiz-adv-x="904" 
d="M394 -16q-115 0 -188.5 24t-115.5 61t-58 81.5t-16 86.5q0 11 0.5 24.5t2.5 25.5q6 43 24.5 90t64.5 86t125.5 64.5t205.5 25.5h73q117 0 190.5 -22t115 -57.5t56.5 -79t15 -85.5q0 -11 -1 -25t-3 -30q-4 -28 -12 -58.5t-25.5 -60.5t-46 -57.5t-74 -48t-109.5 -33
t-152 -12.5h-72zM465 401q-55 0 -89.5 -14t-54 -35.5t-27 -48t-7.5 -51.5q0 -20 7.5 -40.5t24.5 -37t46 -26.5t73 -10h1q54 0 88.5 14.5t55 37t28.5 49.5t8 53q0 20 -7.5 39.5t-25 35t-47 25t-73.5 9.5h-1zM612 587q-18 0 -32 1.5t-28.5 4.5t-31.5 8.5t-39 13.5
q-20 7 -32.5 11t-21.5 4q-10 0 -13.5 -6.5t-5.5 -16.5l-4 -25h-155l13 84q3 16 9 33t18.5 30.5t33 22t51.5 8.5h4q18 0 32.5 -1.5t29.5 -5t32.5 -9t40.5 -13.5q17 -6 29.5 -10t21.5 -4q14 0 17 19l5 29h157l-12 -75q-3 -18 -9 -36.5t-18.5 -33t-33.5 -24t-53 -9.5h-5v0z" />
    <glyph glyph-name="odieresis" unicode="&#xf6;" horiz-adv-x="904" 
d="M394 -16q-115 0 -188.5 24t-115.5 61t-58 81.5t-16 86.5q0 11 0.5 24.5t2.5 25.5q6 43 24.5 90t64.5 86t125.5 64.5t205.5 25.5h73q117 0 190.5 -22t115 -57.5t56.5 -79t15 -85.5q0 -11 -1 -25t-3 -30q-4 -28 -12 -58.5t-25.5 -60.5t-46 -57.5t-74 -48t-109.5 -33
t-152 -12.5h-72zM465 401q-55 0 -89.5 -14t-54 -35.5t-27 -48t-7.5 -51.5q0 -20 7.5 -40.5t24.5 -37t46 -26.5t73 -10h1q54 0 88.5 14.5t55 37t28.5 49.5t8 53q0 20 -7.5 39.5t-25 35t-47 25t-73.5 9.5h-1zM473 583h-232l25 161h233zM751 583h-233l25 161h233z" />
    <glyph glyph-name="divide" unicode="&#xf7;" horiz-adv-x="607" 
d="M428 432h-196l25 160h195zM593 384l-24 -151h-542l25 151h541zM364 23h-196l24 160h196z" />
    <glyph glyph-name="oslash" unicode="&#xf8;" horiz-adv-x="904" 
d="M394 -16q-71 0 -124.5 10.5t-91.5 26.5l-32 -21h-173l114 77q-35 30 -53 71.5t-18 88.5q0 11 0.5 24.5t2.5 25.5q6 43 24.5 90t64.5 86t125.5 64.5t205.5 25.5h73q79 0 132 -11.5t85 -24.5l32 21h175l-114 -76q26 -25 46.5 -62.5t20.5 -88.5q0 -11 -1 -26.5t-3 -31.5
q-4 -28 -12 -58.5t-25 -60.5t-46 -57t-74.5 -47.5t-109.5 -33t-152 -12.5h-72zM280 252q0 -11 1.5 -20.5t3.5 -19.5l266 182q-35 11 -85 11h-1q-57 0 -93.5 -14t-56.5 -36t-27.5 -49.5t-7.5 -53.5zM439 135q58 0 94.5 15t57 38.5t28 51t7.5 52.5q0 19 -4 34l-263 -181
q16 -5 35.5 -7.5t43.5 -2.5h1z" />
    <glyph glyph-name="ugrave" unicode="&#xf9;" horiz-adv-x="857" 
d="M776 0h-264l16 96q-8 -8 -28.5 -25.5t-54 -36t-79 -32.5t-103.5 -14h-6q-72 0 -118.5 21t-73 54.5t-34 74.5t-1.5 80l50 320h266l-41 -257q-8 -53 14.5 -88.5t87.5 -35.5q63 0 101.5 36t47.5 92l40 253h265zM598 583h-241l-88 161h264z" />
    <glyph glyph-name="uacute" unicode="&#xfa;" horiz-adv-x="857" 
d="M776 0h-264l16 96q-8 -8 -28.5 -25.5t-54 -36t-79 -32.5t-103.5 -14h-6q-72 0 -118.5 21t-73 54.5t-34 74.5t-1.5 80l50 320h266l-41 -257q-8 -53 14.5 -88.5t87.5 -35.5q63 0 101.5 36t47.5 92l40 253h265zM342 583l108 161h261l-129 -161h-240z" />
    <glyph glyph-name="ucircumflex" unicode="&#xfb;" horiz-adv-x="857" 
d="M776 0h-264l16 96q-8 -8 -28.5 -25.5t-54 -36t-79 -32.5t-103.5 -14h-6q-72 0 -118.5 21t-73 54.5t-34 74.5t-1.5 80l50 320h266l-41 -257q-8 -53 14.5 -88.5t87.5 -35.5q63 0 101.5 36t47.5 92l40 253h265zM755 582h-225l-49 66l-61 -66h-234l169 162h269z" />
    <glyph glyph-name="udieresis" unicode="&#xfc;" horiz-adv-x="857" 
d="M776 0h-264l16 96q-8 -8 -28.5 -25.5t-54 -36t-79 -32.5t-103.5 -14h-6q-72 0 -118.5 21t-73 54.5t-34 74.5t-1.5 80l50 320h266l-41 -257q-8 -53 14.5 -88.5t87.5 -35.5q63 0 101.5 36t47.5 92l40 253h265zM448 583h-232l25 161h233zM726 583h-233l25 161h233z" />
    <glyph glyph-name="yacute" unicode="&#xfd;" horiz-adv-x="799" 
d="M77 -22h118q29 0 29 23q0 13 -14 50l-182 487h278l100 -347l182 347h268l-330 -560q-25 -43 -48.5 -74t-48.5 -51.5t-54 -30.5t-64 -10h-261zM322 583l108 161h261l-129 -161h-240z" />
    <glyph glyph-name="thorn" unicode="&#xfe;" horiz-adv-x="912" 
d="M479 399q-40 0 -70 -9.5t-51 -25.5t-33.5 -35.5t-16.5 -39.5q-2 -7 -3 -16.5t-1 -18.5q0 -21 9 -41t27.5 -36.5t47.5 -26.5t68 -10h6q47 0 78.5 13.5t50 35.5t26 48t7.5 52q0 22 -7 42t-23.5 35t-43.5 24t-66 9h-5zM379 744l-44 -277q8 7 27.5 20.5t51 27t75.5 23.5
t101 10h15q82 0 138 -20t90 -53t48.5 -75.5t14.5 -87.5q0 -14 -1 -29.5t-3 -34.5q-6 -51 -29 -97.5t-65.5 -82.5t-107.5 -57t-155 -21h-15q-55 0 -97.5 9.5t-73.5 22.5t-50 26.5t-27 21.5l-41 -258h-265l148 932h265z" />
    <glyph glyph-name="ydieresis" unicode="&#xff;" horiz-adv-x="799" 
d="M77 -22h118q29 0 29 23q0 13 -14 50l-182 487h278l100 -347l182 347h268l-330 -560q-25 -43 -48.5 -74t-48.5 -51.5t-54 -30.5t-64 -10h-261zM424 583h-232l25 161h233zM702 583h-233l25 161h233z" />
    <glyph glyph-name="dotlessi" unicode="&#x131;" horiz-adv-x="343" 
d="M261 0h-265l85 538h265z" />
    <glyph glyph-name="Lslash" unicode="&#x141;" horiz-adv-x="866" 
d="M417 744l-47 -291l313 107l-24 -154l-313 -104l-14 -89h499l-33 -213h-776l32 205l-71 -23l24 146l71 24l62 392h277z" />
    <glyph glyph-name="lslash" unicode="&#x142;" horiz-adv-x="374" 
d="M276 0h-265l40 253l-57 -23l24 150l57 23l54 341h265l-36 -223l58 24l-24 -153l-58 -24z" />
    <glyph glyph-name="OE" unicode="&#x152;" horiz-adv-x="1660" 
d="M850 404q0 28 -11.5 55.5t-39.5 49.5t-75.5 35.5t-119.5 13.5q-81 0 -134 -16.5t-84 -42.5t-44.5 -57.5t-15.5 -61.5q-1 -10 -1 -17.5v-12.5q0 -28 10.5 -57t38 -52.5t75 -38.5t120.5 -15q79 0 130.5 16.5t83 42.5t46 57.5t18.5 62.5q3 22 3 38zM508 -13q-97 0 -170.5 15
t-126 40t-87 58.5t-54.5 70.5t-28 75t-8 73q0 19 1 39t4 42q5 34 16 73.5t34 79t61 76.5t96 65t139.5 45t191.5 17h39q69 0 121 -7.5t90 -19t63.5 -25t41.5 -25.5l11 65h752l-29 -182h-514l-15 -93h505l-29 -181h-505l-17 -102h522l-29 -186h-759l9 57q-38 -26 -108.5 -48
t-179.5 -22h-38z" />
    <glyph glyph-name="oe" unicode="&#x153;" horiz-adv-x="1473" 
d="M1058 421q-38 0 -65 -6t-46 -16.5t-31 -25.5t-19 -33h304q-4 38 -36 59.5t-107 21.5zM438 138q54 0 88.5 14.5t55 37t28.5 49.5t8 53q0 20 -7.5 39.5t-25 35t-47 25t-73.5 9.5h-1q-54 0 -88.5 -14t-54 -35.5t-27 -48t-7.5 -51.5q0 -20 7.5 -40.5t24.5 -37t46 -26.5
t73 -10zM400 -16q-117 0 -192 23.5t-117.5 60.5t-58.5 82t-16 87q0 11 0.5 24.5t2.5 25.5q6 43 24.5 90t64 86t123.5 64.5t203 25.5h70q60 0 105 -8.5t77 -21t52.5 -26t31.5 -23.5q12 11 34.5 25t56.5 26t78.5 20t101.5 8h54q118 0 190.5 -24t111 -62t50 -84.5t9.5 -91.5
q0 -17 -2 -34.5t-4 -26.5h-570q0 -20 8 -38t25 -31.5t44.5 -21.5t67.5 -8h2q46 0 75 8t46 19t24 21.5t10 16.5h263q-3 -19 -10 -41.5t-23 -46t-42.5 -45.5t-69.5 -39.5t-105 -28t-147 -10.5h-51q-50 0 -90.5 7.5t-72.5 19t-56 26t-39 28.5q-11 -11 -34 -25t-57 -27
t-79 -21.5t-101 -8.5h-68z" />
    <glyph glyph-name="Scaron" unicode="&#x160;" horiz-adv-x="1012" 
d="M424 -14q-100 0 -170.5 13.5t-117 35.5t-73.5 50.5t-39.5 59t-14.5 60.5t1 55h304q0 -16 4.5 -34.5t21.5 -34t50.5 -26t93.5 -10.5h8q64 0 100.5 7.5t55.5 18.5t24 24.5t5 25.5q0 13 -5.5 24t-22 18.5t-47 12.5t-81.5 7l-124 5q-99 3 -163.5 22t-102.5 49t-53 68.5
t-15 81.5q0 12 1 23.5t3 19.5q7 42 31.5 77.5t75 62t133 41t206.5 14.5h85q139 0 223 -21.5t127.5 -56.5t55 -78.5t6.5 -86.5h-300q-1 11 -5 25t-20.5 26t-50 20.5t-92.5 8.5h-9q-57 0 -90 -5t-50.5 -13t-22 -18.5t-4.5 -21.5q0 -10 4.5 -19.5t19.5 -17.5t43.5 -13t76.5 -6
l121 -3q100 -3 169 -17t111.5 -39.5t61.5 -64t19 -89.5q0 -14 -1 -27.5t-3 -23.5q-7 -44 -28.5 -85.5t-73 -73.5t-141.5 -51.5t-234 -19.5h-87v0zM421 789l-137 155h227l54 -58l66 58h235l-173 -155h-272z" />
    <glyph glyph-name="scaron" unicode="&#x161;" horiz-adv-x="797" 
d="M334 -15q-80 0 -136.5 9.5t-94.5 25t-59.5 36t-32 42.5t-13 44t-0.5 41h270q0 -9 2.5 -20t12.5 -21t30.5 -17t56.5 -7h2q39 0 62 4t34.5 11t15 15t3.5 17t-3 16.5t-12.5 13t-27 9t-45.5 4.5l-108 4q-76 3 -125.5 18t-78 37.5t-39.5 51t-11 58.5q0 8 1 17.5t3 19.5
q7 30 26 55.5t59.5 44t106 29t166.5 10.5h49q110 0 177 -14t102 -38t45 -55.5t7 -66.5h-263q0 7 -3 15.5t-14 16t-32.5 12.5t-59.5 5q-35 0 -55 -3t-30.5 -8.5t-13.5 -12.5t-3 -14q0 -8 3.5 -14.5t12.5 -11t25.5 -7.5t42.5 -4l106 -4q82 -3 135 -15t83.5 -32.5t42 -48.5
t11.5 -63q0 -11 -1 -23t-3 -23q-7 -33 -24.5 -61.5t-58.5 -50.5t-111.5 -34.5t-183.5 -12.5h-51v0zM164 744h224l49 -65l61 65h234l-168 -161h-270z" />
    <glyph glyph-name="Ydieresis" unicode="&#x178;" horiz-adv-x="1015" 
d="M375 280l-324 464h319l173 -257l257 257h314l-462 -466l-44 -278h-277zM565 789h-240l25 155h239zM851 789h-240l25 155h240z" />
    <glyph glyph-name="Zcaron" unicode="&#x17d;" horiz-adv-x="928" 
d="M971 744l-24 -151l-532 -391h476l-32 -202h-875l25 151l530 397h-461l30 196h863zM397 789l-137 155h227l54 -58l66 58h235l-173 -155h-272z" />
    <glyph glyph-name="zcaron" unicode="&#x17e;" horiz-adv-x="734" 
d="M-20 0l22 146l387 233h-349l25 159h688l-22 -143l-395 -230h359l-25 -165h-690zM148 744h224l49 -65l61 65h234l-168 -161h-270z" />
    <glyph glyph-name="circumflex" unicode="&#x2c6;" 
d="M689 582h-225l-49 66l-61 -66h-234l169 162h269z" />
    <glyph glyph-name="caron" unicode="&#x2c7;" 
d="M144 744h224l49 -65l61 65h234l-168 -161h-270z" />
    <glyph glyph-name="breve" unicode="&#x2d8;" 
d="M365 744q0 -5 1.5 -13.5t7.5 -16t17.5 -13t31.5 -5.5t33 5.5t20.5 13t11 16t3.5 13.5h173q-1 -22 -12.5 -50.5t-37.5 -54.5t-69 -44t-107 -18h-39q-71 0 -113 18t-64 44t-27.5 54.5t-3.5 50.5h174v0z" />
    <glyph glyph-name="dotaccent" unicode="&#x2d9;" 
d="M534 583h-265l26 161h265z" />
    <glyph glyph-name="ring" unicode="&#x2da;" 
d="M223 695q0 24 9.5 45.5t32.5 37.5t61 25.5t95 9.5t94.5 -9.5t60 -25.5t31.5 -37.5t9 -45.5q0 -25 -9 -46.5t-31.5 -37.5t-60 -25.5t-94.5 -9.5q-58 0 -96.5 9.5t-61 25.5t-31.5 38t-9 46zM346 695q0 -20 18 -32.5t57 -12.5q38 0 55.5 12.5t17.5 32.5t-17.5 32t-55.5 12
q-39 0 -57 -12t-18 -32z" />
    <glyph glyph-name="ogonek" unicode="&#x2db;" 
d="M270 -188q-69 0 -100 16.5t-31 51.5q0 45 56.5 73t151.5 47h111q-34 -20 -52.5 -34.5t-18.5 -28.5q0 -19 31 -19h27l-17 -106h-158v0z" />
    <glyph glyph-name="tilde" unicode="&#x2dc;" 
d="M523 585q-18 0 -32 1.5t-28.5 4.5t-31.5 8.5t-39 13.5q-20 7 -32.5 11t-21.5 4q-10 0 -13.5 -6.5t-5.5 -16.5l-4 -25h-155l13 84q3 16 9 33t18.5 30.5t33 22t51.5 8.5h4q18 0 32.5 -1.5t29.5 -5t32.5 -9t40.5 -13.5q17 -6 29.5 -10t21.5 -4q14 0 17 19l5 29h157l-12 -75
q-3 -18 -9 -36.5t-18.5 -33t-33.5 -24t-53 -9.5h-5v0z" />
    <glyph glyph-name="hungarumlaut" unicode="&#x2dd;" 
d="M474 744h230l-89 -161h-225zM199 744h232l-84 -161h-224z" />
    <glyph glyph-name="endash" unicode="&#x2013;" horiz-adv-x="897" 
d="M880 369l-22 -142h-831l22 142h831z" />
    <glyph glyph-name="emdash" unicode="&#x2014;" horiz-adv-x="1353" 
d="M1337 369l-23 -142h-1287l22 142h1288z" />
    <glyph glyph-name="quoteleft" unicode="&#x2018;" horiz-adv-x="314" 
d="M292 744q-17 -24 -32.5 -53.5t-22.5 -50.5h110l-26 -165h-262l22 135q3 16 11 35t19 37t23 34.5t22 27.5h136z" />
    <glyph glyph-name="quoteright" unicode="&#x2019;" horiz-adv-x="314" 
d="M130 475q17 24 33 53.5t22 50.5h-109l26 165h261l-21 -135q-3 -17 -11 -35.5t-19 -36.5t-23.5 -34.5t-22.5 -27.5h-136z" />
    <glyph glyph-name="quotesinglbase" unicode="&#x201a;" horiz-adv-x="314" 
d="M39 -104q17 24 33 53.5t22 50.5h-109l26 165h261l-21 -134q-3 -17 -11 -36t-19 -37t-23.5 -34.5t-22.5 -27.5h-136z" />
    <glyph glyph-name="quotedblleft" unicode="&#x201c;" horiz-adv-x="610" 
d="M292 744q-17 -24 -32.5 -53.5t-22.5 -50.5h110l-26 -165h-262l22 135q3 16 11 35t19 37t23 34.5t22 27.5h136zM588 744q-17 -24 -33 -53.5t-22 -50.5h109l-26 -165h-261l21 135q3 16 11 35t19 37t23 34.5t23 27.5h136z" />
    <glyph glyph-name="quotedblright" unicode="&#x201d;" horiz-adv-x="610" 
d="M130 475q17 24 33 53.5t22 50.5h-109l26 165h261l-21 -135q-3 -17 -11 -35.5t-19 -36.5t-23.5 -34.5t-22.5 -27.5h-136zM426 475q17 24 32.5 53.5t22.5 50.5h-110l26 165h262l-22 -135q-3 -17 -11 -35.5t-19 -36.5t-23 -34.5t-22 -27.5h-136z" />
    <glyph glyph-name="quotedblbase" unicode="&#x201e;" horiz-adv-x="610" 
d="M39 -104q17 24 33 53.5t22 50.5h-109l26 165h261l-21 -134q-3 -17 -11 -36t-19 -37t-23.5 -34.5t-22.5 -27.5h-136zM335 -104q17 24 32.5 53.5t22.5 50.5h-110l26 165h262l-22 -134q-3 -17 -11 -36t-19 -37t-23 -34.5t-22 -27.5h-136z" />
    <glyph glyph-name="dagger" unicode="&#x2020;" horiz-adv-x="571" 
d="M186 413h-141l29 182h141l24 149h247l-24 -149h141l-28 -182h-141l-66 -413h-247z" />
    <glyph glyph-name="daggerdbl" unicode="&#x2021;" horiz-adv-x="572" 
d="M5 141l27 171h141l20 124h-141l27 172h141l21 136h244l-23 -136h141l-27 -172h-140l-20 -124h140l-27 -171h-140l-22 -141h-244l23 141h-141z" />
    <glyph glyph-name="bullet" unicode="&#x2022;" horiz-adv-x="461" 
d="M240 126q-45 0 -83.5 15t-66.5 42t-44 64.5t-16 82.5t16 82.5t44 64t66.5 41.5t83.5 15t83.5 -15t66.5 -41.5t44 -64t16 -82.5t-16 -82.5t-44 -64.5t-66.5 -42t-83.5 -15z" />
    <glyph glyph-name="ellipsis" unicode="&#x2026;" horiz-adv-x="989" 
d="M-12 0l31 195h275l-31 -195h-275zM345 195h275l-31 -195h-275zM946 195l-31 -195h-275l31 195h275z" />
    <glyph glyph-name="perthousand" unicode="&#x2030;" horiz-adv-x="2063" 
d="M387 752q81 0 134 -17.5t84.5 -45.5t44.5 -63t13 -69q0 -29 -10.5 -69t-43 -77.5t-94 -63.5t-163.5 -26h-23q-80 0 -133 17.5t-84.5 46t-44.5 63t-13 69.5q0 19 4 44t15.5 51.5t33 51.5t56 44.5t84 31.5t117.5 12h23zM1280 744l-897 -744h-207l897 744h207zM472 550
q0 28 -22.5 50t-79.5 22q-39 0 -63 -9t-37.5 -23.5t-18.5 -31t-5 -31.5q0 -14 5 -27t17 -23.5t31.5 -17t48.5 -6.5q39 0 63 9.5t37.5 24t18.5 31.5t5 32zM1130 424q81 0 134.5 -17.5t85 -45.5t44.5 -63t13 -69q0 -29 -10.5 -69.5t-43 -77.5t-94 -63t-163.5 -26h-23
q-81 0 -134 17.5t-84.5 46t-44 63t-12.5 69.5q0 20 4 44.5t15.5 51t32.5 51.5t55.5 44.5t84 31.5t118.5 12h22zM1763 424q82 0 135.5 -17.5t85 -45.5t44 -63t12.5 -69q0 -29 -10.5 -69.5t-43 -77.5t-94 -63t-163.5 -26h-22q-81 0 -134 17.5t-84.5 46t-44.5 63t-13 69.5
q0 20 4 44.5t15.5 51t33 51.5t56 44.5t84 31.5t117.5 12h22zM1092 124q39 0 63 9.5t37.5 24t18.5 31.5t5 32q0 28 -23 50t-80 22q-39 0 -63 -9t-37.5 -23t-18 -31t-4.5 -32q0 -14 5 -27t17 -23.5t31.5 -17t48.5 -6.5zM1725 124q39 0 63 9.5t37.5 24t18.5 31.5t5 32
q0 14 -5.5 27t-17.5 23t-31.5 16t-48.5 6q-38 0 -62 -9t-37.5 -23t-18.5 -31t-5 -32q0 -14 5 -27t17 -23.5t31.5 -17t48.5 -6.5z" />
    <glyph glyph-name="guilsinglleft" unicode="&#x2039;" horiz-adv-x="346" 
d="M111 114l-96 173l146 170h198l-147 -170l95 -173h-196z" />
    <glyph glyph-name="guilsinglright" unicode="&#x203a;" horiz-adv-x="346" 
d="M-7 114l147 173l-96 170h195l97 -170l-143 -173h-200z" />
    <glyph glyph-name="fraction" unicode="&#x2044;" horiz-adv-x="934" 
d="M1006 744l-860 -744h-184l855 744h189z" />
    <glyph glyph-name="Euro" unicode="&#x20ac;" horiz-adv-x="1135" 
d="M577 -14q-122 0 -205.5 24t-137 63.5t-81 89.5t-36.5 102h-107l14 88h89q0 22 3 48h-84l14 88h90q16 46 48.5 94t91 87t148 63.5t218.5 24.5h37q107 0 184 -15.5t129.5 -41t84 -58t47 -67t18.5 -68t0 -60.5h-288q-1 7 -7 26.5t-27 39t-62.5 35t-113.5 15.5
q-83 0 -131.5 -22t-74.5 -53h288l-14 -88h-312v-2q-2 -11 -3 -22.5t-1 -23.5h309l-14 -88h-276q19 -37 63 -60.5t123 -23.5q74 0 118.5 17t68.5 38.5t33 42t11 26.5h287q-3 -29 -12.5 -64t-31 -70.5t-57 -69t-90.5 -59t-132 -41t-181 -15.5h-38v0z" />
    <glyph glyph-name="trademark" unicode="&#x2122;" horiz-adv-x="1085" 
d="M363 627l-39 -241h-169l38 241h-125l19 117h419l-19 -117h-124zM541 744h224l42 -176l94 176h226l-57 -358h-150l36 223l-127 -223h-105l-57 223l-35 -223h-148z" />
    <glyph glyph-name="minus" unicode="&#x2212;" horiz-adv-x="578" 
d="M564 385l-24 -153h-513l25 153h512z" />
    <glyph glyph-name="Dcroat" unicode="&#x110;" horiz-adv-x="1119" 
d="M66 296h-60l25 157h60l46 291h485q145 0 241.5 -26.5t154 -70.5t81 -102t23.5 -121q0 -46 -6 -86q-9 -58 -36.5 -118t-89 -109t-164 -80t-260.5 -31h-547zM366 453h294l-25 -157h-294l-15 -99h207q72 0 122 11.5t83.5 30.5t52 42t28 45.5t11.5 42.5t2 32q0 25 -9 51.5
t-35 48t-74 35t-126 13.5h-206z" />
    <glyph glyph-name="Eng" unicode="&#x14a;" horiz-adv-x="1091" 
d="M622 -17h77q24 0 24 14q0 7 -5 13.5t-20 24.5l-347 422l-72 -457h-275l118 744h307l349 -431l68 431h274l-116 -731q-17 -106 -63.5 -153.5t-123.5 -47.5h-221z" />
    <glyph glyph-name="IJ" unicode="&#x132;" horiz-adv-x="1288" 
d="M281 0h-277l118 744h277zM760 -11q-86 0 -149 16t-106.5 42.5t-70.5 61t-40.5 72.5t-15.5 76.5t3 72.5h270q0 -12 2 -33.5t16 -42.5t43 -36.5t83 -15.5h8q44 0 76 12.5t54 35t34.5 53.5t18.5 67l59 374h277l-60 -380q-7 -40 -18 -83.5t-31 -85t-51 -79t-78 -66t-112 -45
t-152 -16.5h-60v0z" />
    <glyph glyph-name="dcroat" unicode="&#x111;" horiz-adv-x="911" 
d="M405 695h600l-17 -110h-601zM605 254q2 7 2.5 15t0.5 16q0 22 -9 42.5t-27 36t-46.5 25t-67.5 9.5h-5q-47 0 -78.5 -13t-50.5 -33t-27 -46t-8 -51q0 -22 7 -42.5t23 -36t41 -25t61 -9.5h4q42 0 74 10.5t54 27t35 36.5t17 38zM948 744l-118 -744h-264l12 79
q-7 -8 -25.5 -23t-49 -29.5t-75 -25.5t-104.5 -11h-15q-75 0 -130 19t-91 52t-53.5 77.5t-17.5 95.5q0 14 1 30t4 36q7 49 29.5 93.5t63 79t101.5 55t145 20.5h17q61 0 106.5 -10t77 -23.5t50.5 -27t27 -20.5l43 277h266z" />
    <glyph glyph-name="eng" unicode="&#x14b;" horiz-adv-x="866" 
d="M777 -57q-11 -70 -42 -100.5t-80 -30.5h-256l26 169h60q18 0 26 7.5t12 29.5l38 239q4 27 0.5 49.5t-16.5 39t-35.5 26t-56.5 9.5q-67 0 -105 -36.5t-47 -92.5l-40 -252h-265l86 538h263l-16 -96q7 7 28 25t55 36.5t80.5 32.5t105.5 14h6q73 0 121 -21t75 -54t35 -73
t2 -78z" />
    <glyph glyph-name="ij" unicode="&#x133;" horiz-adv-x="681" 
d="M353 583h-265l26 161h265zM261 0h-265l85 538h265zM691 583h-265l26 161h265zM299 -27q17 0 25 7.5t11 27.5l84 530h265l-94 -593q-11 -68 -43.5 -100.5t-80.5 -32.5h-229l27 161h35z" />
    <glyph glyph-name="Abreve" unicode="&#x102;" horiz-adv-x="1071" 
d="M561 563l-155 -257h242zM710 120h-415l-72 -120h-283l464 744h371l273 -744h-297zM540 954q0 -5 1.5 -14t7 -17t17 -14t31.5 -6q21 0 34 6t20.5 14t10.5 17t4 14h174q-2 -23 -13.5 -53t-37.5 -56.5t-69 -44.5t-107 -18h-38q-70 0 -112 18t-64.5 44.5t-29 56.5t-4.5 53
h175v0z" />
    <glyph glyph-name="Amacron" unicode="&#x100;" horiz-adv-x="1071" 
d="M561 563l-155 -257h242zM710 120h-415l-72 -120h-283l464 744h371l273 -744h-297zM384 929h458l-21 -132h-458z" />
    <glyph glyph-name="Aogonek" unicode="&#x104;" horiz-adv-x="1071" 
d="M561 563l-155 -257h242zM710 120h-415l-72 -120h-283l464 744h371l273 -744h-297zM859 -188q-69 0 -100 16.5t-31 51.5q0 45 56.5 73t151.5 47h111q-34 -20 -52.5 -34.5t-18.5 -28.5q0 -19 31 -19h27l-17 -106h-158v0z" />
    <glyph glyph-name="Aringacute" unicode="&#x1fa;" horiz-adv-x="1071" 
d="M561 563l-155 -257h242zM710 120h-415l-72 -120h-283l464 744h371l273 -744h-297zM501 1040l108 161h261l-129 -161h-240zM801 898q0 -25 -9 -46.5t-31.5 -37.5t-61 -25.5t-96.5 -9.5q-59 0 -97.5 9.5t-61.5 25.5t-32 38t-9 46t9.5 46t32.5 38t61.5 25.5t96.5 9.5
t96.5 -9.5t61 -25.5t31.5 -38t9 -46zM527 899q0 -21 18 -33.5t58 -12.5q41 0 58 12.5t17 33.5q0 20 -17 32t-58 12q-40 0 -58 -12t-18 -32z" />
    <glyph glyph-name="AEacute" unicode="&#x1fc;" horiz-adv-x="1476" 
d="M896 789l100 155h273l-121 -155h-252zM698 577l-229 -275h186zM625 116h-311l-98 -116h-286l624 744h957l-29 -182h-514l-14 -93h504l-29 -181h-504l-17 -102h522l-30 -186h-793z" />
    <glyph glyph-name="Cacute" unicode="&#x106;" horiz-adv-x="1098" 
d="M489 792l99 152h274l-121 -152h-252zM520 -14q-99 0 -173.5 14.5t-128.5 40t-89.5 59.5t-56.5 72t-29.5 78t-8.5 79q0 21 1 39.5t5 44.5q5 33 16.5 71t36 76.5t63.5 74t98 63t140.5 44t191.5 16.5h37q113 0 194.5 -16t136.5 -42t87.5 -59.5t48.5 -68t18.5 -68.5t-2.5 -60
h-287q-1 8 -7.5 26.5t-29.5 38t-68 34.5t-123 15q-74 0 -123 -15.5t-78.5 -39t-43 -51.5t-17.5 -53q-2 -14 -3 -26t-1 -25q0 -30 10.5 -59t36 -51.5t68.5 -36.5t108 -14q53 0 91.5 8t66 20t44.5 26.5t27 28t14.5 24.5t6.5 15h287q-2 -27 -11.5 -61.5t-31 -70.5t-58.5 -70.5
t-94.5 -61t-139 -43t-192.5 -16.5h-38z" />
    <glyph glyph-name="Ccaron" unicode="&#x10c;" horiz-adv-x="1098" 
d="M474 792l-134 152h230l55 -58l66 58h238l-171 -152h-284zM520 -14q-99 0 -173.5 14.5t-128.5 40t-89.5 59.5t-56.5 72t-29.5 78t-8.5 79q0 21 1 39.5t5 44.5q5 33 16.5 71t36 76.5t63.5 74t98 63t140.5 44t191.5 16.5h37q113 0 194.5 -16t136.5 -42t87.5 -59.5t48.5 -68
t18.5 -68.5t-2.5 -60h-287q-1 8 -7.5 26.5t-29.5 38t-68 34.5t-123 15q-74 0 -123 -15.5t-78.5 -39t-43 -51.5t-17.5 -53q-2 -14 -3 -26t-1 -25q0 -30 10.5 -59t36 -51.5t68.5 -36.5t108 -14q53 0 91.5 8t66 20t44.5 26.5t27 28t14.5 24.5t6.5 15h287q-2 -27 -11.5 -61.5
t-31 -70.5t-58.5 -70.5t-94.5 -61t-139 -43t-192.5 -16.5h-38z" />
    <glyph glyph-name="Ccircumflex" unicode="&#x108;" horiz-adv-x="1098" 
d="M770 944l133 -153h-226l-54 59l-67 -59h-235l171 153h278zM520 -14q-99 0 -173.5 14.5t-128.5 40t-89.5 59.5t-56.5 72t-29.5 78t-8.5 79q0 21 1 39.5t5 44.5q5 33 16.5 71t36 76.5t63.5 74t98 63t140.5 44t191.5 16.5h37q113 0 194.5 -16t136.5 -42t87.5 -59.5t48.5 -68
t18.5 -68.5t-2.5 -60h-287q-1 8 -7.5 26.5t-29.5 38t-68 34.5t-123 15q-74 0 -123 -15.5t-78.5 -39t-43 -51.5t-17.5 -53q-2 -14 -3 -26t-1 -25q0 -30 10.5 -59t36 -51.5t68.5 -36.5t108 -14q53 0 91.5 8t66 20t44.5 26.5t27 28t14.5 24.5t6.5 15h287q-2 -27 -11.5 -61.5
t-31 -70.5t-58.5 -70.5t-94.5 -61t-139 -43t-192.5 -16.5h-38z" />
    <glyph glyph-name="Cdotaccent" unicode="&#x10a;" horiz-adv-x="1098" 
d="M481 792l25 158h265l-25 -158h-265zM520 -14q-99 0 -173.5 14.5t-128.5 40t-89.5 59.5t-56.5 72t-29.5 78t-8.5 79q0 21 1 39.5t5 44.5q5 33 16.5 71t36 76.5t63.5 74t98 63t140.5 44t191.5 16.5h37q113 0 194.5 -16t136.5 -42t87.5 -59.5t48.5 -68t18.5 -68.5t-2.5 -60
h-287q-1 8 -7.5 26.5t-29.5 38t-68 34.5t-123 15q-74 0 -123 -15.5t-78.5 -39t-43 -51.5t-17.5 -53q-2 -14 -3 -26t-1 -25q0 -30 10.5 -59t36 -51.5t68.5 -36.5t108 -14q53 0 91.5 8t66 20t44.5 26.5t27 28t14.5 24.5t6.5 15h287q-2 -27 -11.5 -61.5t-31 -70.5t-58.5 -70.5
t-94.5 -61t-139 -43t-192.5 -16.5h-38z" />
    <glyph glyph-name="Dcaron" unicode="&#x10e;" horiz-adv-x="1107" 
d="M122 744h485q145 0 241.5 -26.5t154 -70.5t81 -102t23.5 -121q0 -46 -6 -86q-9 -58 -36.5 -118t-89 -109t-164 -80t-260.5 -31h-547zM311 197h207q72 0 122 11.5t83.5 30.5t52 42t28 45.5t11.5 42.5t2 32q0 25 -9 51.5t-35 48t-74 35t-126 13.5h-206zM405 789l-137 155
h227l54 -58l66 58h235l-173 -155h-272z" />
    <glyph glyph-name="Ebreve" unicode="&#x114;" horiz-adv-x="887" 
d="M922 744l-29 -182h-527l-14 -93h517l-29 -181h-517l-17 -102h535l-29 -186h-808l118 744h800zM486 954q0 -5 1.5 -14t7 -17t17 -14t31.5 -6q21 0 34 6t20.5 14t10.5 17t4 14h174q-2 -23 -13.5 -53t-37.5 -56.5t-69 -44.5t-107 -18h-38q-70 0 -112 18t-64.5 44.5t-29 56.5
t-4.5 53h175v0z" />
    <glyph glyph-name="Ecaron" unicode="&#x11a;" horiz-adv-x="887" 
d="M922 744l-29 -182h-527l-14 -93h517l-29 -181h-517l-17 -102h535l-29 -186h-808l118 744h800zM395 789l-137 155h227l54 -58l66 58h235l-173 -155h-272z" />
    <glyph glyph-name="Edotaccent" unicode="&#x116;" horiz-adv-x="887" 
d="M922 744l-29 -182h-527l-14 -93h517l-29 -181h-517l-17 -102h535l-29 -186h-808l118 744h800zM403 789l26 161h265l-26 -161h-265z" />
    <glyph glyph-name="Emacron" unicode="&#x112;" horiz-adv-x="887" 
d="M922 744l-29 -182h-527l-14 -93h517l-29 -181h-517l-17 -102h535l-29 -186h-808l118 744h800zM329 929h458l-21 -132h-458z" />
    <glyph glyph-name="Eogonek" unicode="&#x118;" horiz-adv-x="887" 
d="M387 -120q0 45 56.5 73t151.5 47h111q-35 -20 -53 -34.5t-18 -28.5q0 -19 31 -19h31l-17 -106h-162q-69 0 -100 16.5t-31 51.5zM922 744l-29 -182h-527l-14 -93h517l-29 -181h-517l-17 -102h535l-29 -186h-808l118 744h800z" />
    <glyph glyph-name="Gbreve" unicode="&#x11e;" horiz-adv-x="1129" 
d="M496 -14q-138 0 -227 32t-141.5 81.5t-73 110.5t-20.5 118q0 35 6 76q6 39 19 80.5t38.5 80.5t65.5 74.5t99.5 61.5t139.5 41.5t187 15.5h31q110 0 190 -14t135 -37t88.5 -53t51 -62t22.5 -64t4 -58h-287q-2 7 -8.5 22.5t-29 31.5t-66.5 28t-119 12q-73 0 -123 -15
t-81.5 -40t-47.5 -57t-21 -65q-2 -12 -3 -21t-1 -19q0 -34 12.5 -64t39.5 -52.5t70.5 -36t105.5 -13.5q69 0 116.5 11t77.5 26.5t44.5 31t16.5 24.5h-256l23 145h536l-66 -419h-169q0 10 -1.5 23.5t-4 28t-5.5 28.5t-7 24q-11 -12 -35.5 -32t-65.5 -39t-100 -33t-139 -14
h-21zM579 956q0 -5 1.5 -14t7 -17t17 -14t31.5 -6q21 0 34 6t20.5 14t10.5 17t4 14h174q-2 -23 -13.5 -53t-37.5 -56.5t-69 -44.5t-107 -18h-38q-70 0 -112 18t-64.5 44.5t-29 56.5t-4.5 53h175v0z" />
    <glyph glyph-name="Gcircumflex" unicode="&#x11c;" horiz-adv-x="1129" 
d="M780 944l134 -153h-227l-54 59l-67 -59h-235l171 153h278zM496 -14q-138 0 -227 32t-141.5 81.5t-73 110.5t-20.5 118q0 35 6 76q6 39 19 80.5t38.5 80.5t65.5 74.5t99.5 61.5t139.5 41.5t187 15.5h31q110 0 190 -14t135 -37t88.5 -53t51 -62t22.5 -64t4 -58h-287
q-2 7 -8.5 22.5t-29 31.5t-66.5 28t-119 12q-73 0 -123 -15t-81.5 -40t-47.5 -57t-21 -65q-2 -12 -3 -21t-1 -19q0 -34 12.5 -64t39.5 -52.5t70.5 -36t105.5 -13.5q69 0 116.5 11t77.5 26.5t44.5 31t16.5 24.5h-256l23 145h536l-66 -419h-169q0 10 -1.5 23.5t-4 28
t-5.5 28.5t-7 24q-11 -12 -35.5 -32t-65.5 -39t-100 -33t-139 -14h-21z" />
    <glyph glyph-name="uni0122" unicode="&#x122;" horiz-adv-x="1129" 
d="M401 -298q14 22 27.5 47.5t19.5 44.5h-110l25 159h251l-20 -124q-2 -16 -9 -33.5t-16.5 -34.5t-20.5 -32.5t-20 -26.5h-127zM496 -14q-138 0 -227 32t-141.5 81.5t-73 110.5t-20.5 118q0 35 6 76q6 39 19 80.5t38.5 80.5t65.5 74.5t99.5 61.5t139.5 41.5t187 15.5h31
q110 0 190 -14t135 -37t88.5 -53t51 -62t22.5 -64t4 -58h-287q-2 7 -8.5 22.5t-29 31.5t-66.5 28t-119 12q-73 0 -123 -15t-81.5 -40t-47.5 -57t-21 -65q-2 -12 -3 -21t-1 -19q0 -34 12.5 -64t39.5 -52.5t70.5 -36t105.5 -13.5q69 0 116.5 11t77.5 26.5t44.5 31t16.5 24.5
h-256l23 145h536l-66 -419h-169q0 10 -1.5 23.5t-4 28t-5.5 28.5t-7 24q-11 -12 -35.5 -32t-65.5 -39t-100 -33t-139 -14h-21z" />
    <glyph glyph-name="Gdotaccent" unicode="&#x120;" horiz-adv-x="1129" 
d="M486 792l25 158h266l-26 -158h-265zM496 -14q-138 0 -227 32t-141.5 81.5t-73 110.5t-20.5 118q0 35 6 76q6 39 19 80.5t38.5 80.5t65.5 74.5t99.5 61.5t139.5 41.5t187 15.5h31q110 0 190 -14t135 -37t88.5 -53t51 -62t22.5 -64t4 -58h-287q-2 7 -8.5 22.5t-29 31.5
t-66.5 28t-119 12q-73 0 -123 -15t-81.5 -40t-47.5 -57t-21 -65q-2 -12 -3 -21t-1 -19q0 -34 12.5 -64t39.5 -52.5t70.5 -36t105.5 -13.5q69 0 116.5 11t77.5 26.5t44.5 31t16.5 24.5h-256l23 145h536l-66 -419h-169q0 10 -1.5 23.5t-4 28t-5.5 28.5t-7 24
q-11 -12 -35.5 -32t-65.5 -39t-100 -33t-139 -14h-21z" />
    <glyph glyph-name="Hbar" unicode="&#x126;" horiz-adv-x="1119" 
d="M62 679h1125l-19 -125h-1126zM135 744h277l-42 -263h445l41 263h277l-118 -744h-277l45 283h-444l-45 -283h-277z" />
    <glyph glyph-name="Hcircumflex" unicode="&#x124;" horiz-adv-x="1091" 
d="M122 744h277l-42 -263h445l41 263h277l-118 -744h-277l45 283h-444l-45 -283h-277zM773 944l137 -155h-226l-55 58l-66 -58h-235l173 155h272z" />
    <glyph glyph-name="Ibreve" unicode="&#x12c;" horiz-adv-x="370" 
d="M281 0h-277l118 744h277zM220 954q0 -5 1.5 -14t7 -17t17 -14t31.5 -6q21 0 34 6t20.5 14t10.5 17t4 14h174q-2 -23 -13.5 -53t-37.5 -56.5t-69 -44.5t-107 -18h-38q-70 0 -112 18t-64.5 44.5t-29 56.5t-4.5 53h175v0z" />
    <glyph glyph-name="Idotaccent" unicode="&#x130;" horiz-adv-x="370" 
d="M281 0h-277l118 744h277zM135 789l26 161h265l-26 -161h-265z" />
    <glyph glyph-name="Imacron" unicode="&#x12a;" horiz-adv-x="370" 
d="M77 929h418l-21 -132h-419zM281 0h-277l118 744h277z" />
    <glyph glyph-name="Iogonek" unicode="&#x12e;" horiz-adv-x="370" 
d="M281 0h-277l118 744h277zM93 -188q-69 0 -100 16.5t-31 51.5q0 45 56.5 73t151.5 47h111q-34 -20 -52.5 -34.5t-18.5 -28.5q0 -19 31 -19h27l-17 -106h-158v0z" />
    <glyph glyph-name="Itilde" unicode="&#x128;" horiz-adv-x="370" 
d="M281 0h-277l118 744h277zM401 793q-17 0 -32 2t-30 5.5t-33 9t-41 12.5q-20 7 -33 10.5t-24 3.5t-14.5 -7t-5.5 -17l-4 -25h-157l12 81q3 18 9.5 36t19.5 33t33.5 24t52.5 9h4q35 0 64.5 -7.5t74.5 -22.5q17 -5 30.5 -9.5t24.5 -4.5q16 0 19 19l4 30h158l-12 -77
q-3 -18 -8.5 -36.5t-18.5 -34t-34 -25t-54 -9.5h-5v0z" />
    <glyph glyph-name="Jcircumflex" unicode="&#x134;" horiz-adv-x="924" 
d="M397 -11q-86 0 -149 16t-106.5 42.5t-70.5 61t-40.5 72.5t-15.5 76.5t3 72.5h270q0 -12 2 -33.5t16 -42.5t43 -36.5t83 -15.5h8q44 0 76 12.5t54 35t34.5 53.5t18.5 67l59 374h277l-60 -380q-7 -40 -18 -83.5t-31 -85t-51 -79t-78 -66t-112 -45t-152 -16.5h-60v0z
M971 944l137 -155h-226l-55 58l-66 -58h-235l173 155h272z" />
    <glyph glyph-name="uni0136" unicode="&#x136;" horiz-adv-x="1016" 
d="M357 -296q14 22 27.5 47.5t19.5 44.5h-110l25 159h251l-20 -124q-2 -16 -9 -33.5t-16.5 -34.5t-20.5 -32.5t-20 -26.5h-127zM4 0l118 744h277l-46 -292l394 292h351l-473 -349l370 -395h-353l-308 333l-53 -333h-277z" />
    <glyph glyph-name="Lacute" unicode="&#x139;" horiz-adv-x="847" 
d="M399 744l-85 -531h499l-33 -213h-776l118 744h277zM143 789l100 155h273l-121 -155h-252z" />
    <glyph glyph-name="Lcaron" unicode="&#x13d;" horiz-adv-x="847" 
d="M399 744l-85 -531h499l-33 -213h-776l118 744h277zM438 744h199l-54 -169h-183z" />
    <glyph glyph-name="uni013B" unicode="&#x13b;" horiz-adv-x="847" 
d="M313 -296q14 22 27.5 47.5t19.5 44.5h-110l25 159h251l-20 -124q-2 -16 -9 -33.5t-16.5 -34.5t-20.5 -32.5t-20 -26.5h-127zM399 744l-85 -531h499l-33 -213h-776l118 744h277z" />
    <glyph glyph-name="Ldot" unicode="&#x13f;" horiz-adv-x="847" 
d="M763 329h-275l31 195h275zM399 744l-85 -531h499l-33 -213h-776l118 744h277z" />
    <glyph glyph-name="Nacute" unicode="&#x143;" horiz-adv-x="1091" 
d="M429 744l349 -430l68 430h274l-118 -744h-274l-377 457l-72 -457h-275l118 744h307zM498 789l100 155h273l-121 -155h-252z" />
    <glyph glyph-name="Ncaron" unicode="&#x147;" horiz-adv-x="1091" 
d="M429 744l349 -430l68 430h274l-118 -744h-274l-377 457l-72 -457h-275l118 744h307zM490 789l-137 155h227l54 -58l66 58h235l-173 -155h-272z" />
    <glyph glyph-name="uni0145" unicode="&#x145;" horiz-adv-x="1091" 
d="M408 -296q14 22 27.5 47.5t19.5 44.5h-110l25 159h251l-20 -124q-2 -16 -9 -33.5t-16.5 -34.5t-20.5 -32.5t-20 -26.5h-127zM429 744l349 -430l68 430h274l-118 -744h-274l-377 457l-72 -457h-275l118 744h307z" />
    <glyph glyph-name="Obreve" unicode="&#x14e;" horiz-adv-x="1146" 
d="M536 -14q-104 0 -182 15t-134 40.5t-92 58.5t-57 70t-29 75.5t-8 73.5q0 17 1 37t4 45q5 34 16 73.5t34.5 79t62 76.5t99 65.5t145.5 45.5t201 17h45q105 0 183 -14.5t134 -39.5t92 -58t57 -69.5t29 -74t8 -72.5q0 -17 -1 -38t-4 -41q-5 -35 -16 -75t-34 -81t-61.5 -78.5
t-99 -66.5t-146 -46.5t-202.5 -17.5h-45zM856 404q0 28 -11.5 55.5t-39.5 49.5t-76.5 35.5t-121.5 13.5q-81 0 -133.5 -16t-84 -41t-45.5 -55.5t-17 -59.5q-2 -14 -2 -20.5v-15.5q0 -28 10.5 -57t38.5 -52.5t76 -38.5t122 -15q80 0 132 16.5t83.5 42t46 57t19.5 62.5
q3 19 3 39zM578 956q0 -5 1.5 -14t7 -17t17 -14t31.5 -6q21 0 34 6t20.5 14t10.5 17t4 14h174q-2 -23 -13.5 -53t-37.5 -56.5t-69 -44.5t-107 -18h-38q-70 0 -112 18t-64.5 44.5t-29 56.5t-4.5 53h175v0z" />
    <glyph glyph-name="Ohungarumlaut" unicode="&#x150;" horiz-adv-x="1146" 
d="M657 792l80 152h239l-85 -152h-234zM454 944h240l-79 -152h-233zM536 -14q-104 0 -182 15t-134 40.5t-92 58.5t-57 70t-29 75.5t-8 73.5q0 17 1 37t4 45q5 34 16 73.5t34.5 79t62 76.5t99 65.5t145.5 45.5t201 17h45q105 0 183 -14.5t134 -39.5t92 -58t57 -69.5t29 -74
t8 -72.5q0 -17 -1 -38t-4 -41q-5 -35 -16 -75t-34 -81t-61.5 -78.5t-99 -66.5t-146 -46.5t-202.5 -17.5h-45zM856 404q0 28 -11.5 55.5t-39.5 49.5t-76.5 35.5t-121.5 13.5q-81 0 -133.5 -16t-84 -41t-45.5 -55.5t-17 -59.5q-2 -14 -2 -20.5v-15.5q0 -28 10.5 -57
t38.5 -52.5t76 -38.5t122 -15q80 0 132 16.5t83.5 42t46 57t19.5 62.5q3 19 3 39z" />
    <glyph glyph-name="Omacron" unicode="&#x14c;" horiz-adv-x="1146" 
d="M536 -14q-104 0 -182 15t-134 40.5t-92 58.5t-57 70t-29 75.5t-8 73.5q0 17 1 37t4 45q5 34 16 73.5t34.5 79t62 76.5t99 65.5t145.5 45.5t201 17h45q105 0 183 -14.5t134 -39.5t92 -58t57 -69.5t29 -74t8 -72.5q0 -17 -1 -38t-4 -41q-5 -35 -16 -75t-34 -81t-61.5 -78.5
t-99 -66.5t-146 -46.5t-202.5 -17.5h-45zM856 404q0 28 -11.5 55.5t-39.5 49.5t-76.5 35.5t-121.5 13.5q-81 0 -133.5 -16t-84 -41t-45.5 -55.5t-17 -59.5q-2 -14 -2 -20.5v-15.5q0 -28 10.5 -57t38.5 -52.5t76 -38.5t122 -15q80 0 132 16.5t83.5 42t46 57t19.5 62.5
q3 19 3 39zM429 931h458l-21 -132h-458z" />
    <glyph glyph-name="Oslashacute" unicode="&#x1fe;" horiz-adv-x="1146" 
d="M498 792l99 152h274l-121 -152h-252zM536 -14q-93 0 -164.5 13t-125.5 36l-48 -35h-219l147 109q-50 46 -71 100.5t-21 109.5q0 19 1 38.5t4 41.5q5 34 16 74.5t34.5 80t62 76.5t99 65.5t146 45.5t201.5 17h45q92 0 163 -12.5t125 -35.5l46 34h220l-144 -106
q51 -45 71.5 -99t20.5 -109q0 -19 -1 -40t-4 -41q-6 -34 -17 -74.5t-34 -81t-61.5 -78t-99 -66t-145.5 -46t-202 -17.5h-45zM317 350q0 -52 20 -84l385 288q-23 5 -51 6.5t-63 1.5q-85 0 -139 -16.5t-86 -42t-45.5 -56.5t-17.5 -59q-3 -23 -3 -38zM572 184q83 0 137 17
t86.5 43.5t47 58.5t18.5 63q3 22 3 38q0 20 -4 40.5t-15 39.5l-390 -290q46 -10 117 -10z" />
    <glyph glyph-name="Racute" unicode="&#x154;" horiz-adv-x="1045" 
d="M670 435q26 0 43.5 6.5t28.5 16.5t16 23t5 26q0 25 -16.5 40.5t-59.5 15.5h-317l-21 -128h321zM281 0h-277l118 744h663q73 0 124.5 -13t84.5 -36t48.5 -56t15.5 -73q0 -44 -17 -76.5t-43 -56t-57 -37.5t-60 -21q30 -9 55 -23.5t42 -36t24.5 -50t1.5 -64.5l-19 -117
q-6 -35 -3.5 -52.5t4.5 -26.5l-1 -5h-283q-3 5 -3.5 14.5t2.5 28.5l13 82q10 64 -18.5 97t-111.5 33h-263zM445 789l100 155h273l-121 -155h-252z" />
    <glyph glyph-name="Rcaron" unicode="&#x158;" horiz-adv-x="1045" 
d="M670 435q26 0 43.5 6.5t28.5 16.5t16 23t5 26q0 25 -16.5 40.5t-59.5 15.5h-317l-21 -128h321zM281 0h-277l118 744h663q73 0 124.5 -13t84.5 -36t48.5 -56t15.5 -73q0 -44 -17 -76.5t-43 -56t-57 -37.5t-60 -21q30 -9 55 -23.5t42 -36t24.5 -50t1.5 -64.5l-19 -117
q-6 -35 -3.5 -52.5t4.5 -26.5l-1 -5h-283q-3 5 -3.5 14.5t2.5 28.5l13 82q10 64 -18.5 97t-111.5 33h-263zM435 789l-137 155h227l54 -58l66 58h235l-173 -155h-272z" />
    <glyph glyph-name="uni0156" unicode="&#x156;" horiz-adv-x="1045" 
d="M396 -296q14 22 27.5 47.5t19.5 44.5h-110l25 159h251l-20 -124q-2 -16 -9 -33.5t-16.5 -34.5t-20.5 -32.5t-20 -26.5h-127zM670 435q26 0 43.5 6.5t28.5 16.5t16 23t5 26q0 25 -16.5 40.5t-59.5 15.5h-317l-21 -128h321zM281 0h-277l118 744h663q73 0 124.5 -13
t84.5 -36t48.5 -56t15.5 -73q0 -44 -17 -76.5t-43 -56t-57 -37.5t-60 -21q30 -9 55 -23.5t42 -36t24.5 -50t1.5 -64.5l-19 -117q-6 -35 -3.5 -52.5t4.5 -26.5l-1 -5h-283q-3 5 -3.5 14.5t2.5 28.5l13 82q10 64 -18.5 97t-111.5 33h-263z" />
    <glyph glyph-name="Sacute" unicode="&#x15a;" horiz-adv-x="1012" 
d="M430 792l99 152h274l-121 -152h-252zM424 -14q-100 0 -170.5 13.5t-117 35.5t-73.5 50.5t-39.5 59t-14.5 60.5t1 55h304q0 -16 4.5 -34.5t21.5 -34t50.5 -26t93.5 -10.5h8q64 0 100.5 7.5t55.5 18.5t24 24.5t5 25.5q0 13 -5.5 24t-22 18.5t-47 12.5t-81.5 7l-124 5
q-99 3 -163.5 22t-102.5 49t-53 68.5t-15 81.5q0 12 1 23.5t3 19.5q7 42 31.5 77.5t75 62t133 41t206.5 14.5h85q139 0 223 -21.5t127.5 -56.5t55 -78.5t6.5 -86.5h-300q-1 11 -5 25t-20.5 26t-50 20.5t-92.5 8.5h-9q-57 0 -90 -5t-50.5 -13t-22 -18.5t-4.5 -21.5
q0 -10 4.5 -19.5t19.5 -17.5t43.5 -13t76.5 -6l121 -3q100 -3 169 -17t111.5 -39.5t61.5 -64t19 -89.5q0 -14 -1 -27.5t-3 -23.5q-7 -44 -28.5 -85.5t-73 -73.5t-141.5 -51.5t-234 -19.5h-87v0z" />
    <glyph glyph-name="uni015E" unicode="&#x15e;" horiz-adv-x="1012" 
d="M424 -14q-100 0 -170.5 13.5t-117 35.5t-73.5 50.5t-39.5 59t-14.5 60.5t1 55h304q0 -16 4.5 -34.5t21.5 -34t50.5 -26t93.5 -10.5h8q64 0 100.5 7.5t55.5 18.5t24 24.5t5 25.5q0 13 -5.5 24t-22 18.5t-47 12.5t-81.5 7l-124 5q-99 3 -163.5 22t-102.5 49t-53 68.5
t-15 81.5q0 12 1 23.5t3 19.5q7 42 31.5 77.5t75 62t133 41t206.5 14.5h85q139 0 223 -21.5t127.5 -56.5t55 -78.5t6.5 -86.5h-300q-1 11 -5 25t-20.5 26t-50 20.5t-92.5 8.5h-9q-57 0 -90 -5t-50.5 -13t-22 -18.5t-4.5 -21.5q0 -10 4.5 -19.5t19.5 -17.5t43.5 -13t76.5 -6
l121 -3q100 -3 169 -17t111.5 -39.5t61.5 -64t19 -89.5q0 -14 -1 -27.5t-3 -23.5q-7 -44 -28.5 -85.5t-73 -73.5t-141.5 -51.5t-234 -19.5h-87v0zM281 -167h106q23 0 30 7t7 16t-6 15t-26 6h-68l20 123h134l-7 -49q52 0 85 -7t52.5 -19.5t27 -30t7.5 -37.5t-6.5 -40.5
t-27 -37t-59.5 -27.5t-104 -11h-180z" />
    <glyph glyph-name="Scircumflex" unicode="&#x15c;" horiz-adv-x="1012" 
d="M715 944l134 -153h-227l-54 59l-66 -59h-235l171 153h277zM424 -14q-100 0 -170.5 13.5t-117 35.5t-73.5 50.5t-39.5 59t-14.5 60.5t1 55h304q0 -16 4.5 -34.5t21.5 -34t50.5 -26t93.5 -10.5h8q64 0 100.5 7.5t55.5 18.5t24 24.5t5 25.5q0 13 -5.5 24t-22 18.5t-47 12.5
t-81.5 7l-124 5q-99 3 -163.5 22t-102.5 49t-53 68.5t-15 81.5q0 12 1 23.5t3 19.5q7 42 31.5 77.5t75 62t133 41t206.5 14.5h85q139 0 223 -21.5t127.5 -56.5t55 -78.5t6.5 -86.5h-300q-1 11 -5 25t-20.5 26t-50 20.5t-92.5 8.5h-9q-57 0 -90 -5t-50.5 -13t-22 -18.5
t-4.5 -21.5q0 -10 4.5 -19.5t19.5 -17.5t43.5 -13t76.5 -6l121 -3q100 -3 169 -17t111.5 -39.5t61.5 -64t19 -89.5q0 -14 -1 -27.5t-3 -23.5q-7 -44 -28.5 -85.5t-73 -73.5t-141.5 -51.5t-234 -19.5h-87v0z" />
    <glyph glyph-name="uni0218" unicode="&#x218;" horiz-adv-x="1012" 
d="M384 -298q14 22 27.5 47.5t19.5 44.5h-110l25 159h251l-20 -124q-2 -16 -9 -33.5t-16.5 -34.5t-20.5 -32.5t-20 -26.5h-127zM424 -14q-100 0 -170.5 13.5t-117 35.5t-73.5 50.5t-39.5 59t-14.5 60.5t1 55h304q0 -16 4.5 -34.5t21.5 -34t50.5 -26t93.5 -10.5h8
q64 0 100.5 7.5t55.5 18.5t24 24.5t5 25.5q0 13 -5.5 24t-22 18.5t-47 12.5t-81.5 7l-124 5q-99 3 -163.5 22t-102.5 49t-53 68.5t-15 81.5q0 12 1 23.5t3 19.5q7 42 31.5 77.5t75 62t133 41t206.5 14.5h85q139 0 223 -21.5t127.5 -56.5t55 -78.5t6.5 -86.5h-300
q-1 11 -5 25t-20.5 26t-50 20.5t-92.5 8.5h-9q-57 0 -90 -5t-50.5 -13t-22 -18.5t-4.5 -21.5q0 -10 4.5 -19.5t19.5 -17.5t43.5 -13t76.5 -6l121 -3q100 -3 169 -17t111.5 -39.5t61.5 -64t19 -89.5q0 -14 -1 -27.5t-3 -23.5q-7 -44 -28.5 -85.5t-73 -73.5t-141.5 -51.5
t-234 -19.5h-87v0z" />
    <glyph glyph-name="Tcaron" unicode="&#x164;" horiz-adv-x="943" 
d="M376 541h-310l32 203h898l-33 -203h-309l-86 -541h-278zM412 789l-137 155h227l54 -58l66 58h235l-173 -155h-272z" />
    <glyph glyph-name="Tcommaaccent" unicode="&#x162;" horiz-adv-x="943" 
d="M336 -296q14 22 27.5 47.5t19.5 44.5h-110l25 159h251l-20 -124q-2 -16 -9 -33.5t-16.5 -34.5t-20.5 -32.5t-20 -26.5h-127zM376 541h-310l32 203h898l-33 -203h-309l-86 -541h-278z" />
    <glyph glyph-name="uni021A" unicode="&#x21a;" horiz-adv-x="943" 
d="M336 -296q14 22 27.5 47.5t19.5 44.5h-110l25 159h251l-20 -124q-2 -16 -9 -33.5t-16.5 -34.5t-20.5 -32.5t-20 -26.5h-127zM376 541h-310l32 203h898l-33 -203h-309l-86 -541h-278z" />
    <glyph glyph-name="Tbar" unicode="&#x166;" horiz-adv-x="943" 
d="M106 284l23 142h735l-22 -142h-736zM376 541h-310l32 203h898l-33 -203h-309l-86 -541h-278z" />
    <glyph glyph-name="Ubreve" unicode="&#x16c;" horiz-adv-x="1072" 
d="M114 744h278l-52 -328q-6 -36 -1.5 -72.5t25.5 -66t63 -48t111 -18.5h1q66 0 109 18.5t70 47.5t40.5 64.5t19.5 70.5l52 332h278l-55 -346q-6 -40 -18 -86t-34.5 -91.5t-58 -87.5t-89 -74t-127 -51.5t-172.5 -19.5h-39q-106 0 -183 20t-129.5 53t-84 75.5t-46.5 88.5
t-16.5 92t4.5 85zM561 954q0 -5 1.5 -14t7 -17t17 -14t31.5 -6q21 0 34 6t20.5 14t10.5 17t4 14h174q-2 -23 -13.5 -53t-37.5 -56.5t-69 -44.5t-107 -18h-38q-70 0 -112 18t-64.5 44.5t-29 56.5t-4.5 53h175v0z" />
    <glyph glyph-name="Uhungarumlaut" unicode="&#x170;" horiz-adv-x="1072" 
d="M114 744h278l-52 -328q-6 -36 -1.5 -72.5t25.5 -66t63 -48t111 -18.5h1q66 0 109 18.5t70 47.5t40.5 64.5t19.5 70.5l52 332h278l-55 -346q-6 -40 -18 -86t-34.5 -91.5t-58 -87.5t-89 -74t-127 -51.5t-172.5 -19.5h-39q-106 0 -183 20t-129.5 53t-84 75.5t-46.5 88.5
t-16.5 92t4.5 85zM623 789l81 155h239l-86 -155h-234zM421 944h240l-80 -155h-233z" />
    <glyph glyph-name="Umacron" unicode="&#x16a;" horiz-adv-x="1072" 
d="M114 744h278l-52 -328q-6 -36 -1.5 -72.5t25.5 -66t63 -48t111 -18.5h1q66 0 109 18.5t70 47.5t40.5 64.5t19.5 70.5l52 332h278l-55 -346q-6 -40 -18 -86t-34.5 -91.5t-58 -87.5t-89 -74t-127 -51.5t-172.5 -19.5h-39q-106 0 -183 20t-129.5 53t-84 75.5t-46.5 88.5
t-16.5 92t4.5 85zM405 929h458l-21 -132h-458z" />
    <glyph glyph-name="Uogonek" unicode="&#x172;" horiz-adv-x="1072" 
d="M566 -188q-69 0 -100 16.5t-31 51.5q0 42 47 67.5t131 42.5q-14 -1 -28.5 -1.5t-30.5 -0.5h-39q-107 0 -184 20t-129.5 53t-83.5 76t-46 89t-16.5 91.5t4.5 84.5l54 342h278l-52 -328q-6 -36 -1.5 -72.5t25.5 -66t63 -48t111 -18.5h1q66 0 109 18.5t70 47.5t40.5 64.5
t19.5 70.5l52 332h278l-55 -346q-11 -68 -31.5 -125.5t-55 -106.5t-86.5 -91t-125 -79q-36 -18 -54 -31t-18 -28q0 -19 31 -19h31l-18 -106h-161z" />
    <glyph glyph-name="Uring" unicode="&#x16e;" horiz-adv-x="1072" 
d="M114 744h278l-52 -328q-6 -36 -1.5 -72.5t25.5 -66t63 -48t111 -18.5h1q66 0 109 18.5t70 47.5t40.5 64.5t19.5 70.5l52 332h278l-55 -346q-6 -40 -18 -86t-34.5 -91.5t-58 -87.5t-89 -74t-127 -51.5t-172.5 -19.5h-39q-106 0 -183 20t-129.5 53t-84 75.5t-46.5 88.5
t-16.5 92t4.5 85zM817 889q0 -25 -9 -46.5t-31.5 -37.5t-61 -25.5t-96.5 -9.5q-59 0 -97.5 9.5t-61.5 25.5t-32 38t-9 46t9.5 46t32.5 38t61.5 25.5t96.5 9.5t96.5 -9.5t61 -25.5t31.5 -38t9 -46zM543 890q0 -21 18 -33.5t58 -12.5q41 0 58 12.5t17 33.5q0 20 -17 32t-58 12
q-40 0 -58 -12t-18 -32z" />
    <glyph glyph-name="Utilde" unicode="&#x168;" horiz-adv-x="1072" 
d="M114 744h278l-52 -328q-6 -36 -1.5 -72.5t25.5 -66t63 -48t111 -18.5h1q66 0 109 18.5t70 47.5t40.5 64.5t19.5 70.5l52 332h278l-55 -346q-6 -40 -18 -86t-34.5 -91.5t-58 -87.5t-89 -74t-127 -51.5t-172.5 -19.5h-39q-106 0 -183 20t-129.5 53t-84 75.5t-46.5 88.5
t-16.5 92t4.5 85zM750 793q-17 0 -32 2t-30 5.5t-33 9t-41 12.5q-20 7 -33 10.5t-24 3.5t-14.5 -7t-5.5 -17l-4 -25h-157l12 81q3 18 9.5 36t19.5 33t33.5 24t52.5 9h4q35 0 64.5 -7.5t74.5 -22.5q17 -5 30.5 -9.5t24.5 -4.5q16 0 19 19l4 30h158l-12 -77q-3 -18 -8.5 -36.5
t-18.5 -34t-34 -25t-54 -9.5h-5v0z" />
    <glyph glyph-name="Wacute" unicode="&#x1e82;" horiz-adv-x="1494" 
d="M242 0l-181 744h301l100 -490l211 490h310l83 -484l227 484h290l-382 -744h-322l-93 471l-206 -471h-338zM709 789l100 155h273l-121 -155h-252z" />
    <glyph glyph-name="Wcircumflex" unicode="&#x174;" horiz-adv-x="1494" 
d="M242 0l-181 744h301l100 -490l211 490h310l83 -484l227 484h290l-382 -744h-322l-93 471l-206 -471h-338zM976 944l137 -155h-226l-55 58l-66 -58h-235l173 155h272z" />
    <glyph glyph-name="Wdieresis" unicode="&#x1e84;" horiz-adv-x="1494" 
d="M242 0l-181 744h301l100 -490l211 490h310l83 -484l227 484h290l-382 -744h-322l-93 471l-206 -471h-338zM804 789h-240l25 155h239zM1090 789h-240l25 155h240z" />
    <glyph glyph-name="Wgrave" unicode="&#x1e80;" horiz-adv-x="1494" 
d="M242 0l-181 744h301l100 -490l211 490h310l83 -484l227 484h290l-382 -744h-322l-93 471l-206 -471h-338zM701 789l-80 155h273l58 -155h-251z" />
    <glyph glyph-name="Ycircumflex" unicode="&#x176;" horiz-adv-x="1015" 
d="M375 280l-324 464h319l173 -257l257 257h314l-462 -466l-44 -278h-277zM733 944l137 -155h-226l-55 58l-66 -58h-235l173 155h272z" />
    <glyph glyph-name="Ygrave" unicode="&#x1ef2;" horiz-adv-x="1015" 
d="M375 280l-324 464h319l173 -257l257 257h314l-462 -466l-44 -278h-277zM461 789l-80 155h273l58 -155h-251z" />
    <glyph glyph-name="Zacute" unicode="&#x179;" horiz-adv-x="928" 
d="M971 744l-24 -151l-532 -391h476l-32 -202h-875l25 151l530 397h-461l30 196h863zM391 789l100 155h273l-121 -155h-252z" />
    <glyph glyph-name="Zdotaccent" unicode="&#x17b;" horiz-adv-x="928" 
d="M971 744l-24 -151l-532 -391h476l-32 -202h-875l25 151l530 397h-461l30 196h863zM403 789l26 161h265l-26 -161h-265z" />
    <glyph glyph-name="abreve" unicode="&#x103;" horiz-adv-x="826" 
d="M387 744q0 -5 2 -13t8 -15.5t17 -13t31 -5.5t33 5.5t20.5 13t10.5 15.5t4 13h174q-2 -22 -13 -50.5t-37.5 -54t-69.5 -43.5t-107 -18h-38q-71 0 -113 18t-64 43.5t-28 54.5t-4 50h174v0zM335 120q69 0 113.5 30.5t53.5 77.5l4 26l-179 -32q-41 -7 -56 -19.5t-15 -33.5
q0 -18 16.5 -33.5t62.5 -15.5zM231 -10q-64 0 -108.5 12.5t-72 34.5t-39.5 50t-12 60q0 35 12 71t48 62q28 21 71 33t110 18l253 22q34 3 34 28q0 7 -3 14t-14.5 13t-33.5 9.5t-60 3.5h-2q-42 0 -66.5 -6t-36.5 -15t-16 -18.5t-6 -15.5h-244q2 17 7 38t18 41.5t36 39.5
t61 34t94.5 24t136.5 9h50q122 0 191.5 -18t103 -45.5t39 -61.5t0.5 -66l-29 -181q-2 -10 2.5 -16.5t18.5 -6.5h28l-25 -157h-216q-33 0 -53 19t-23 53q-10 -11 -29 -25t-49 -26.5t-71 -21.5t-95 -9h-10z" />
    <glyph glyph-name="amacron" unicode="&#x101;" horiz-adv-x="826" 
d="M335 120q69 0 113.5 30.5t53.5 77.5l4 26l-179 -32q-41 -7 -56 -19.5t-15 -33.5q0 -18 16.5 -33.5t62.5 -15.5zM231 -10q-64 0 -108.5 12.5t-72 34.5t-39.5 50t-12 60q0 35 12 71t48 62q28 21 71 33t110 18l253 22q34 3 34 28q0 7 -3 14t-14.5 13t-33.5 9.5t-60 3.5h-2
q-42 0 -66.5 -6t-36.5 -15t-16 -18.5t-6 -15.5h-244q2 17 7 38t18 41.5t36 39.5t61 34t94.5 24t136.5 9h50q122 0 191.5 -18t103 -45.5t39 -61.5t0.5 -66l-29 -181q-2 -10 2.5 -16.5t18.5 -6.5h28l-25 -157h-216q-33 0 -53 19t-23 53q-10 -11 -29 -25t-49 -26.5t-71 -21.5
t-95 -9h-10zM236 723h440l-21 -129h-440z" />
    <glyph glyph-name="aogonek" unicode="&#x105;" horiz-adv-x="826" 
d="M335 120q69 0 113.5 30.5t53.5 77.5l4 26l-179 -32q-41 -7 -56 -19.5t-15 -33.5q0 -18 16.5 -33.5t62.5 -15.5zM231 -10q-64 0 -108.5 12.5t-72 34.5t-39.5 50t-12 60q0 35 12 71t48 62q28 21 71 33t110 18l253 22q34 3 34 28q0 7 -3 14t-14.5 13t-33.5 9.5t-60 3.5h-2
q-42 0 -66.5 -6t-36.5 -15t-16 -18.5t-6 -15.5h-244q2 17 7 38t18 41.5t36 39.5t61 34t94.5 24t136.5 9h50q122 0 191.5 -18t103 -45.5t39 -61.5t0.5 -66l-29 -181q-2 -10 2.5 -16.5t18.5 -6.5h28l-25 -157h-216q-33 0 -53 19t-23 53q-10 -11 -29 -25t-49 -26.5t-71 -21.5
t-95 -9h-10zM588 -188q-69 0 -100 16.5t-31 51.5q0 45 56.5 73t151.5 47h111q-34 -20 -52.5 -34.5t-18.5 -28.5q0 -19 31 -19h27l-17 -106h-158v0z" />
    <glyph glyph-name="aringacute" unicode="&#x1fb;" horiz-adv-x="826" 
d="M335 120q69 0 113.5 30.5t53.5 77.5l4 26l-179 -32q-41 -7 -56 -19.5t-15 -33.5q0 -18 16.5 -33.5t62.5 -15.5zM231 -10q-64 0 -108.5 12.5t-72 34.5t-39.5 50t-12 60q0 35 12 71t48 62q28 21 71 33t110 18l253 22q34 3 34 28q0 7 -3 14t-14.5 13t-33.5 9.5t-60 3.5h-2
q-42 0 -66.5 -6t-36.5 -15t-16 -18.5t-6 -15.5h-244q2 17 7 38t18 41.5t36 39.5t61 34t94.5 24t136.5 9h50q122 0 191.5 -18t103 -45.5t39 -61.5t0.5 -66l-29 -181q-2 -10 2.5 -16.5t18.5 -6.5h28l-25 -157h-216q-33 0 -53 19t-23 53q-10 -11 -29 -25t-49 -26.5t-71 -21.5
t-95 -9h-10zM339 839l108 161h261l-129 -161h-240zM248 696q0 24 9.5 45.5t32.5 37.5t61 25.5t95 9.5t94.5 -9.5t60 -25.5t31.5 -37.5t9 -45.5q0 -25 -9 -46.5t-31.5 -37.5t-60 -25.5t-94.5 -9.5q-58 0 -96.5 9.5t-61 25.5t-31.5 38t-9 46zM371 696q0 -20 18 -32.5t57 -12.5
q38 0 55.5 12.5t17.5 32.5t-17.5 32t-55.5 12q-39 0 -57 -12t-18 -32z" />
    <glyph glyph-name="aeacute" unicode="&#x1fd;" horiz-adv-x="1357" 
d="M570 583l108 161h261l-129 -161h-240zM942 421q-38 0 -65 -6t-46 -16.5t-30.5 -25.5t-18.5 -33h303q-4 38 -36 59.5t-107 21.5zM340 120q71 0 112.5 31t49.5 78q1 4 2.5 13.5t1.5 11.5l-179 -32q-40 -7 -52.5 -19.5t-12.5 -33.5q0 -18 16.5 -33.5t61.5 -15.5zM1329 196
q-3 -19 -10 -41.5t-22.5 -46t-42.5 -45.5t-70.5 -39.5t-105.5 -28t-148 -10.5h-50q-75 0 -130 10.5t-94.5 26.5t-65 36t-40.5 40q-10 -12 -30 -30.5t-53.5 -36t-83 -30t-118.5 -12.5h-10q-70 0 -118.5 12.5t-79 34.5t-44.5 50.5t-14 61.5q0 34 12 70t48 62q28 21 71 33.5
t110 17.5l253 22q34 3 34 28q0 7 -3 14t-14.5 13t-33.5 9.5t-60 3.5h-2q-42 0 -66.5 -6t-36.5 -15t-16 -18.5t-6 -15.5h-244q3 17 7.5 38t17 41.5t35.5 39.5t61 34t93.5 24t134.5 9h54q54 0 93 -4.5t66.5 -12t45.5 -16.5t29 -17q24 16 84 33.5t156 17.5h53q120 0 192.5 -24
t111 -60.5t51 -80.5t12.5 -84q0 -23 -3 -42.5t-5 -31.5h-571q1 -20 9 -38t25 -31.5t45 -21.5t68 -8h1q46 0 75.5 8t46.5 19t24 21.5t9 16.5h263z" />
    <glyph glyph-name="cacute" unicode="&#x107;" horiz-adv-x="868" 
d="M346 585l107 159h261l-128 -159h-240zM381 -15q-110 0 -180.5 21.5t-111.5 56.5t-57 79.5t-16 89.5q0 15 1 29t4 35q6 44 27.5 90t67.5 83t122.5 60.5t192.5 23.5h61q88 0 150 -12t103.5 -32.5t65.5 -46t35 -52.5t13 -53t-1 -47h-270q0 7 -3.5 22.5t-17 31.5t-40.5 27.5
t-75 11.5h-4q-48 0 -79.5 -15t-49.5 -37.5t-25 -50t-7 -52.5q0 -22 6.5 -42t21.5 -35.5t40 -24.5t61 -9h5q45 0 74 12t46 27.5t24.5 32t10.5 25.5h270q-3 -19 -9.5 -45.5t-22 -54t-42.5 -54.5t-71 -48t-108.5 -34t-153.5 -13h-58z" />
    <glyph glyph-name="ccaron" unicode="&#x10d;" horiz-adv-x="868" 
d="M201 744h226l49 -65l61 65h236l-166 -159h-277zM381 -15q-110 0 -180.5 21.5t-111.5 56.5t-57 79.5t-16 89.5q0 15 1 29t4 35q6 44 27.5 90t67.5 83t122.5 60.5t192.5 23.5h61q88 0 150 -12t103.5 -32.5t65.5 -46t35 -52.5t13 -53t-1 -47h-270q0 7 -3.5 22.5t-17 31.5
t-40.5 27.5t-75 11.5h-4q-48 0 -79.5 -15t-49.5 -37.5t-25 -50t-7 -52.5q0 -22 6.5 -42t21.5 -35.5t40 -24.5t61 -9h5q45 0 74 12t46 27.5t24.5 32t10.5 25.5h270q-3 -19 -9.5 -45.5t-22 -54t-42.5 -54.5t-71 -48t-108.5 -34t-153.5 -13h-58z" />
    <glyph glyph-name="ccircumflex" unicode="&#x109;" horiz-adv-x="868" 
d="M753 585h-224l-49 63l-62 -63h-233l168 159h270zM381 -15q-110 0 -180.5 21.5t-111.5 56.5t-57 79.5t-16 89.5q0 15 1 29t4 35q6 44 27.5 90t67.5 83t122.5 60.5t192.5 23.5h61q88 0 150 -12t103.5 -32.5t65.5 -46t35 -52.5t13 -53t-1 -47h-270q0 7 -3.5 22.5t-17 31.5
t-40.5 27.5t-75 11.5h-4q-48 0 -79.5 -15t-49.5 -37.5t-25 -50t-7 -52.5q0 -22 6.5 -42t21.5 -35.5t40 -24.5t61 -9h5q45 0 74 12t46 27.5t24.5 32t10.5 25.5h270q-3 -19 -9.5 -45.5t-22 -54t-42.5 -54.5t-71 -48t-108.5 -34t-153.5 -13h-58z" />
    <glyph glyph-name="cdotaccent" unicode="&#x10b;" horiz-adv-x="868" 
d="M597 585h-266l26 159h265zM381 -15q-110 0 -180.5 21.5t-111.5 56.5t-57 79.5t-16 89.5q0 15 1 29t4 35q6 44 27.5 90t67.5 83t122.5 60.5t192.5 23.5h61q88 0 150 -12t103.5 -32.5t65.5 -46t35 -52.5t13 -53t-1 -47h-270q0 7 -3.5 22.5t-17 31.5t-40.5 27.5t-75 11.5h-4
q-48 0 -79.5 -15t-49.5 -37.5t-25 -50t-7 -52.5q0 -22 6.5 -42t21.5 -35.5t40 -24.5t61 -9h5q45 0 74 12t46 27.5t24.5 32t10.5 25.5h270q-3 -19 -9.5 -45.5t-22 -54t-42.5 -54.5t-71 -48t-108.5 -34t-153.5 -13h-58z" />
    <glyph glyph-name="dcaron" unicode="&#x10f;" horiz-adv-x="912" 
d="M605 254q2 7 2.5 15t0.5 16q0 22 -9 42.5t-27 36t-46.5 25t-67.5 9.5h-5q-47 0 -78.5 -13t-50.5 -33t-27 -46t-8 -51q0 -22 7 -42.5t23 -36t41 -25t61 -9.5h4q42 0 74 10.5t54 27t35 36.5t17 38zM948 744l-118 -744h-264l12 79q-7 -8 -25.5 -23t-49 -29.5t-75 -25.5
t-104.5 -11h-15q-75 0 -130 19t-91 52t-53.5 77.5t-17.5 95.5q0 14 1 30t4 36q7 49 29.5 93.5t63 79t101.5 55t145 20.5h17q61 0 106.5 -10t77 -23.5t50.5 -27t27 -20.5l43 277h266zM987 744h199l-54 -169h-183z" />
    <glyph glyph-name="ebreve" unicode="&#x115;" horiz-adv-x="867" 
d="M424 744q0 -5 2 -12.5t8 -15t17 -13t31 -5.5t33 5.5t20.5 13t10.5 15t4 12.5h174q-2 -21 -13 -49.5t-37.5 -54t-69.5 -43.5t-107 -18h-39q-71 0 -113 18t-63.5 43.5t-27.5 54t-4 49.5h174v0zM452 421q-38 0 -65 -6t-46 -16.5t-30.5 -25.5t-18.5 -33h303q-4 38 -36 59.5
t-107 21.5zM839 196q-3 -19 -10 -41.5t-22.5 -46t-42.5 -45.5t-70 -39.5t-105 -28t-148 -10.5h-51q-112 0 -184.5 21.5t-114.5 57t-58.5 81t-16.5 93.5q0 13 1 26.5t3 28.5q7 46 27.5 92t66.5 83.5t122.5 61t195.5 23.5h54q117 0 188.5 -22.5t111 -59t52.5 -83t13 -94.5
q0 -15 -2 -35t-4 -29h-571q0 -20 8 -38t25 -31.5t45 -21.5t68 -8h1q46 0 75 8t46 19t24.5 21.5t9.5 16.5h263z" />
    <glyph glyph-name="ecaron" unicode="&#x11b;" horiz-adv-x="867" 
d="M201 744h226l49 -65l61 65h236l-166 -159h-277zM452 421q-38 0 -65 -6t-46 -16.5t-30.5 -25.5t-18.5 -33h303q-4 38 -36 59.5t-107 21.5zM839 196q-3 -19 -10 -41.5t-22.5 -46t-42.5 -45.5t-70 -39.5t-105 -28t-148 -10.5h-51q-112 0 -184.5 21.5t-114.5 57t-58.5 81
t-16.5 93.5q0 13 1 26.5t3 28.5q7 46 27.5 92t66.5 83.5t122.5 61t195.5 23.5h54q117 0 188.5 -22.5t111 -59t52.5 -83t13 -94.5q0 -15 -2 -35t-4 -29h-571q0 -20 8 -38t25 -31.5t45 -21.5t68 -8h1q46 0 75 8t46 19t24.5 21.5t9.5 16.5h263z" />
    <glyph glyph-name="edotaccent" unicode="&#x117;" horiz-adv-x="867" 
d="M596 585h-265l25 159h266zM452 421q-38 0 -65 -6t-46 -16.5t-30.5 -25.5t-18.5 -33h303q-4 38 -36 59.5t-107 21.5zM839 196q-3 -19 -10 -41.5t-22.5 -46t-42.5 -45.5t-70 -39.5t-105 -28t-148 -10.5h-51q-112 0 -184.5 21.5t-114.5 57t-58.5 81t-16.5 93.5q0 13 1 26.5
t3 28.5q7 46 27.5 92t66.5 83.5t122.5 61t195.5 23.5h54q117 0 188.5 -22.5t111 -59t52.5 -83t13 -94.5q0 -15 -2 -35t-4 -29h-571q0 -20 8 -38t25 -31.5t45 -21.5t68 -8h1q46 0 75 8t46 19t24.5 21.5t9.5 16.5h263z" />
    <glyph glyph-name="emacron" unicode="&#x113;" horiz-adv-x="867" 
d="M452 421q-38 0 -65 -6t-46 -16.5t-30.5 -25.5t-18.5 -33h303q-4 38 -36 59.5t-107 21.5zM839 196q-3 -19 -10 -41.5t-22.5 -46t-42.5 -45.5t-70 -39.5t-105 -28t-148 -10.5h-51q-112 0 -184.5 21.5t-114.5 57t-58.5 81t-16.5 93.5q0 13 1 26.5t3 28.5q7 46 27.5 92
t66.5 83.5t122.5 61t195.5 23.5h54q117 0 188.5 -22.5t111 -59t52.5 -83t13 -94.5q0 -15 -2 -35t-4 -29h-571q0 -20 8 -38t25 -31.5t45 -21.5t68 -8h1q46 0 75 8t46 19t24.5 21.5t9.5 16.5h263zM276 724h440l-21 -129h-440z" />
    <glyph glyph-name="eogonek" unicode="&#x119;" horiz-adv-x="867" 
d="M452 421q-38 0 -65 -6t-46 -16.5t-30.5 -25.5t-18.5 -33h303q-4 38 -36 59.5t-107 21.5zM669 -188h-161q-69 0 -100.5 16.5t-31.5 51.5q0 22 13.5 38.5t37.5 30t57.5 24t74.5 19.5q-26 -3 -56 -5t-62 -2h-51q-112 0 -184.5 21.5t-114.5 57t-58.5 81t-16.5 93.5q0 13 1 27
t3 28q7 46 27.5 92t66.5 83.5t122.5 61t195.5 23.5h54q117 0 188.5 -22.5t111 -59t52.5 -83t13 -94.5q0 -15 -2 -35t-4 -29h-571q0 -20 8 -38t25 -31.5t45 -21.5t68 -8h1q46 0 75 8t46 19t24.5 21.5t9.5 16.5h263q-3 -20 -10 -42t-22.5 -46t-42 -49.5t-67.5 -51.5
q-35 -23 -54 -38t-19 -30q0 -21 31 -21h31z" />
    <glyph glyph-name="gbreve" unicode="&#x11f;" horiz-adv-x="917" 
d="M433 169q42 0 73.5 8.5t54 22.5t35 32t17.5 38q3 12 3 25q0 42 -38 71.5t-117 29.5h-7q-50 0 -82 -11t-50.5 -29t-25.5 -40.5t-7 -44.5q0 -21 7 -39.5t23.5 -32.5t43 -22t64.5 -8h6zM275 0q1 -5 4.5 -13t17 -15t40 -12t71.5 -5h2q48 0 80 12t52 31.5t30 43.5t14 48l2 11
q-9 -9 -26.5 -22t-47.5 -25.5t-74 -21.5t-104 -9h-12q-86 0 -144 20t-93.5 53t-51 75.5t-15.5 87.5q0 13 1 25t3 28q7 46 28 89t60.5 75.5t99.5 52t145 19.5h16q64 0 110.5 -9.5t79 -22t52.5 -26t30 -22.5l11 70h265l-70 -444q-8 -49 -27.5 -100.5t-64 -93.5t-121.5 -68.5
t-200 -26.5h-71q-84 0 -143.5 10.5t-99.5 27t-63 38t-35 43t-14.5 41.5t-0.5 35h264zM439 744q0 -5 1.5 -13.5t7.5 -16t17.5 -13t31.5 -5.5t33 5.5t20.5 13t11 16t3.5 13.5h173q-1 -22 -12.5 -50.5t-37.5 -54.5t-69 -44t-107 -18h-39q-71 0 -113 18t-64 44t-27.5 54.5
t-3.5 50.5h174v0z" />
    <glyph glyph-name="gcircumflex" unicode="&#x11d;" horiz-adv-x="917" 
d="M433 169q42 0 73.5 8.5t54 22.5t35 32t17.5 38q3 12 3 25q0 42 -38 71.5t-117 29.5h-7q-50 0 -82 -11t-50.5 -29t-25.5 -40.5t-7 -44.5q0 -21 7 -39.5t23.5 -32.5t43 -22t64.5 -8h6zM275 0q1 -5 4.5 -13t17 -15t40 -12t71.5 -5h2q48 0 80 12t52 31.5t30 43.5t14 48l2 11
q-9 -9 -26.5 -22t-47.5 -25.5t-74 -21.5t-104 -9h-12q-86 0 -144 20t-93.5 53t-51 75.5t-15.5 87.5q0 13 1 25t3 28q7 46 28 89t60.5 75.5t99.5 52t145 19.5h16q64 0 110.5 -9.5t79 -22t52.5 -26t30 -22.5l11 70h265l-70 -444q-8 -49 -27.5 -100.5t-64 -93.5t-121.5 -68.5
t-200 -26.5h-71q-84 0 -143.5 10.5t-99.5 27t-63 38t-35 43t-14.5 41.5t-0.5 35h264zM777 582h-225l-49 66l-61 -66h-234l169 162h269z" />
    <glyph glyph-name="uni0123" unicode="&#x123;" horiz-adv-x="917" 
d="M433 169q42 0 73.5 8.5t54 22.5t35 32t17.5 38q3 12 3 25q0 42 -38 71.5t-117 29.5h-7q-50 0 -82 -11t-50.5 -29t-25.5 -40.5t-7 -44.5q0 -21 7 -39.5t23.5 -32.5t43 -22t64.5 -8h6zM275 0q1 -5 4.5 -13t17 -15t40 -12t71.5 -5h2q48 0 80 12t52 31.5t30 43.5t14 48l2 11
q-9 -9 -26.5 -22t-47.5 -25.5t-74 -21.5t-104 -9h-12q-86 0 -144 20t-93.5 53t-51 75.5t-15.5 87.5q0 13 1 25t3 28q7 46 28 89t60.5 75.5t99.5 52t145 19.5h16q64 0 110.5 -9.5t79 -22t52.5 -26t30 -22.5l11 70h265l-70 -444q-8 -49 -27.5 -100.5t-64 -93.5t-121.5 -68.5
t-200 -26.5h-71q-84 0 -143.5 10.5t-99.5 27t-63 38t-35 43t-14.5 41.5t-0.5 35h264zM559 834q-14 -22 -28 -47.5t-19 -44.5h110l-26 -159h-251l20 124q3 16 10 33.5t16.5 34.5t20.5 32.5t20 26.5h127v0z" />
    <glyph glyph-name="gdotaccent" unicode="&#x121;" horiz-adv-x="917" 
d="M433 169q42 0 73.5 8.5t54 22.5t35 32t17.5 38q3 12 3 25q0 42 -38 71.5t-117 29.5h-7q-50 0 -82 -11t-50.5 -29t-25.5 -40.5t-7 -44.5q0 -21 7 -39.5t23.5 -32.5t43 -22t64.5 -8h6zM275 0q1 -5 4.5 -13t17 -15t40 -12t71.5 -5h2q48 0 80 12t52 31.5t30 43.5t14 48l2 11
q-9 -9 -26.5 -22t-47.5 -25.5t-74 -21.5t-104 -9h-12q-86 0 -144 20t-93.5 53t-51 75.5t-15.5 87.5q0 13 1 25t3 28q7 46 28 89t60.5 75.5t99.5 52t145 19.5h16q64 0 110.5 -9.5t79 -22t52.5 -26t30 -22.5l11 70h265l-70 -444q-8 -49 -27.5 -100.5t-64 -93.5t-121.5 -68.5
t-200 -26.5h-71q-84 0 -143.5 10.5t-99.5 27t-63 38t-35 43t-14.5 41.5t-0.5 35h264zM613 583h-265l26 161h265z" />
    <glyph glyph-name="hbar" unicode="&#x127;" horiz-adv-x="866" 
d="M41 695h575l-18 -110h-575zM114 744h265l-47 -300q7 7 27 24.5t53.5 35.5t80 32t105.5 14h6q74 0 122 -21t74.5 -54t34.5 -73t2 -78l-51 -324h-266l41 257q4 27 0.5 49.5t-16.5 39t-35.5 26t-56.5 9.5q-67 0 -105 -36.5t-47 -92.5l-40 -252h-265z" />
    <glyph glyph-name="hcircumflex" unicode="&#x125;" horiz-adv-x="866" 
d="M114 744h265l-47 -300q7 7 27 24.5t53.5 35.5t80 32t105.5 14h6q74 0 122 -21t74.5 -54t34.5 -73t2 -78l-51 -324h-266l41 257q4 27 0.5 49.5t-16.5 39t-35.5 26t-56.5 9.5q-67 0 -105 -36.5t-47 -92.5l-40 -252h-265zM614 944l137 -155h-226l-55 58l-66 -58h-235
l173 155h272z" />
    <glyph glyph-name="ibreve" unicode="&#x12d;" horiz-adv-x="343" 
d="M197 744q0 -5 1 -12.5t5 -14.5t12 -12t22 -5q15 0 24 5t14.5 11.5t8 14t2.5 13.5h152q-1 -23 -10.5 -52t-32 -54.5t-60 -43.5t-94.5 -18h-10q-65 0 -102.5 17.5t-56.5 43t-24 55t-4 52.5h153v0zM261 0h-265l85 538h265z" />
    <glyph glyph-name="idotaccent" horiz-adv-x="343" 
d="M354 585h-266l26 159h265zM261 0h-265l85 538h265z" />
    <glyph glyph-name="imacron" unicode="&#x12b;" horiz-adv-x="343" 
d="M56 722h372l-21 -129h-371zM261 0h-265l85 538h265z" />
    <glyph glyph-name="iogonek" unicode="&#x12f;" horiz-adv-x="343" 
d="M353 583h-265l26 161h265zM261 0h-265l85 538h265zM74 -188q-69 0 -100 16.5t-31 51.5q0 45 56.5 73t151.5 47h111q-34 -20 -52.5 -34.5t-18.5 -28.5q0 -19 31 -19h27l-17 -106h-158v0z" />
    <glyph glyph-name="itilde" unicode="&#x129;" horiz-adv-x="343" 
d="M330 585q-13 0 -24 1.5t-23.5 5.5t-27 9.5t-33.5 13.5q-16 7 -25.5 10.5t-17.5 3.5t-10 -6t-4 -14l-4 -29h-131l13 82q2 16 7 33t15 31t27 23t43 9h3q25 0 47.5 -6.5t62.5 -23.5q14 -6 23 -10t17 -4t10 6t4 14l5 29h131l-11 -73q-3 -18 -8 -36.5t-15 -33.5t-27 -25
t-43 -10h-4v0zM261 0h-265l85 538h265z" />
    <glyph glyph-name="jcircumflex" unicode="&#x135;" horiz-adv-x="344" 
d="M447 583h-185l-34 68l-51 -68h-185l125 161h244zM-37 -27q17 0 25 7.5t11 27.5l84 530h265l-94 -593q-11 -68 -43.5 -100.5t-80.5 -32.5h-229l27 161h35z" />
    <glyph glyph-name="uni0137" unicode="&#x137;" horiz-adv-x="782" 
d="M268 -296q14 22 27.5 47.5t19.5 44.5h-110l25 159h251l-20 -124q-2 -16 -9 -33.5t-16.5 -34.5t-20.5 -32.5t-20 -26.5h-127zM-4 0l118 744h265l-65 -411l200 205h298l-247 -250l193 -288h-302l-156 246l-39 -246h-265z" />
    <glyph glyph-name="lacute" unicode="&#x13a;" horiz-adv-x="343" 
d="M133 789l102 152h260l-123 -152h-239zM261 0h-265l118 744h265z" />
    <glyph glyph-name="lcaron" unicode="&#x13e;" horiz-adv-x="343" 
d="M261 0h-265l118 744h265zM419 744h199l-54 -169h-183z" />
    <glyph glyph-name="uni013C" unicode="&#x13c;" horiz-adv-x="343" 
d="M35 -296q14 22 27.5 47.5t19.5 44.5h-110l25 159h251l-20 -124q-2 -16 -9 -33.5t-16.5 -34.5t-20.5 -32.5t-20 -26.5h-127zM261 0h-265l118 744h265z" />
    <glyph glyph-name="ldot" unicode="&#x140;" horiz-adv-x="627" 
d="M622 287h-274l31 195h275zM261 0h-265l118 744h265z" />
    <glyph glyph-name="nacute" unicode="&#x144;" horiz-adv-x="866" 
d="M81 538h264l-16 -96q7 7 28 25t55 36.5t80.5 32.5t105.5 14h6q73 0 121 -21t75 -54t35 -73t2 -78l-51 -324h-266l41 257q4 27 0.5 49.5t-16.5 39t-35.5 26t-56.5 9.5q-67 0 -105 -36.5t-47 -92.5l-40 -252h-265zM346 583l108 161h261l-129 -161h-240z" />
    <glyph glyph-name="napostrophe" unicode="&#x149;" horiz-adv-x="1119" 
d="M333 538h264l-16 -96q7 7 28 25t55 36.5t80.5 32.5t105.5 14h6q73 0 121 -21t75 -54t35 -73t2 -78l-51 -324h-266l41 257q4 27 0.5 49.5t-16.5 39t-35.5 26t-56.5 9.5q-67 0 -105 -36.5t-47 -92.5l-40 -252h-265zM115 475q17 24 33 53.5t22 50.5h-109l26 165h261
l-21 -135q-3 -17 -11 -35.5t-19 -36.5t-23.5 -34.5t-22.5 -27.5h-136z" />
    <glyph glyph-name="ncaron" unicode="&#x148;" horiz-adv-x="866" 
d="M81 538h264l-16 -96q7 7 28 25t55 36.5t80.5 32.5t105.5 14h6q73 0 121 -21t75 -54t35 -73t2 -78l-51 -324h-266l41 257q4 27 0.5 49.5t-16.5 39t-35.5 26t-56.5 9.5q-67 0 -105 -36.5t-47 -92.5l-40 -252h-265zM198 744h224l49 -65l61 65h234l-168 -161h-270z" />
    <glyph glyph-name="uni0146" unicode="&#x146;" horiz-adv-x="866" 
d="M302 -296q14 22 27.5 47.5t19.5 44.5h-110l25 159h251l-20 -124q-2 -16 -9 -33.5t-16.5 -34.5t-20.5 -32.5t-20 -26.5h-127zM81 538h264l-16 -96q7 7 28 25t55 36.5t80.5 32.5t105.5 14h6q73 0 121 -21t75 -54t35 -73t2 -78l-51 -324h-266l41 257q4 27 0.5 49.5t-16.5 39
t-35.5 26t-56.5 9.5q-67 0 -105 -36.5t-47 -92.5l-40 -252h-265z" />
    <glyph glyph-name="obreve" unicode="&#x14f;" horiz-adv-x="904" 
d="M437 744q0 -5 1.5 -12.5t7.5 -15t17.5 -13t31.5 -5.5t33 5.5t20.5 13t10.5 15t4 12.5h173q-2 -21 -13 -49.5t-37 -54t-69 -43.5t-107 -18h-39q-71 0 -113 18t-63.5 43.5t-27.5 54t-4 49.5h174v0zM394 -16q-115 0 -188.5 24t-115.5 61t-58 81.5t-16 86.5q0 11 0.5 24.5
t2.5 25.5q6 43 24.5 90t64.5 86t125.5 64.5t205.5 25.5h73q117 0 190.5 -22t115 -57.5t56.5 -79t15 -85.5q0 -11 -1 -25t-3 -30q-4 -28 -12 -58.5t-25.5 -60.5t-46 -57.5t-74 -48t-109.5 -33t-152 -12.5h-72zM465 401q-55 0 -89.5 -14t-54 -35.5t-27 -48t-7.5 -51.5
q0 -20 7.5 -40.5t24.5 -37t46 -26.5t73 -10h1q54 0 88.5 14.5t55 37t28.5 49.5t8 53q0 20 -7.5 39.5t-25 35t-47 25t-73.5 9.5h-1z" />
    <glyph glyph-name="ohungarumlaut" unicode="&#x151;" horiz-adv-x="904" 
d="M593 744h231l-88 -159h-226zM318 744h232l-83 -159h-224zM394 -16q-115 0 -188.5 24t-115.5 61t-58 81.5t-16 86.5q0 11 0.5 24.5t2.5 25.5q6 43 24.5 90t64.5 86t125.5 64.5t205.5 25.5h73q117 0 190.5 -22t115 -57.5t56.5 -79t15 -85.5q0 -11 -1 -25t-3 -30
q-4 -28 -12 -58.5t-25.5 -60.5t-46 -57.5t-74 -48t-109.5 -33t-152 -12.5h-72zM465 401q-55 0 -89.5 -14t-54 -35.5t-27 -48t-7.5 -51.5q0 -20 7.5 -40.5t24.5 -37t46 -26.5t73 -10h1q54 0 88.5 14.5t55 37t28.5 49.5t8 53q0 20 -7.5 39.5t-25 35t-47 25t-73.5 9.5h-1z" />
    <glyph glyph-name="omacron" unicode="&#x14d;" horiz-adv-x="904" 
d="M394 -16q-115 0 -188.5 24t-115.5 61t-58 81.5t-16 86.5q0 11 0.5 24.5t2.5 25.5q6 43 24.5 90t64.5 86t125.5 64.5t205.5 25.5h73q117 0 190.5 -22t115 -57.5t56.5 -79t15 -85.5q0 -11 -1 -25t-3 -30q-4 -28 -12 -58.5t-25.5 -60.5t-46 -57.5t-74 -48t-109.5 -33
t-152 -12.5h-72zM465 401q-55 0 -89.5 -14t-54 -35.5t-27 -48t-7.5 -51.5q0 -20 7.5 -40.5t24.5 -37t46 -26.5t73 -10h1q54 0 88.5 14.5t55 37t28.5 49.5t8 53q0 20 -7.5 39.5t-25 35t-47 25t-73.5 9.5h-1zM292 724h440l-21 -129h-440z" />
    <glyph glyph-name="oslashacute" unicode="&#x1ff;" horiz-adv-x="904" 
d="M364 585l107 159h262l-129 -159h-240zM394 -16q-71 0 -124.5 10.5t-91.5 26.5l-32 -21h-173l114 77q-35 30 -53 71.5t-18 88.5q0 11 0.5 24.5t2.5 25.5q6 43 24.5 90t64.5 86t125.5 64.5t205.5 25.5h73q79 0 132 -11.5t85 -24.5l32 21h175l-114 -76q26 -25 46.5 -62.5
t20.5 -88.5q0 -11 -1 -26.5t-3 -31.5q-4 -28 -12 -58.5t-25 -60.5t-46 -57t-74.5 -47.5t-109.5 -33t-152 -12.5h-72zM280 252q0 -11 1.5 -20.5t3.5 -19.5l266 182q-35 11 -85 11h-1q-57 0 -93.5 -14t-56.5 -36t-27.5 -49.5t-7.5 -53.5zM439 135q58 0 94.5 15t57 38.5t28 51
t7.5 52.5q0 19 -4 34l-263 -181q16 -5 35.5 -7.5t43.5 -2.5h1z" />
    <glyph glyph-name="racute" unicode="&#x155;" horiz-adv-x="762" 
d="M261 0h-265l85 538h264l-16 -99q8 12 25.5 30.5t45.5 36.5t65.5 31t85.5 13h10q65 0 105.5 -22t62 -57t26 -79.5t-2.5 -89.5l-7 -44h-256l3 19q3 21 1.5 41t-10.5 35.5t-26 24.5t-43 9q-47 0 -74 -30t-35 -84zM286 583l108 161h261l-129 -161h-240z" />
    <glyph glyph-name="rcaron" unicode="&#x159;" horiz-adv-x="762" 
d="M261 0h-265l85 538h264l-16 -99q8 12 25.5 30.5t45.5 36.5t65.5 31t85.5 13h10q65 0 105.5 -22t62 -57t26 -79.5t-2.5 -89.5l-7 -44h-256l3 19q3 21 1.5 41t-10.5 35.5t-26 24.5t-43 9q-47 0 -74 -30t-35 -84zM153 744h224l49 -65l61 65h234l-168 -161h-270z" />
    <glyph glyph-name="uni0157" unicode="&#x157;" horiz-adv-x="762" 
d="M36 -296q14 22 27.5 47.5t19.5 44.5h-110l25 159h251l-20 -124q-2 -16 -9 -33.5t-16.5 -34.5t-20.5 -32.5t-20 -26.5h-127zM261 0h-265l85 538h264l-16 -99q8 12 25.5 30.5t45.5 36.5t65.5 31t85.5 13h10q65 0 105.5 -22t62 -57t26 -79.5t-2.5 -89.5l-7 -44h-256l3 19
q3 21 1.5 41t-10.5 35.5t-26 24.5t-43 9q-47 0 -74 -30t-35 -84z" />
    <glyph glyph-name="sacute" unicode="&#x15b;" horiz-adv-x="797" 
d="M309 585l107 159h261l-128 -159h-240zM334 -15q-80 0 -136.5 9.5t-94.5 25t-59.5 36t-32 42.5t-13 44t-0.5 41h270q0 -9 2.5 -20t12.5 -21t30.5 -17t56.5 -7h2q39 0 62 4t34.5 11t15 15t3.5 17t-3 16.5t-12.5 13t-27 9t-45.5 4.5l-108 4q-76 3 -125.5 18t-78 37.5
t-39.5 51t-11 58.5q0 8 1 17.5t3 19.5q7 30 26 55.5t59.5 44t106 29t166.5 10.5h49q110 0 177 -14t102 -38t45 -55.5t7 -66.5h-263q0 7 -3 15.5t-14 16t-32.5 12.5t-59.5 5q-35 0 -55 -3t-30.5 -8.5t-13.5 -12.5t-3 -14q0 -8 3.5 -14.5t12.5 -11t25.5 -7.5t42.5 -4l106 -4
q82 -3 135 -15t83.5 -32.5t42 -48.5t11.5 -63q0 -11 -1 -23t-3 -23q-7 -33 -24.5 -61.5t-58.5 -50.5t-111.5 -34.5t-183.5 -12.5h-51v0z" />
    <glyph glyph-name="uni015F" unicode="&#x15f;" horiz-adv-x="797" 
d="M334 -15q-80 0 -136.5 9.5t-94.5 25t-59.5 36t-32 42.5t-13 44t-0.5 41h270q0 -9 2.5 -20t12.5 -21t30.5 -17t56.5 -7h2q39 0 62 4t34.5 11t15 15t3.5 17t-3 16.5t-12.5 13t-27 9t-45.5 4.5l-108 4q-76 3 -125.5 18t-78 37.5t-39.5 51t-11 58.5q0 8 1 17.5t3 19.5
q7 30 26 55.5t59.5 44t106 29t166.5 10.5h49q110 0 177 -14t102 -38t45 -55.5t7 -66.5h-263q0 7 -3 15.5t-14 16t-32.5 12.5t-59.5 5q-35 0 -55 -3t-30.5 -8.5t-13.5 -12.5t-3 -14q0 -8 3.5 -14.5t12.5 -11t25.5 -7.5t42.5 -4l106 -4q82 -3 135 -15t83.5 -32.5t42 -48.5
t11.5 -63q0 -11 -1 -23t-3 -23q-7 -33 -24.5 -61.5t-58.5 -50.5t-111.5 -34.5t-183.5 -12.5h-51v0zM160 -167h106q23 0 30 7t7 16t-6 15t-26 6h-68l20 123h134l-7 -49q52 0 85 -7t52.5 -19.5t27 -30t7.5 -37.5t-6.5 -40.5t-27 -37t-59.5 -27.5t-104 -11h-180z" />
    <glyph glyph-name="scircumflex" unicode="&#x15d;" horiz-adv-x="797" 
d="M717 585h-225l-49 63l-61 -63h-234l169 159h269zM334 -15q-80 0 -136.5 9.5t-94.5 25t-59.5 36t-32 42.5t-13 44t-0.5 41h270q0 -9 2.5 -20t12.5 -21t30.5 -17t56.5 -7h2q39 0 62 4t34.5 11t15 15t3.5 17t-3 16.5t-12.5 13t-27 9t-45.5 4.5l-108 4q-76 3 -125.5 18
t-78 37.5t-39.5 51t-11 58.5q0 8 1 17.5t3 19.5q7 30 26 55.5t59.5 44t106 29t166.5 10.5h49q110 0 177 -14t102 -38t45 -55.5t7 -66.5h-263q0 7 -3 15.5t-14 16t-32.5 12.5t-59.5 5q-35 0 -55 -3t-30.5 -8.5t-13.5 -12.5t-3 -14q0 -8 3.5 -14.5t12.5 -11t25.5 -7.5t42.5 -4
l106 -4q82 -3 135 -15t83.5 -32.5t42 -48.5t11.5 -63q0 -11 -1 -23t-3 -23q-7 -33 -24.5 -61.5t-58.5 -50.5t-111.5 -34.5t-183.5 -12.5h-51v0z" />
    <glyph glyph-name="uni0219" unicode="&#x219;" horiz-adv-x="797" 
d="M275 -297q14 22 27.5 47.5t19.5 44.5h-110l25 159h251l-20 -124q-2 -16 -9 -33.5t-16.5 -34.5t-20.5 -32.5t-20 -26.5h-127zM334 -15q-80 0 -136.5 9.5t-94.5 25t-59.5 36t-32 42.5t-13 44t-0.5 41h270q0 -9 2.5 -20t12.5 -21t30.5 -17t56.5 -7h2q39 0 62 4t34.5 11
t15 15t3.5 17t-3 16.5t-12.5 13t-27 9t-45.5 4.5l-108 4q-76 3 -125.5 18t-78 37.5t-39.5 51t-11 58.5q0 8 1 17.5t3 19.5q7 30 26 55.5t59.5 44t106 29t166.5 10.5h49q110 0 177 -14t102 -38t45 -55.5t7 -66.5h-263q0 7 -3 15.5t-14 16t-32.5 12.5t-59.5 5q-35 0 -55 -3
t-30.5 -8.5t-13.5 -12.5t-3 -14q0 -8 3.5 -14.5t12.5 -11t25.5 -7.5t42.5 -4l106 -4q82 -3 135 -15t83.5 -32.5t42 -48.5t11.5 -63q0 -11 -1 -23t-3 -23q-7 -33 -24.5 -61.5t-58.5 -50.5t-111.5 -34.5t-183.5 -12.5h-51v0z" />
    <glyph glyph-name="tbar" unicode="&#x167;" horiz-adv-x="502" 
d="M435 0h-218q-69 0 -101.5 40t-18.5 120l10 63h-101l19 117h101l7 46h-101l25 152h100l25 157h262l-25 -157h102l-24 -152h-102l-7 -46h101l-18 -117h-102l-3 -19q-3 -20 3.5 -31.5t32.5 -11.5h59z" />
    <glyph glyph-name="tcaron" unicode="&#x165;" horiz-adv-x="502" 
d="M217 0q-69 0 -101 40t-19 120l35 213h-101l26 165h100l25 157h263l-25 -157h102l-27 -165h-101l-26 -163q-3 -20 3 -31.5t33 -11.5h59l-27 -167h-219zM493 744h199l-54 -169h-183z" />
    <glyph glyph-name="tcommaaccent" unicode="&#x163;" horiz-adv-x="502" 
d="M184 -296q14 22 27.5 47.5t19.5 44.5h-110l25 159h251l-20 -124q-2 -16 -9 -33.5t-16.5 -34.5t-20.5 -32.5t-20 -26.5h-127zM217 0q-69 0 -101 40t-19 120l35 213h-101l26 165h100l25 157h263l-25 -157h102l-27 -165h-101l-26 -163q-3 -20 3 -31.5t33 -11.5h59l-27 -167
h-219z" />
    <glyph glyph-name="uni021B" unicode="&#x21b;" horiz-adv-x="502" 
d="M184 -296q14 22 27.5 47.5t19.5 44.5h-110l25 159h251l-20 -124q-2 -16 -9 -33.5t-16.5 -34.5t-20.5 -32.5t-20 -26.5h-127zM217 0q-69 0 -101 40t-19 120l35 213h-101l26 165h100l25 157h263l-25 -157h102l-27 -165h-101l-26 -163q-3 -20 3 -31.5t33 -11.5h59l-27 -167
h-219z" />
    <glyph glyph-name="ubreve" unicode="&#x16d;" horiz-adv-x="857" 
d="M776 0h-264l16 96q-8 -8 -28.5 -25.5t-54 -36t-79 -32.5t-103.5 -14h-6q-72 0 -118.5 21t-73 54.5t-34 74.5t-1.5 80l50 320h266l-41 -257q-8 -53 14.5 -88.5t87.5 -35.5q63 0 101.5 36t47.5 92l40 253h265zM425 744q0 -5 1.5 -13.5t7.5 -16t17.5 -13t31.5 -5.5t33 5.5
t20.5 13t11 16t3.5 13.5h173q-1 -22 -12.5 -50.5t-37.5 -54.5t-69 -44t-107 -18h-39q-71 0 -113 18t-64 44t-27.5 54.5t-3.5 50.5h174v0z" />
    <glyph glyph-name="uhungarumlaut" unicode="&#x171;" horiz-adv-x="857" 
d="M776 0h-264l16 96q-8 -8 -28.5 -25.5t-54 -36t-79 -32.5t-103.5 -14h-6q-72 0 -118.5 21t-73 54.5t-34 74.5t-1.5 80l50 320h266l-41 -257q-8 -53 14.5 -88.5t87.5 -35.5q63 0 101.5 36t47.5 92l40 253h265zM572 744h230l-89 -161h-225zM297 744h232l-84 -161h-224z" />
    <glyph glyph-name="umacron" unicode="&#x16b;" horiz-adv-x="857" 
d="M776 0h-264l16 96q-8 -8 -28.5 -25.5t-54 -36t-79 -32.5t-103.5 -14h-6q-72 0 -118.5 21t-73 54.5t-34 74.5t-1.5 80l50 320h266l-41 -257q-8 -53 14.5 -88.5t87.5 -35.5q63 0 101.5 36t47.5 92l40 253h265zM277 722h440l-21 -129h-440z" />
    <glyph glyph-name="uogonek" unicode="&#x173;" horiz-adv-x="857" 
d="M588 -188q-69 0 -100 16.5t-31 51.5q0 45 56.5 73t151.5 47h111q-34 -20 -52.5 -34.5t-18.5 -28.5q0 -19 31 -19h27l-17 -106h-158v0zM776 0h-264l16 96q-8 -8 -28.5 -25.5t-54 -36t-79 -32.5t-103.5 -14h-6q-72 0 -118.5 21t-73 54.5t-34 74.5t-1.5 80l50 320h266
l-41 -257q-8 -53 14.5 -88.5t87.5 -35.5q63 0 101.5 36t47.5 92l40 253h265z" />
    <glyph glyph-name="uring" unicode="&#x16f;" horiz-adv-x="857" 
d="M776 0h-264l16 96q-8 -8 -28.5 -25.5t-54 -36t-79 -32.5t-103.5 -14h-6q-72 0 -118.5 21t-73 54.5t-34 74.5t-1.5 80l50 320h266l-41 -257q-8 -53 14.5 -88.5t87.5 -35.5q63 0 101.5 36t47.5 92l40 253h265zM289 695q0 24 9.5 45.5t32.5 37.5t61 25.5t95 9.5t94.5 -9.5
t60 -25.5t31.5 -37.5t9 -45.5q0 -25 -9 -46.5t-31.5 -37.5t-60 -25.5t-94.5 -9.5q-58 0 -96.5 9.5t-61 25.5t-31.5 38t-9 46zM412 695q0 -20 18 -32.5t57 -12.5q38 0 55.5 12.5t17.5 32.5t-17.5 32t-55.5 12q-39 0 -57 -12t-18 -32z" />
    <glyph glyph-name="utilde" unicode="&#x169;" horiz-adv-x="857" 
d="M776 0h-264l16 96q-8 -8 -28.5 -25.5t-54 -36t-79 -32.5t-103.5 -14h-6q-72 0 -118.5 21t-73 54.5t-34 74.5t-1.5 80l50 320h266l-41 -257q-8 -53 14.5 -88.5t87.5 -35.5q63 0 101.5 36t47.5 92l40 253h265zM602 585q-18 0 -32 1.5t-28.5 4.5t-31.5 8.5t-39 13.5
q-20 7 -32.5 11t-21.5 4q-10 0 -13.5 -6.5t-5.5 -16.5l-4 -25h-155l13 84q3 16 9 33t18.5 30.5t33 22t51.5 8.5h4q18 0 32.5 -1.5t29.5 -5t32.5 -9t40.5 -13.5q17 -6 29.5 -10t21.5 -4q14 0 17 19l5 29h157l-12 -75q-3 -18 -9 -36.5t-18.5 -33t-33.5 -24t-53 -9.5h-5v0z" />
    <glyph glyph-name="wacute" unicode="&#x1e83;" horiz-adv-x="1182" 
d="M162 0l-133 538h273l57 -338l146 338h272l58 -337l146 337h256l-268 -538h-297l-65 323l-146 -323h-299zM526 583l108 161h261l-129 -161h-240z" />
    <glyph glyph-name="wcircumflex" unicode="&#x175;" horiz-adv-x="1182" 
d="M162 0l-133 538h273l57 -338l146 338h272l58 -337l146 337h256l-268 -538h-297l-65 323l-146 -323h-299zM924 582h-225l-49 66l-61 -66h-234l169 162h269z" />
    <glyph glyph-name="wdieresis" unicode="&#x1e85;" horiz-adv-x="1182" 
d="M162 0l-133 538h273l57 -338l146 338h272l58 -337l146 337h256l-268 -538h-297l-65 323l-146 -323h-299zM621 583h-232l25 161h233zM899 583h-233l25 161h233z" />
    <glyph glyph-name="wgrave" unicode="&#x1e81;" horiz-adv-x="1182" 
d="M162 0l-133 538h273l57 -338l146 338h272l58 -337l146 337h256l-268 -538h-297l-65 323l-146 -323h-299zM758 583h-241l-88 161h264z" />
    <glyph glyph-name="ycircumflex" unicode="&#x177;" horiz-adv-x="799" 
d="M77 -22h118q29 0 29 23q0 13 -14 50l-182 487h278l100 -347l182 347h268l-330 -560q-25 -43 -48.5 -74t-48.5 -51.5t-54 -30.5t-64 -10h-261zM729 582h-225l-49 66l-61 -66h-234l169 162h269z" />
    <glyph glyph-name="ygrave" unicode="&#x1ef3;" horiz-adv-x="799" 
d="M77 -22h118q29 0 29 23q0 13 -14 50l-182 487h278l100 -347l182 347h268l-330 -560q-25 -43 -48.5 -74t-48.5 -51.5t-54 -30.5t-64 -10h-261zM572 583h-241l-88 161h264z" />
    <glyph glyph-name="zacute" unicode="&#x17a;" horiz-adv-x="734" 
d="M-20 0l22 146l387 233h-349l25 159h688l-22 -143l-395 -230h359l-25 -165h-690zM272 583l108 161h261l-129 -161h-240z" />
    <glyph glyph-name="zdotaccent" unicode="&#x17c;" horiz-adv-x="734" 
d="M-20 0l22 146l387 233h-349l25 159h688l-22 -143l-395 -230h359l-25 -165h-690zM539 583h-265l26 161h265z" />
    <glyph glyph-name="space_uni0326" 
d="M194 -296q14 22 27.5 47.5t19.5 44.5h-110l25 159h251l-20 -124q-2 -16 -9 -33.5t-16.5 -34.5t-20.5 -32.5t-20 -26.5h-127z" />
    <glyph glyph-name="oneeighth" unicode="&#x215b;" horiz-adv-x="1094" 
d="M64 581l15 92q30 1 52.5 7t38.5 15.5t27 22t19 26.5h154l-58 -368h-182l32 205h-98zM987 744l-860 -744h-184l855 744h189zM836 375q76 0 123 -7.5t73.5 -20.5t35.5 -30t9 -36t-8.5 -33.5t-23 -25t-33 -17.5t-38.5 -10q35 -7 60.5 -26.5t25.5 -55.5q0 -18 -8.5 -39
t-36.5 -39t-81 -30t-142 -12h-24q-78 0 -127 9t-76.5 24t-37.5 34t-10 39q0 21 9 37.5t25 28.5t36.5 19.5t44.5 10.5q-14 3 -27.5 9t-24.5 15.5t-18 22t-7 28.5t7 34t33 34t77 26.5t139 10.5h25zM889 263q0 5 -2.5 10t-10.5 8.5t-22 5.5t-38 2q-26 0 -42 -2.5t-24 -7
t-10.5 -9.5t-2.5 -10q0 -11 13.5 -18.5t58.5 -7.5q26 0 41.5 2.5t24 7t11.5 9.5t3 10zM706 119q0 -6 3 -11t12 -9.5t24.5 -7t40.5 -2.5q30 0 47.5 3t27 8t12.5 11t3 12q0 5 -3 10t-12 9t-25 6.5t-41 2.5q-29 0 -46.5 -3t-27 -7.5t-12.5 -10t-3 -11.5z" />
    <glyph glyph-name="onethird" unicode="&#x2153;" horiz-adv-x="1087" 
d="M64 581l15 92q30 1 52.5 7t38.5 15.5t27 22t19 26.5h154l-58 -368h-182l32 205h-98zM987 744l-860 -744h-184l855 744h189zM753 -7q-84 0 -132.5 15t-71.5 37t-28 47t-2 45h177q0 -5 2 -11.5t10 -13t24 -11t44 -4.5q29 0 46.5 2.5t27 7t12.5 9.5t3 11q0 11 -8 16t-29 5
h-111l15 90h106q23 0 32 5.5t9 14.5q0 4 -2.5 8t-10.5 7t-23.5 4.5t-42.5 1.5q-29 0 -45.5 -4t-25.5 -9t-11.5 -10t-2.5 -8h-174q3 16 10 38t32 42t73 34t132 14h33q81 0 129 -8t73.5 -20.5t33 -29t7.5 -33.5q0 -18 -8 -30.5t-20.5 -21t-27.5 -13t-29 -6.5q31 -6 53.5 -25
t22.5 -57q0 -18 -7 -41.5t-34.5 -45.5t-81 -37t-146.5 -15h-33z" />
    <glyph glyph-name="threeeighths" unicode="&#x215c;" horiz-adv-x="1293" 
d="M1173 744l-860 -744h-184l855 744h189zM274 370q-84 0 -132.5 15t-71.5 37t-28 47t-2 45h177q0 -5 2 -11.5t10 -13t24 -11t44 -4.5q29 0 46.5 2.5t27 7t12.5 9.5t3 11q0 11 -8 16t-29 5h-111l15 90h106q23 0 32 5.5t9 14.5q0 4 -2.5 8t-10.5 7t-23.5 4.5t-42.5 1.5
q-29 0 -45.5 -4t-25.5 -9t-11.5 -10t-2.5 -8h-174q3 16 10 38t32 42t73 34t132 14h33q81 0 129 -8t73.5 -20.5t33 -29t7.5 -33.5q0 -18 -8 -30.5t-20.5 -21t-27.5 -13t-29 -6.5q31 -6 53.5 -25t22.5 -57q0 -18 -7 -41.5t-34.5 -45.5t-81 -37t-146.5 -15h-33zM1026 375
q76 0 123 -7.5t73.5 -20.5t35.5 -30t9 -36t-8.5 -33.5t-23 -25t-33 -17.5t-38.5 -10q35 -7 60.5 -26.5t25.5 -55.5q0 -18 -8.5 -39t-36.5 -39t-81 -30t-142 -12h-24q-78 0 -127 9t-76.5 24t-37.5 34t-10 39q0 21 9 37.5t25 28.5t36.5 19.5t44.5 10.5q-14 3 -27.5 9
t-24.5 15.5t-18 22t-7 28.5t7 34t33 34t77 26.5t139 10.5h25zM1079 263q0 5 -2.5 10t-10.5 8.5t-22 5.5t-38 2q-26 0 -42 -2.5t-24 -7t-10.5 -9.5t-2.5 -10q0 -11 13.5 -18.5t58.5 -7.5q26 0 41.5 2.5t24 7t11.5 9.5t3 10zM896 119q0 -6 3 -11t12 -9.5t24.5 -7t40.5 -2.5
q30 0 47.5 3t27 8t12.5 11t3 12q0 5 -3 10t-12 9t-25 6.5t-41 2.5q-29 0 -46.5 -3t-27 -7.5t-12.5 -10t-3 -11.5z" />
    <glyph glyph-name="fiveeighths" unicode="&#x215d;" horiz-adv-x="1270" 
d="M1151 744l-860 -744h-184l855 744h189zM275 369q-83 0 -129 13t-68 32t-26 40.5t-2 38.5h177q0 -2 2 -6t9 -8.5t21 -8t39 -3.5t40 3.5t23 9.5t11 13.5t3 14.5q0 14 -14 23.5t-54 9.5q-24 0 -38.5 -3.5t-23 -7.5t-11.5 -8.5t-4 -5.5h-170l36 228h470l-15 -95h-300l-9 -57
q3 2 12.5 7.5t27 11t44 10t63.5 4.5h3q51 0 83.5 -9t50.5 -24.5t24.5 -36t6.5 -42.5q0 -24 -9.5 -49.5t-36.5 -46.5t-75 -34.5t-126 -13.5h-35zM1005 375q76 0 123 -7.5t73.5 -20.5t35.5 -30t9 -36t-8.5 -33.5t-23 -25t-33 -17.5t-38.5 -10q35 -7 60.5 -26.5t25.5 -55.5
q0 -18 -8.5 -39t-36.5 -39t-81 -30t-142 -12h-24q-78 0 -127 9t-76.5 24t-37.5 34t-10 39q0 21 9 37.5t25 28.5t36.5 19.5t44.5 10.5q-14 3 -27.5 9t-24.5 15.5t-18 22t-7 28.5t7 34t33 34t77 26.5t139 10.5h25zM1058 263q0 5 -2.5 10t-10.5 8.5t-22 5.5t-38 2
q-26 0 -42 -2.5t-24 -7t-10.5 -9.5t-2.5 -10q0 -11 13.5 -18.5t58.5 -7.5q26 0 41.5 2.5t24 7t11.5 9.5t3 10zM875 119q0 -6 3 -11t12 -9.5t24.5 -7t40.5 -2.5q30 0 47.5 3t27 8t12.5 11t3 12q0 5 -3 10t-12 9t-25 6.5t-41 2.5q-29 0 -46.5 -3t-27 -7.5t-12.5 -10t-3 -11.5z
" />
    <glyph glyph-name="twothirds" unicode="&#x2154;" horiz-adv-x="1296" 
d="M21 376l7 48q4 27 14.5 52.5t38 48t78 41.5t134.5 32q30 5 49 9t29.5 8.5t14.5 8.5t4 9q0 10 -12 17t-53 7q-27 0 -43 -4.5t-24.5 -11.5t-12 -14t-4.5 -13h-177q3 19 11 43t34 45t75.5 35.5t133.5 14.5h18q76 0 123 -9.5t72.5 -25t34.5 -36.5t9 -44q0 -26 -11.5 -45.5
t-38 -34t-69 -24t-103.5 -14.5q-72 -7 -115.5 -14t-53.5 -19h365l-17 -110h-511zM1186 744l-860 -744h-184l855 744h189zM953 -7q-84 0 -132.5 15t-71.5 37t-28 47t-2 45h177q0 -5 2 -11.5t10 -13t24 -11t44 -4.5q29 0 46.5 2.5t27 7t12.5 9.5t3 11q0 11 -8 16t-29 5h-111
l15 90h106q23 0 32 5.5t9 14.5q0 4 -2.5 8t-10.5 7t-23.5 4.5t-42.5 1.5q-29 0 -45.5 -4t-25.5 -9t-11.5 -10t-2.5 -8h-174q3 16 10 38t32 42t73 34t132 14h33q81 0 129 -8t73.5 -20.5t33 -29t7.5 -33.5q0 -18 -8 -30.5t-20.5 -21t-27.5 -13t-29 -6.5q31 -6 53.5 -25
t22.5 -57q0 -18 -7 -41.5t-34.5 -45.5t-81 -37t-146.5 -15h-33z" />
    <glyph glyph-name="seveneighths" unicode="&#x215e;" horiz-adv-x="1191" 
d="M201 376l7 46q4 24 11 42t19.5 34t33 32.5t50.5 37.5q48 33 70.5 49.5t23.5 24.5h-171l-12 -72h-172l28 174h507l-15 -94q-10 -9 -39.5 -36t-60.5 -62q-21 -24 -34 -44t-20.5 -40t-12 -42t-7.5 -50h-206zM1075 744l-860 -744h-184l855 744h189zM929 375q76 0 123 -7.5
t73.5 -20.5t35.5 -30t9 -36t-8.5 -33.5t-23 -25t-33 -17.5t-38.5 -10q35 -7 60.5 -26.5t25.5 -55.5q0 -18 -8.5 -39t-36.5 -39t-81 -30t-142 -12h-24q-78 0 -127 9t-76.5 24t-37.5 34t-10 39q0 21 9 37.5t25 28.5t36.5 19.5t44.5 10.5q-14 3 -27.5 9t-24.5 15.5t-18 22
t-7 28.5t7 34t33 34t77 26.5t139 10.5h25zM982 263q0 5 -2.5 10t-10.5 8.5t-22 5.5t-38 2q-26 0 -42 -2.5t-24 -7t-10.5 -9.5t-2.5 -10q0 -11 13.5 -18.5t58.5 -7.5q26 0 41.5 2.5t24 7t11.5 9.5t3 10zM799 119q0 -6 3 -11t12 -9.5t24.5 -7t40.5 -2.5q30 0 47.5 3t27 8
t12.5 11t3 12q0 5 -3 10t-12 9t-25 6.5t-41 2.5q-29 0 -46.5 -3t-27 -7.5t-12.5 -10t-3 -11.5z" />
    <glyph glyph-name="uni2032" unicode="&#x2032;" horiz-adv-x="277" 
d="M248 482h-207l92 262h208z" />
    <glyph glyph-name="uni2033" unicode="&#x2033;" horiz-adv-x="522" 
d="M247 482h-206l92 262h206zM288 482l92 262h206l-92 -262h-206z" />
    <glyph glyph-name="uni24C5" unicode="&#x24c5;" horiz-adv-x="1189" 
d="M1180 359q0 -48 -10.5 -94.5t-35.5 -87.5t-66.5 -76t-103.5 -60t-146.5 -39t-195.5 -14h-23q-167 0 -275 31t-171 82.5t-88 118.5t-25 139v28q0 70 24.5 136.5t87.5 118.5t171 83t275 31h24q111 0 196 -14.5t147 -40t103.5 -60t66 -75.5t35 -86.5t10.5 -92.5v-28zM621 82
q124 0 206 22.5t130.5 61t68.5 90t20 108.5v17q0 61 -20 113t-68.5 89.5t-130.5 58.5t-206 21h-21q-125 0 -207 -21t-130.5 -58.5t-68.5 -89.5t-20 -113v-17q0 -57 20 -108.5t68.5 -90t130.5 -61t207 -22.5h21zM550 267v-109h-208v432h360q74 0 121.5 -12t74.5 -33t37 -49.5
t10 -61.5v-10q0 -33 -10.5 -61.5t-38 -50t-74.5 -33.5t-120 -12h-152zM550 383h128q59 0 59 44v3q0 43 -59 43h-128v-90z" />
    <glyph glyph-name="zero.num" horiz-adv-x="613" 
d="M646 583q0 -36 -12 -74t-45 -69t-91 -51t-149 -20h-23q-81 0 -133 15.5t-81 40t-40 55t-11 60.5q0 33 11.5 70t43.5 68.5t90 52.5t151 21h23q81 0 132.5 -15.5t81.5 -39.5t41 -54t11 -60zM455 576q0 12 -4 24t-14 21.5t-28 15t-45 5.5q-36 0 -58.5 -10t-35 -24
t-16.5 -30.5t-4 -28.5t4 -24.5t14.5 -22.5t27.5 -16t44 -6q37 0 59.5 10.5t35 25.5t16.5 31.5t4 28.5z" />
    <glyph glyph-name="one.num" horiz-adv-x="328" 
d="M64 581l15 92q30 1 52.5 7t38.5 15.5t27 22t19 26.5h154l-58 -368h-182l32 205h-98z" />
    <glyph glyph-name="two.num" horiz-adv-x="542" 
d="M30 376l7 48q4 27 14.5 52.5t38 48t78 41.5t134.5 32q30 5 49 9t29.5 8.5t14.5 8.5t4 9q0 10 -12 17t-53 7q-27 0 -43 -4.5t-24.5 -11.5t-12 -14t-4.5 -13h-177q3 19 11 43t34 45t75.5 35.5t133.5 14.5h18q76 0 123 -9.5t72.5 -25t34.5 -36.5t9 -44q0 -26 -11.5 -45.5
t-38 -34t-69 -24t-103.5 -14.5q-72 -7 -115.5 -14t-53.5 -19h365l-17 -110h-511z" />
    <glyph glyph-name="three.num" horiz-adv-x="557" 
d="M281 369q-84 0 -132.5 15t-71.5 37t-28 47t-2 45h177q0 -5 2 -11.5t10 -13t24 -11t44 -4.5q29 0 46.5 2.5t27 7t12.5 9.5t3 11q0 11 -8 16t-29 5h-111l15 90h106q23 0 32 5.5t9 14.5q0 4 -2.5 8t-10.5 7t-23.5 4.5t-42.5 1.5q-29 0 -45.5 -4t-25.5 -9t-11.5 -10t-2.5 -8
h-174q3 16 10 38t32 42t73 34t132 14h33q81 0 129 -8t73.5 -20.5t33 -29t7.5 -33.5q0 -18 -8 -30.5t-20.5 -21t-27.5 -13t-29 -6.5q31 -6 53.5 -25t22.5 -57q0 -18 -7 -41.5t-34.5 -45.5t-81 -37t-146.5 -15h-33z" />
    <glyph glyph-name="four.num" horiz-adv-x="545" 
d="M333 745h203l-30 -190h74l-17 -107h-73l-12 -72h-180l11 72h-265l15 95zM326 555l16 101l-138 -101h122z" />
    <glyph glyph-name="five.num" horiz-adv-x="538" 
d="M282 369q-83 0 -129 13t-68 32t-26 40.5t-2 38.5h177q0 -2 2 -6t9 -8.5t21 -8t39 -3.5t40 3.5t23 9.5t11 13.5t3 14.5q0 14 -14 23.5t-54 9.5q-24 0 -38.5 -3.5t-23 -7.5t-11.5 -8.5t-4 -5.5h-170l36 228h470l-15 -95h-300l-9 -57q3 2 12.5 7.5t27 11t44 10t63.5 4.5h3
q51 0 83.5 -9t50.5 -24.5t24.5 -36t6.5 -42.5q0 -24 -9.5 -49.5t-36.5 -46.5t-75 -34.5t-126 -13.5h-35z" />
    <glyph glyph-name="six.num" horiz-adv-x="583" 
d="M250 576q3 2 13.5 8t29.5 12t47 10.5t67 4.5h6q62 0 100.5 -8t60 -22t29 -33t7.5 -41t-8.5 -46t-37 -44.5t-81.5 -34t-141 -13.5h-32q-70 0 -117.5 12.5t-76.5 34.5t-41.5 53t-12.5 68q0 35 11.5 73t42.5 69.5t85.5 52t140.5 20.5h27q79 0 127.5 -11t74 -29t33.5 -40
t7 -44h-177q-1 3 -4 7t-11 8.5t-23.5 7.5t-40.5 3q-31 0 -51 -8t-32 -20t-16.5 -25.5t-5.5 -24.5zM422 502q0 12 -15.5 21t-65.5 9q-31 0 -49 -4t-27.5 -9.5t-12.5 -12t-3 -11.5q0 -12 16 -21.5t66 -9.5q31 0 49 4t27.5 10t12 12.5t2.5 11.5z" />
    <glyph glyph-name="seven.num" horiz-adv-x="537" 
d="M204 376l7 46q4 24 11 42t19.5 34t33 32.5t50.5 37.5q48 33 70.5 49.5t23.5 24.5h-171l-12 -72h-172l28 174h507l-15 -94q-10 -9 -39.5 -36t-60.5 -62q-21 -24 -34 -44t-20.5 -40t-12 -42t-7.5 -50h-206z" />
    <glyph glyph-name="eight.num" horiz-adv-x="562" 
d="M362 751q76 0 123 -7.5t73.5 -20.5t35.5 -30t9 -36t-8.5 -33.5t-23 -25t-33 -17.5t-38.5 -10q35 -7 60.5 -26.5t25.5 -55.5q0 -18 -8.5 -39t-36.5 -39t-81 -30t-142 -12h-24q-78 0 -127 9t-76.5 24t-37.5 34t-10 39q0 21 9 37.5t25 28.5t36.5 19.5t44.5 10.5
q-14 3 -27.5 9t-24.5 15.5t-18 22t-7 28.5t7 34t33 34t77 26.5t139 10.5h25zM415 639q0 5 -2.5 10t-10.5 8.5t-22 5.5t-38 2q-26 0 -42 -2.5t-24 -7t-10.5 -9.5t-2.5 -10q0 -11 13.5 -18.5t58.5 -7.5q26 0 41.5 2.5t24 7t11.5 9.5t3 10zM232 495q0 -6 3 -11t12 -9.5t24.5 -7
t40.5 -2.5q30 0 47.5 3t27 8t12.5 11t3 12q0 5 -3 10t-12 9t-25 6.5t-41 2.5q-29 0 -46.5 -3t-27 -7.5t-12.5 -10t-3 -11.5z" />
    <glyph glyph-name="nine.num" horiz-adv-x="582" 
d="M255 619q0 -6 3 -11t12 -9.5t24.5 -7t41.5 -2.5q31 0 49.5 4t28 9.5t12 12t2.5 11.5q0 12 -16 21t-66 9q-31 0 -49 -3.5t-27.5 -9t-12 -12t-2.5 -12.5zM428 545q-4 -3 -13.5 -9t-27.5 -11.5t-45 -10t-65 -4.5h-5q-64 0 -104 9t-62.5 24t-30.5 34.5t-8 41.5t8.5 45.5
t35.5 43t78 32t136 12.5h32q71 0 120.5 -12.5t80 -35t44 -54t13.5 -69.5q0 -36 -11 -73.5t-41.5 -68t-84.5 -50.5t-139 -20h-28q-79 0 -127.5 11t-75 28.5t-35 39.5t-8.5 44h178q1 -2 3.5 -6t11 -8.5t23.5 -8t40 -3.5q31 0 51.5 8.5t32 20.5t16.5 25.5t7 24.5z" />
    <glyph glyph-name="zero.den" horiz-adv-x="613" 
d="M587 207q0 -36 -12 -74t-45 -69t-91 -51t-149 -20h-23q-81 0 -133 15.5t-81 40t-40 55t-11 60.5q0 33 11.5 70t43.5 68.5t90 52.5t151 21h23q81 0 132.5 -15.5t81.5 -39.5t41 -54t11 -60zM396 200q0 12 -4 24t-14 21.5t-28 15t-45 5.5q-36 0 -58.5 -10t-35 -24
t-16.5 -30.5t-4 -28.5t4 -24.5t14.5 -22.5t27.5 -16t44 -6q37 0 59.5 10.5t35 25.5t16.5 31.5t4 28.5z" />
    <glyph glyph-name="one.den" horiz-adv-x="328" 
d="M6 205l15 92q30 1 52.5 7t38.5 15.5t27 22t19 26.5h154l-58 -368h-182l32 205h-98z" />
    <glyph glyph-name="two.den" horiz-adv-x="542" 
d="M-28 0l7 48q4 27 14.5 52.5t38 48t78 41.5t134.5 32q30 5 49 9t29.5 8.5t14.5 8.5t4 9q0 10 -12 17t-53 7q-27 0 -43 -4.5t-24.5 -11.5t-12 -14t-4.5 -13h-177q3 19 11 43t34 45t75.5 35.5t133.5 14.5h18q76 0 123 -9.5t72.5 -25t34.5 -36.5t9 -44q0 -26 -11.5 -45.5
t-38 -34t-69 -24t-103.5 -14.5q-72 -7 -115.5 -14t-53.5 -19h365l-17 -110h-511z" />
    <glyph glyph-name="three.den" horiz-adv-x="557" 
d="M223 -7q-84 0 -132.5 15t-71.5 37t-28 47t-2 45h177q0 -5 2 -11.5t10 -13t24 -11t44 -4.5q29 0 46.5 2.5t27 7t12.5 9.5t3 11q0 11 -8 16t-29 5h-111l15 90h106q23 0 32 5.5t9 14.5q0 4 -2.5 8t-10.5 7t-23.5 4.5t-42.5 1.5q-29 0 -45.5 -4t-25.5 -9t-11.5 -10t-2.5 -8
h-174q3 16 10 38t32 42t73 34t132 14h33q81 0 129 -8t73.5 -20.5t33 -29t7.5 -33.5q0 -18 -8 -30.5t-20.5 -21t-27.5 -13t-29 -6.5q31 -6 53.5 -25t22.5 -57q0 -18 -7 -41.5t-34.5 -45.5t-81 -37t-146.5 -15h-33z" />
    <glyph glyph-name="four.den" horiz-adv-x="545" 
d="M275 369h203l-30 -190h74l-17 -107h-73l-12 -72h-180l11 72h-265l15 95zM268 179l16 101l-138 -101h122z" />
    <glyph glyph-name="five.den" horiz-adv-x="538" 
d="M224 -7q-83 0 -129 13t-68 32t-26 40.5t-2 38.5h177q0 -2 2 -6t9 -8.5t21 -8t39 -3.5t40 3.5t23 9.5t11 13.5t3 14.5q0 14 -14 23.5t-54 9.5q-24 0 -38.5 -3.5t-23 -7.5t-11.5 -8.5t-4 -5.5h-170l36 228h470l-15 -95h-300l-9 -57q3 2 12.5 7.5t27 11t44 10t63.5 4.5h3
q51 0 83.5 -9t50.5 -24.5t24.5 -36t6.5 -42.5q0 -24 -9.5 -49.5t-36.5 -46.5t-75 -34.5t-126 -13.5h-35z" />
    <glyph glyph-name="six.den" horiz-adv-x="582" 
d="M192 200q3 2 13.5 8t29.5 12t47 10.5t67 4.5h6q62 0 100.5 -8t60 -22t29 -33t7.5 -41t-8.5 -46t-37 -44.5t-81.5 -34t-141 -13.5h-32q-70 0 -117.5 12.5t-76.5 34.5t-41.5 53t-12.5 68q0 35 11.5 73t42.5 69.5t85.5 52t140.5 20.5h27q79 0 127.5 -11t74 -29t33.5 -40
t7 -44h-177q-1 3 -4 7t-11 8.5t-23.5 7.5t-40.5 3q-31 0 -51 -8t-32 -20t-16.5 -25.5t-5.5 -24.5zM364 126q0 12 -15.5 21t-65.5 9q-31 0 -49 -4t-27.5 -9.5t-12.5 -12t-3 -11.5q0 -12 16 -21.5t66 -9.5q31 0 49 4t27.5 10t12 12.5t2.5 11.5z" />
    <glyph glyph-name="seven.den" horiz-adv-x="537" 
d="M146 0l7 46q4 24 11 42t19.5 34t33 32.5t50.5 37.5q48 33 70.5 49.5t23.5 24.5h-171l-12 -72h-172l28 174h507l-15 -94q-10 -9 -39.5 -36t-60.5 -62q-21 -24 -34 -44t-20.5 -40t-12 -42t-7.5 -50h-206z" />
    <glyph glyph-name="eight.den" horiz-adv-x="562" 
d="M304 375q76 0 123 -7.5t73.5 -20.5t35.5 -30t9 -36t-8.5 -33.5t-23 -25t-33 -17.5t-38.5 -10q35 -7 60.5 -26.5t25.5 -55.5q0 -18 -8.5 -39t-36.5 -39t-81 -30t-142 -12h-24q-78 0 -127 9t-76.5 24t-37.5 34t-10 39q0 21 9 37.5t25 28.5t36.5 19.5t44.5 10.5
q-14 3 -27.5 9t-24.5 15.5t-18 22t-7 28.5t7 34t33 34t77 26.5t139 10.5h25zM357 263q0 5 -2.5 10t-10.5 8.5t-22 5.5t-38 2q-26 0 -42 -2.5t-24 -7t-10.5 -9.5t-2.5 -10q0 -11 13.5 -18.5t58.5 -7.5q26 0 41.5 2.5t24 7t11.5 9.5t3 10zM174 119q0 -6 3 -11t12 -9.5t24.5 -7
t40.5 -2.5q30 0 47.5 3t27 8t12.5 11t3 12q0 5 -3 10t-12 9t-25 6.5t-41 2.5q-29 0 -46.5 -3t-27 -7.5t-12.5 -10t-3 -11.5z" />
    <glyph glyph-name="nine.den" horiz-adv-x="582" 
d="M197 243q0 -6 3 -11t12 -9.5t24.5 -7t41.5 -2.5q31 0 49.5 4t28 9.5t12 12t2.5 11.5q0 12 -16 21t-66 9q-31 0 -49 -3.5t-27.5 -9t-12 -12t-2.5 -12.5zM370 169q-4 -3 -13.5 -9t-27.5 -11.5t-45 -10t-65 -4.5h-5q-64 0 -104 9t-62.5 24t-30.5 34.5t-8 41.5t8.5 45.5
t35.5 43t78 32t136 12.5h32q71 0 120.5 -12.5t80 -35t44 -54t13.5 -69.5q0 -36 -11 -73.5t-41.5 -68t-84.5 -50.5t-139 -20h-28q-79 0 -127.5 11t-75 28.5t-35 39.5t-8.5 44h178q1 -2 3.5 -6t11 -8.5t23.5 -8t40 -3.5q31 0 51.5 8.5t32 20.5t16.5 25.5t7 24.5z" />
    <glyph glyph-name="zero.sub" horiz-adv-x="613" 
d="M573 111q0 -36 -12 -74t-45 -69t-91 -51t-149 -20h-23q-81 0 -133 15.5t-81 40t-40 55t-11 60.5q0 33 11.5 70t43.5 68.5t90 52.5t151 21h23q81 0 132.5 -15.5t81.5 -39.5t41 -54t11 -60zM382 104q0 12 -4 24t-14 21.5t-28 15t-45 5.5q-36 0 -58.5 -10t-35 -24
t-16.5 -30.5t-4 -28.5t4 -24.5t14.5 -22.5t27.5 -16t44 -6q37 0 59.5 10.5t35 25.5t16.5 31.5t4 28.5z" />
    <glyph glyph-name="one.sub" horiz-adv-x="328" 
d="M-8 109l15 92q30 1 52.5 7t38.5 15.5t27 22t19 26.5h154l-58 -368h-182l32 205h-98z" />
    <glyph glyph-name="two.sub" horiz-adv-x="542" 
d="M-42 -96l7 48q4 27 14.5 52.5t38 48t78 41.5t134.5 32q30 5 49 9t29.5 8.5t14.5 8.5t4 9q0 10 -12 17t-53 7q-27 0 -43 -4.5t-24.5 -11.5t-12 -14t-4.5 -13h-177q3 19 11 43t34 45t75.5 35.5t133.5 14.5h18q76 0 123 -9.5t72.5 -25t34.5 -36.5t9 -44q0 -26 -11.5 -45.5
t-38 -34t-69 -24t-103.5 -14.5q-72 -7 -115.5 -14t-53.5 -19h365l-17 -110h-511z" />
    <glyph glyph-name="three.sub" horiz-adv-x="557" 
d="M209 -103q-84 0 -132.5 15t-71.5 37t-28 47t-2 45h177q0 -5 2 -11.5t10 -13t24 -11t44 -4.5q29 0 46.5 2.5t27 7t12.5 9.5t3 11q0 11 -8 16t-29 5h-111l15 90h106q23 0 32 5.5t9 14.5q0 4 -2.5 8t-10.5 7t-23.5 4.5t-42.5 1.5q-29 0 -45.5 -4t-25.5 -9t-11.5 -10t-2.5 -8
h-174q3 16 10 38t32 42t73 34t132 14h33q81 0 129 -8t73.5 -20.5t33 -29t7.5 -33.5q0 -18 -8 -30.5t-20.5 -21t-27.5 -13t-29 -6.5q31 -6 53.5 -25t22.5 -57q0 -18 -7 -41.5t-34.5 -45.5t-81 -37t-146.5 -15h-33z" />
    <glyph glyph-name="four.sub" horiz-adv-x="545" 
d="M261 273h203l-30 -190h74l-17 -107h-73l-12 -72h-180l11 72h-265l15 95zM254 83l16 101l-138 -101h122z" />
    <glyph glyph-name="five.sub" horiz-adv-x="538" 
d="M210 -103q-83 0 -129 13t-68 32t-26 40.5t-2 38.5h177q0 -2 2 -6t9 -8.5t21 -8t39 -3.5t40 3.5t23 9.5t11 13.5t3 14.5q0 14 -14 23.5t-54 9.5q-24 0 -38.5 -3.5t-23 -7.5t-11.5 -8.5t-4 -5.5h-170l36 228h470l-15 -95h-300l-9 -57q3 2 12.5 7.5t27 11t44 10t63.5 4.5h3
q51 0 83.5 -9t50.5 -24.5t24.5 -36t6.5 -42.5q0 -24 -9.5 -49.5t-36.5 -46.5t-75 -34.5t-126 -13.5h-35z" />
    <glyph glyph-name="six.sub" horiz-adv-x="582" 
d="M178 104q3 2 13.5 8t29.5 12t47 10.5t67 4.5h6q62 0 100.5 -8t60 -22t29 -33t7.5 -41t-8.5 -46t-37 -44.5t-81.5 -34t-141 -13.5h-32q-70 0 -117.5 12.5t-76.5 34.5t-41.5 53t-12.5 68q0 35 11.5 73t42.5 69.5t85.5 52t140.5 20.5h27q79 0 127.5 -11t74 -29t33.5 -40
t7 -44h-177q-1 3 -4 7t-11 8.5t-23.5 7.5t-40.5 3q-31 0 -51 -8t-32 -20t-16.5 -25.5t-5.5 -24.5zM350 30q0 12 -15.5 21t-65.5 9q-31 0 -49 -4t-27.5 -9.5t-12.5 -12t-3 -11.5q0 -12 16 -21.5t66 -9.5q31 0 49 4t27.5 10t12 12.5t2.5 11.5z" />
    <glyph glyph-name="seven.sub" horiz-adv-x="537" 
d="M132 -96l7 46q4 24 11 42t19.5 34t33 32.5t50.5 37.5q48 33 70.5 49.5t23.5 24.5h-171l-12 -72h-172l28 174h507l-15 -94q-10 -9 -39.5 -36t-60.5 -62q-21 -24 -34 -44t-20.5 -40t-12 -42t-7.5 -50h-206z" />
    <glyph glyph-name="eight.sub" horiz-adv-x="562" 
d="M291 279q76 0 123 -7.5t73.5 -20.5t35.5 -30t9 -36t-8.5 -33.5t-23 -25t-33 -17.5t-38.5 -10q35 -7 60.5 -26.5t25.5 -55.5q0 -18 -8.5 -39t-36.5 -39t-81 -30t-142 -12h-24q-78 0 -127 9t-76.5 24t-37.5 34t-10 39q0 21 9 37.5t25 28.5t36.5 19.5t44.5 10.5
q-14 3 -27.5 9t-24.5 15.5t-18 22t-7 28.5t7 34t33 34t77 26.5t139 10.5h25zM344 167q0 5 -2.5 10t-10.5 8.5t-22 5.5t-38 2q-26 0 -42 -2.5t-24 -7t-10.5 -9.5t-2.5 -10q0 -11 13.5 -18.5t58.5 -7.5q26 0 41.5 2.5t24 7t11.5 9.5t3 10zM161 23q0 -6 3 -11t12 -9.5t24.5 -7
t40.5 -2.5q30 0 47.5 3t27 8t12.5 11t3 12q0 5 -3 10t-12 9t-25 6.5t-41 2.5q-29 0 -46.5 -3t-27 -7.5t-12.5 -10t-3 -11.5z" />
    <glyph glyph-name="nine.sub" horiz-adv-x="582" 
d="M182 147q0 -6 3 -11t12 -9.5t24.5 -7t41.5 -2.5q31 0 49.5 4t28 9.5t12 12t2.5 11.5q0 12 -16 21t-66 9q-31 0 -49 -3.5t-27.5 -9t-12 -12t-2.5 -12.5zM355 73q-4 -3 -13.5 -9t-27.5 -11.5t-45 -10t-65 -4.5h-5q-64 0 -104 9t-62.5 24t-30.5 34.5t-8 41.5t8.5 45.5
t35.5 43t78 32t136 12.5h32q71 0 120.5 -12.5t80 -35t44 -54t13.5 -69.5q0 -36 -11 -73.5t-41.5 -68t-84.5 -50.5t-139 -20h-28q-79 0 -127.5 11t-75 28.5t-35 39.5t-8.5 44h178q1 -2 3.5 -6t11 -8.5t23.5 -8t40 -3.5q31 0 51.5 8.5t32 20.5t16.5 25.5t7 24.5z" />
    <glyph glyph-name="zero.sup" horiz-adv-x="613" 
d="M646 583q0 -36 -12 -74t-45 -69t-91 -51t-149 -20h-23q-81 0 -133 15.5t-81 40t-40 55t-11 60.5q0 33 11.5 70t43.5 68.5t90 52.5t151 21h23q81 0 132.5 -15.5t81.5 -39.5t41 -54t11 -60zM455 576q0 12 -4 24t-14 21.5t-28 15t-45 5.5q-36 0 -58.5 -10t-35 -24
t-16.5 -30.5t-4 -28.5t4 -24.5t14.5 -22.5t27.5 -16t44 -6q37 0 59.5 10.5t35 25.5t16.5 31.5t4 28.5z" />
    <glyph glyph-name="one.sup" horiz-adv-x="328" 
d="M64 581l15 92q30 1 52.5 7t38.5 15.5t27 22t19 26.5h154l-58 -368h-182l32 205h-98z" />
    <glyph glyph-name="two.sup" horiz-adv-x="542" 
d="M30 376l7 48q4 27 14.5 52.5t38 48t78 41.5t134.5 32q30 5 49 9t29.5 8.5t14.5 8.5t4 9q0 10 -12 17t-53 7q-27 0 -43 -4.5t-24.5 -11.5t-12 -14t-4.5 -13h-177q3 19 11 43t34 45t75.5 35.5t133.5 14.5h18q76 0 123 -9.5t72.5 -25t34.5 -36.5t9 -44q0 -26 -11.5 -45.5
t-38 -34t-69 -24t-103.5 -14.5q-72 -7 -115.5 -14t-53.5 -19h365l-17 -110h-511z" />
    <glyph glyph-name="three.sup" horiz-adv-x="557" 
d="M281 369q-84 0 -132.5 15t-71.5 37t-28 47t-2 45h177q0 -5 2 -11.5t10 -13t24 -11t44 -4.5q29 0 46.5 2.5t27 7t12.5 9.5t3 11q0 11 -8 16t-29 5h-111l15 90h106q23 0 32 5.5t9 14.5q0 4 -2.5 8t-10.5 7t-23.5 4.5t-42.5 1.5q-29 0 -45.5 -4t-25.5 -9t-11.5 -10t-2.5 -8
h-174q3 16 10 38t32 42t73 34t132 14h33q81 0 129 -8t73.5 -20.5t33 -29t7.5 -33.5q0 -18 -8 -30.5t-20.5 -21t-27.5 -13t-29 -6.5q31 -6 53.5 -25t22.5 -57q0 -18 -7 -41.5t-34.5 -45.5t-81 -37t-146.5 -15h-33z" />
    <glyph glyph-name="four.sup" horiz-adv-x="545" 
d="M333 745h203l-30 -190h74l-17 -107h-73l-12 -72h-180l11 72h-265l15 95zM326 555l16 101l-138 -101h122z" />
    <glyph glyph-name="five.sup" horiz-adv-x="538" 
d="M282 369q-83 0 -129 13t-68 32t-26 40.5t-2 38.5h177q0 -2 2 -6t9 -8.5t21 -8t39 -3.5t40 3.5t23 9.5t11 13.5t3 14.5q0 14 -14 23.5t-54 9.5q-24 0 -38.5 -3.5t-23 -7.5t-11.5 -8.5t-4 -5.5h-170l36 228h470l-15 -95h-300l-9 -57q3 2 12.5 7.5t27 11t44 10t63.5 4.5h3
q51 0 83.5 -9t50.5 -24.5t24.5 -36t6.5 -42.5q0 -24 -9.5 -49.5t-36.5 -46.5t-75 -34.5t-126 -13.5h-35z" />
    <glyph glyph-name="six.sup" horiz-adv-x="583" 
d="M250 576q3 2 13.5 8t29.5 12t47 10.5t67 4.5h6q62 0 100.5 -8t60 -22t29 -33t7.5 -41t-8.5 -46t-37 -44.5t-81.5 -34t-141 -13.5h-32q-70 0 -117.5 12.5t-76.5 34.5t-41.5 53t-12.5 68q0 35 11.5 73t42.5 69.5t85.5 52t140.5 20.5h27q79 0 127.5 -11t74 -29t33.5 -40
t7 -44h-177q-1 3 -4 7t-11 8.5t-23.5 7.5t-40.5 3q-31 0 -51 -8t-32 -20t-16.5 -25.5t-5.5 -24.5zM422 502q0 12 -15.5 21t-65.5 9q-31 0 -49 -4t-27.5 -9.5t-12.5 -12t-3 -11.5q0 -12 16 -21.5t66 -9.5q31 0 49 4t27.5 10t12 12.5t2.5 11.5z" />
    <glyph glyph-name="seven.sup" horiz-adv-x="537" 
d="M204 376l7 46q4 24 11 42t19.5 34t33 32.5t50.5 37.5q48 33 70.5 49.5t23.5 24.5h-171l-12 -72h-172l28 174h507l-15 -94q-10 -9 -39.5 -36t-60.5 -62q-21 -24 -34 -44t-20.5 -40t-12 -42t-7.5 -50h-206z" />
    <glyph glyph-name="eight.sup" horiz-adv-x="562" 
d="M362 751q76 0 123 -7.5t73.5 -20.5t35.5 -30t9 -36t-8.5 -33.5t-23 -25t-33 -17.5t-38.5 -10q35 -7 60.5 -26.5t25.5 -55.5q0 -18 -8.5 -39t-36.5 -39t-81 -30t-142 -12h-24q-78 0 -127 9t-76.5 24t-37.5 34t-10 39q0 21 9 37.5t25 28.5t36.5 19.5t44.5 10.5
q-14 3 -27.5 9t-24.5 15.5t-18 22t-7 28.5t7 34t33 34t77 26.5t139 10.5h25zM415 639q0 5 -2.5 10t-10.5 8.5t-22 5.5t-38 2q-26 0 -42 -2.5t-24 -7t-10.5 -9.5t-2.5 -10q0 -11 13.5 -18.5t58.5 -7.5q26 0 41.5 2.5t24 7t11.5 9.5t3 10zM232 495q0 -6 3 -11t12 -9.5t24.5 -7
t40.5 -2.5q30 0 47.5 3t27 8t12.5 11t3 12q0 5 -3 10t-12 9t-25 6.5t-41 2.5q-29 0 -46.5 -3t-27 -7.5t-12.5 -10t-3 -11.5z" />
    <glyph glyph-name="nine.sup" horiz-adv-x="582" 
d="M255 619q0 -6 3 -11t12 -9.5t24.5 -7t41.5 -2.5q31 0 49.5 4t28 9.5t12 12t2.5 11.5q0 12 -16 21t-66 9q-31 0 -49 -3.5t-27.5 -9t-12 -12t-2.5 -12.5zM428 545q-4 -3 -13.5 -9t-27.5 -11.5t-45 -10t-65 -4.5h-5q-64 0 -104 9t-62.5 24t-30.5 34.5t-8 41.5t8.5 45.5
t35.5 43t78 32t136 12.5h32q71 0 120.5 -12.5t80 -35t44 -54t13.5 -69.5q0 -36 -11 -73.5t-41.5 -68t-84.5 -50.5t-139 -20h-28q-79 0 -127.5 11t-75 28.5t-35 39.5t-8.5 44h178q1 -2 3.5 -6t11 -8.5t23.5 -8t40 -3.5q31 0 51.5 8.5t32 20.5t16.5 25.5t7 24.5z" />
    <glyph glyph-name="J.alt" unicode="&#xe489;" horiz-adv-x="525" 
d="M18 212h97q27 0 44.5 6t28.5 19.5t17 34.5t11 51l67 421h277l-78 -488q-10 -65 -27 -113t-46.5 -80t-74.5 -47.5t-111 -15.5h-239z" />
    <glyph glyph-name="IJ.alt" horiz-adv-x="889" 
d="M281 0h-277l118 744h277zM381 212h97q27 0 44.5 6t28.5 19.5t17 34.5t11 51l67 421h277l-78 -488q-10 -65 -27 -113t-46.5 -80t-74.5 -47.5t-111 -15.5h-239z" />
    <glyph glyph-name="a.alt" unicode="&#xe4c0;" horiz-adv-x="806" 
d="M335 120q69 0 113.5 30.5t53.5 77.5l4 26l-179 -32q-41 -7 -56 -19.5t-15 -33.5q0 -18 16.5 -33.5t62.5 -15.5zM231 -10q-64 0 -108.5 12.5t-72 34.5t-39.5 50t-12 60q0 35 12 71t48 62q28 21 71 33.5t110 17.5l253 22q34 3 34 28q0 7 -3 14t-14.5 13t-33.5 9.5t-60 3.5
h-2q-42 0 -66.5 -6t-36.5 -15t-16 -18.5t-6 -15.5h-244q2 17 7 38t18 41.5t36 39.5t61 34t94.5 24t136.5 9h50q122 0 191.5 -17.5t103 -45t39 -62.5t0.5 -69l-28 -172q-9 -54 -12.5 -87.5t-4.5 -52.5t0 -27.5t2 -13.5l-1 -5h-252q-2 8 -3 25.5t2 46.5q-10 -11 -29 -25
t-49 -26.5t-71 -21.5t-95 -9h-10z" />
    <glyph glyph-name="a.alt2" horiz-adv-x="891" 
d="M417 142q39 0 68.5 10.5t50 27t32.5 36t16 36.5t4 34q0 21 -8.5 41.5t-25.5 36t-43.5 25t-62.5 9.5h-6q-43 0 -72 -12.5t-46.5 -33t-25 -46.5t-7.5 -52q0 -21 6.5 -41.5t20.5 -36t37.5 -25t56.5 -9.5h5zM558 79q-7 -8 -24.5 -23t-47 -29.5t-72.5 -25.5t-100 -11h-14
q-72 0 -125 18.5t-87.5 51t-51.5 77t-17 97.5q0 17 1.5 32.5t3.5 32.5q7 49 28.5 94.5t61.5 79.5t99 54.5t140 20.5h17q58 0 100.5 -9.5t72.5 -22.5t48.5 -26.5t27.5 -21.5l11 70h265l-86 -538h-264z" />
    <glyph glyph-name="r.alt" unicode="&#xe4d1;" horiz-adv-x="572" 
d="M261 0h-264l85 538h263l-21 -128q14 23 35.5 48t53 45.5t75.5 33.5t104 13l-39 -246q-9 2 -34 6.5t-67 4.5q-78 0 -114 -29.5t-44 -77.5z" />
    <glyph glyph-name="Jcircumflex.alt" horiz-adv-x="525" 
d="M571 944l137 -155h-226l-55 58l-66 -58h-235l173 155h272zM18 212h97q27 0 44.5 6t28.5 19.5t17 34.5t11 51l67 421h277l-78 -488q-10 -65 -27 -113t-46.5 -80t-74.5 -47.5t-111 -15.5h-239z" />
    <glyph glyph-name="aacute.alt" horiz-adv-x="806" 
d="M310 585l108 159h261l-129 -159h-240zM335 120q69 0 113.5 30.5t53.5 77.5l4 26l-179 -32q-41 -7 -56 -19.5t-15 -33.5q0 -18 16.5 -33.5t62.5 -15.5zM231 -10q-64 0 -108.5 12.5t-72 34.5t-39.5 50t-12 60q0 35 12 71t48 62q28 21 71 33.5t110 17.5l253 22q34 3 34 28
q0 7 -3 14t-14.5 13t-33.5 9.5t-60 3.5h-2q-42 0 -66.5 -6t-36.5 -15t-16 -18.5t-6 -15.5h-244q2 17 7 38t18 41.5t36 39.5t61 34t94.5 24t136.5 9h50q122 0 191.5 -17.5t103 -45t39 -62.5t0.5 -69l-28 -172q-9 -54 -12.5 -87.5t-4.5 -52.5t0 -27.5t2 -13.5l-1 -5h-252
q-2 8 -3 25.5t2 46.5q-10 -11 -29 -25t-49 -26.5t-71 -21.5t-95 -9h-10z" />
    <glyph glyph-name="aacute.alt2" horiz-adv-x="891" 
d="M353 583l108 161h261l-129 -161h-240zM417 142q39 0 68.5 10.5t50 27t32.5 36t16 36.5t4 34q0 21 -8.5 41.5t-25.5 36t-43.5 25t-62.5 9.5h-6q-43 0 -72 -12.5t-46.5 -33t-25 -46.5t-7.5 -52q0 -21 6.5 -41.5t20.5 -36t37.5 -25t56.5 -9.5h5zM558 79q-7 -8 -24.5 -23
t-47 -29.5t-72.5 -25.5t-100 -11h-14q-72 0 -125 18.5t-87.5 51t-51.5 77t-17 97.5q0 17 1.5 32.5t3.5 32.5q7 49 28.5 94.5t61.5 79.5t99 54.5t140 20.5h17q58 0 100.5 -9.5t72.5 -22.5t48.5 -26.5t27.5 -21.5l11 70h265l-86 -538h-264z" />
    <glyph glyph-name="abreve.alt" horiz-adv-x="806" 
d="M387 744q0 -5 2 -13t8 -15.5t17 -13t31 -5.5t33 5.5t20.5 13t10.5 15.5t4 13h174q-2 -22 -13 -50.5t-37.5 -54t-69.5 -43.5t-107 -18h-38q-71 0 -113 18t-64 43.5t-28 54.5t-4 50h174v0zM335 120q69 0 113.5 30.5t53.5 77.5l4 26l-179 -32q-41 -7 -56 -19.5t-15 -33.5
q0 -18 16.5 -33.5t62.5 -15.5zM231 -10q-64 0 -108.5 12.5t-72 34.5t-39.5 50t-12 60q0 35 12 71t48 62q28 21 71 33.5t110 17.5l253 22q34 3 34 28q0 7 -3 14t-14.5 13t-33.5 9.5t-60 3.5h-2q-42 0 -66.5 -6t-36.5 -15t-16 -18.5t-6 -15.5h-244q2 17 7 38t18 41.5t36 39.5
t61 34t94.5 24t136.5 9h50q122 0 191.5 -17.5t103 -45t39 -62.5t0.5 -69l-28 -172q-9 -54 -12.5 -87.5t-4.5 -52.5t0 -27.5t2 -13.5l-1 -5h-252q-2 8 -3 25.5t2 46.5q-10 -11 -29 -25t-49 -26.5t-71 -21.5t-95 -9h-10z" />
    <glyph glyph-name="abreve.alt2" horiz-adv-x="891" 
d="M417 142q39 0 68.5 10.5t50 27t32.5 36t16 36.5t4 34q0 21 -8.5 41.5t-25.5 36t-43.5 25t-62.5 9.5h-6q-43 0 -72 -12.5t-46.5 -33t-25 -46.5t-7.5 -52q0 -21 6.5 -41.5t20.5 -36t37.5 -25t56.5 -9.5h5zM558 79q-7 -8 -24.5 -23t-47 -29.5t-72.5 -25.5t-100 -11h-14
q-72 0 -125 18.5t-87.5 51t-51.5 77t-17 97.5q0 17 1.5 32.5t3.5 32.5q7 49 28.5 94.5t61.5 79.5t99 54.5t140 20.5h17q58 0 100.5 -9.5t72.5 -22.5t48.5 -26.5t27.5 -21.5l11 70h265l-86 -538h-264zM417 744q0 -5 1.5 -13.5t7.5 -16t17.5 -13t31.5 -5.5t33 5.5t20.5 13
t11 16t3.5 13.5h173q-1 -22 -12.5 -50.5t-37.5 -54.5t-69 -44t-107 -18h-39q-71 0 -113 18t-64 44t-27.5 54.5t-3.5 50.5h174v0z" />
    <glyph glyph-name="acircumflex.alt" horiz-adv-x="806" 
d="M721 584h-225l-48 64l-62 -64h-233l168 160h269zM335 120q69 0 113.5 30.5t53.5 77.5l4 26l-179 -32q-41 -7 -56 -19.5t-15 -33.5q0 -18 16.5 -33.5t62.5 -15.5zM231 -10q-64 0 -108.5 12.5t-72 34.5t-39.5 50t-12 60q0 35 12 71t48 62q28 21 71 33.5t110 17.5l253 22
q34 3 34 28q0 7 -3 14t-14.5 13t-33.5 9.5t-60 3.5h-2q-42 0 -66.5 -6t-36.5 -15t-16 -18.5t-6 -15.5h-244q2 17 7 38t18 41.5t36 39.5t61 34t94.5 24t136.5 9h50q122 0 191.5 -17.5t103 -45t39 -62.5t0.5 -69l-28 -172q-9 -54 -12.5 -87.5t-4.5 -52.5t0 -27.5t2 -13.5
l-1 -5h-252q-2 8 -3 25.5t2 46.5q-10 -11 -29 -25t-49 -26.5t-71 -21.5t-95 -9h-10z" />
    <glyph glyph-name="acircumflex.alt2" horiz-adv-x="891" 
d="M757 582h-225l-49 66l-61 -66h-234l169 162h269zM417 142q39 0 68.5 10.5t50 27t32.5 36t16 36.5t4 34q0 21 -8.5 41.5t-25.5 36t-43.5 25t-62.5 9.5h-6q-43 0 -72 -12.5t-46.5 -33t-25 -46.5t-7.5 -52q0 -21 6.5 -41.5t20.5 -36t37.5 -25t56.5 -9.5h5zM558 79
q-7 -8 -24.5 -23t-47 -29.5t-72.5 -25.5t-100 -11h-14q-72 0 -125 18.5t-87.5 51t-51.5 77t-17 97.5q0 17 1.5 32.5t3.5 32.5q7 49 28.5 94.5t61.5 79.5t99 54.5t140 20.5h17q58 0 100.5 -9.5t72.5 -22.5t48.5 -26.5t27.5 -21.5l11 70h265l-86 -538h-264z" />
    <glyph glyph-name="adieresis.alt" horiz-adv-x="806" 
d="M414 585h-232l25 159h232zM692 585h-233l25 159h233zM335 120q69 0 113.5 30.5t53.5 77.5l4 26l-179 -32q-41 -7 -56 -19.5t-15 -33.5q0 -18 16.5 -33.5t62.5 -15.5zM231 -10q-64 0 -108.5 12.5t-72 34.5t-39.5 50t-12 60q0 35 12 71t48 62q28 21 71 33.5t110 17.5
l253 22q34 3 34 28q0 7 -3 14t-14.5 13t-33.5 9.5t-60 3.5h-2q-42 0 -66.5 -6t-36.5 -15t-16 -18.5t-6 -15.5h-244q2 17 7 38t18 41.5t36 39.5t61 34t94.5 24t136.5 9h50q122 0 191.5 -17.5t103 -45t39 -62.5t0.5 -69l-28 -172q-9 -54 -12.5 -87.5t-4.5 -52.5t0 -27.5
t2 -13.5l-1 -5h-252q-2 8 -3 25.5t2 46.5q-10 -11 -29 -25t-49 -26.5t-71 -21.5t-95 -9h-10z" />
    <glyph glyph-name="adieresis.alt2" horiz-adv-x="891" 
d="M450 583h-232l25 161h233zM728 583h-233l25 161h233zM417 142q39 0 68.5 10.5t50 27t32.5 36t16 36.5t4 34q0 21 -8.5 41.5t-25.5 36t-43.5 25t-62.5 9.5h-6q-43 0 -72 -12.5t-46.5 -33t-25 -46.5t-7.5 -52q0 -21 6.5 -41.5t20.5 -36t37.5 -25t56.5 -9.5h5zM558 79
q-7 -8 -24.5 -23t-47 -29.5t-72.5 -25.5t-100 -11h-14q-72 0 -125 18.5t-87.5 51t-51.5 77t-17 97.5q0 17 1.5 32.5t3.5 32.5q7 49 28.5 94.5t61.5 79.5t99 54.5t140 20.5h17q58 0 100.5 -9.5t72.5 -22.5t48.5 -26.5t27.5 -21.5l11 70h265l-86 -538h-264z" />
    <glyph glyph-name="agrave.alt" horiz-adv-x="806" 
d="M553 585h-241l-87 159h263zM335 120q69 0 113.5 30.5t53.5 77.5l4 26l-179 -32q-41 -7 -56 -19.5t-15 -33.5q0 -18 16.5 -33.5t62.5 -15.5zM231 -10q-64 0 -108.5 12.5t-72 34.5t-39.5 50t-12 60q0 35 12 71t48 62q28 21 71 33.5t110 17.5l253 22q34 3 34 28q0 7 -3 14
t-14.5 13t-33.5 9.5t-60 3.5h-2q-42 0 -66.5 -6t-36.5 -15t-16 -18.5t-6 -15.5h-244q2 17 7 38t18 41.5t36 39.5t61 34t94.5 24t136.5 9h50q122 0 191.5 -17.5t103 -45t39 -62.5t0.5 -69l-28 -172q-9 -54 -12.5 -87.5t-4.5 -52.5t0 -27.5t2 -13.5l-1 -5h-252q-2 8 -3 25.5
t2 46.5q-10 -11 -29 -25t-49 -26.5t-71 -21.5t-95 -9h-10z" />
    <glyph glyph-name="agrave.alt2" horiz-adv-x="891" 
d="M417 142q39 0 68.5 10.5t50 27t32.5 36t16 36.5t4 34q0 21 -8.5 41.5t-25.5 36t-43.5 25t-62.5 9.5h-6q-43 0 -72 -12.5t-46.5 -33t-25 -46.5t-7.5 -52q0 -21 6.5 -41.5t20.5 -36t37.5 -25t56.5 -9.5h5zM558 79q-7 -8 -24.5 -23t-47 -29.5t-72.5 -25.5t-100 -11h-14
q-72 0 -125 18.5t-87.5 51t-51.5 77t-17 97.5q0 17 1.5 32.5t3.5 32.5q7 49 28.5 94.5t61.5 79.5t99 54.5t140 20.5h17q58 0 100.5 -9.5t72.5 -22.5t48.5 -26.5t27.5 -21.5l11 70h265l-86 -538h-264zM594 583h-241l-88 161h264z" />
    <glyph glyph-name="amacron.alt" horiz-adv-x="806" 
d="M335 120q69 0 113.5 30.5t53.5 77.5l4 26l-179 -32q-41 -7 -56 -19.5t-15 -33.5q0 -18 16.5 -33.5t62.5 -15.5zM231 -10q-64 0 -108.5 12.5t-72 34.5t-39.5 50t-12 60q0 35 12 71t48 62q28 21 71 33.5t110 17.5l253 22q34 3 34 28q0 7 -3 14t-14.5 13t-33.5 9.5t-60 3.5
h-2q-42 0 -66.5 -6t-36.5 -15t-16 -18.5t-6 -15.5h-244q2 17 7 38t18 41.5t36 39.5t61 34t94.5 24t136.5 9h50q122 0 191.5 -17.5t103 -45t39 -62.5t0.5 -69l-28 -172q-9 -54 -12.5 -87.5t-4.5 -52.5t0 -27.5t2 -13.5l-1 -5h-252q-2 8 -3 25.5t2 46.5q-10 -11 -29 -25
t-49 -26.5t-71 -21.5t-95 -9h-10zM236 723h440l-21 -129h-440z" />
    <glyph glyph-name="amacron.alt2" horiz-adv-x="891" 
d="M271 722h440l-21 -129h-440zM417 142q39 0 68.5 10.5t50 27t32.5 36t16 36.5t4 34q0 21 -8.5 41.5t-25.5 36t-43.5 25t-62.5 9.5h-6q-43 0 -72 -12.5t-46.5 -33t-25 -46.5t-7.5 -52q0 -21 6.5 -41.5t20.5 -36t37.5 -25t56.5 -9.5h5zM558 79q-7 -8 -24.5 -23t-47 -29.5
t-72.5 -25.5t-100 -11h-14q-72 0 -125 18.5t-87.5 51t-51.5 77t-17 97.5q0 17 1.5 32.5t3.5 32.5q7 49 28.5 94.5t61.5 79.5t99 54.5t140 20.5h17q58 0 100.5 -9.5t72.5 -22.5t48.5 -26.5t27.5 -21.5l11 70h265l-86 -538h-264z" />
    <glyph glyph-name="aogonek.alt" horiz-adv-x="806" 
d="M335 120q69 0 113.5 30.5t53.5 77.5l4 26l-179 -32q-41 -7 -56 -19.5t-15 -33.5q0 -18 16.5 -33.5t62.5 -15.5zM231 -10q-64 0 -108.5 12.5t-72 34.5t-39.5 50t-12 60q0 35 12 71t48 62q28 21 71 33.5t110 17.5l253 22q34 3 34 28q0 7 -3 14t-14.5 13t-33.5 9.5t-60 3.5
h-2q-42 0 -66.5 -6t-36.5 -15t-16 -18.5t-6 -15.5h-244q2 17 7 38t18 41.5t36 39.5t61 34t94.5 24t136.5 9h50q122 0 191.5 -17.5t103 -45t39 -62.5t0.5 -69l-28 -172q-9 -54 -12.5 -87.5t-4.5 -52.5t0 -27.5t2 -13.5l-1 -5h-252q-2 8 -3 25.5t2 46.5q-10 -11 -29 -25
t-49 -26.5t-71 -21.5t-95 -9h-10zM549 -188q-69 0 -100 16.5t-31 51.5q0 45 56.5 73t151.5 47h111q-34 -20 -52.5 -34.5t-18.5 -28.5q0 -19 31 -19h27l-17 -106h-158v0z" />
    <glyph glyph-name="aogonek.alt2" horiz-adv-x="891" 
d="M621 -188q-69 0 -100 16.5t-31 51.5q0 45 56.5 73t151.5 47h111q-34 -20 -52.5 -34.5t-18.5 -28.5q0 -19 31 -19h27l-17 -106h-158v0zM417 142q39 0 68.5 10.5t50 27t32.5 36t16 36.5t4 34q0 21 -8.5 41.5t-25.5 36t-43.5 25t-62.5 9.5h-6q-43 0 -72 -12.5t-46.5 -33
t-25 -46.5t-7.5 -52q0 -21 6.5 -41.5t20.5 -36t37.5 -25t56.5 -9.5h5zM558 79q-7 -8 -24.5 -23t-47 -29.5t-72.5 -25.5t-100 -11h-14q-72 0 -125 18.5t-87.5 51t-51.5 77t-17 97.5q0 17 1.5 32.5t3.5 32.5q7 49 28.5 94.5t61.5 79.5t99 54.5t140 20.5h17q58 0 100.5 -9.5
t72.5 -22.5t48.5 -26.5t27.5 -21.5l11 70h265l-86 -538h-264z" />
    <glyph glyph-name="aring.alt" horiz-adv-x="806" 
d="M247 696q0 24 9.5 45.5t32.5 37.5t61 25.5t95 9.5t94.5 -9.5t60 -25.5t31.5 -37.5t9 -45.5q0 -25 -9 -46.5t-31.5 -37.5t-60 -25.5t-94.5 -9.5q-58 0 -96.5 9.5t-61 25.5t-31.5 38t-9 46zM370 696q0 -20 18 -32.5t57 -12.5q38 0 55.5 12.5t17.5 32.5t-17.5 32t-55.5 12
q-39 0 -57 -12t-18 -32zM335 120q69 0 113.5 30.5t53.5 77.5l4 26l-179 -32q-41 -7 -56 -19.5t-15 -33.5q0 -18 16.5 -33.5t62.5 -15.5zM231 -10q-64 0 -108.5 12.5t-72 34.5t-39.5 50t-12 60q0 35 12 71t48 62q28 21 71 33.5t110 17.5l253 22q34 3 34 28q0 7 -3 14
t-14.5 13t-33.5 9.5t-60 3.5h-2q-42 0 -66.5 -6t-36.5 -15t-16 -18.5t-6 -15.5h-244q2 17 7 38t18 41.5t36 39.5t61 34t94.5 24t136.5 9h50q122 0 191.5 -17.5t103 -45t39 -62.5t0.5 -69l-28 -172q-9 -54 -12.5 -87.5t-4.5 -52.5t0 -27.5t2 -13.5l-1 -5h-252q-2 8 -3 25.5
t2 46.5q-10 -11 -29 -25t-49 -26.5t-71 -21.5t-95 -9h-10z" />
    <glyph glyph-name="aring.alt2" horiz-adv-x="891" 
d="M286 695q0 24 9.5 45.5t32.5 37.5t61 25.5t95 9.5t94.5 -9.5t60 -25.5t31.5 -37.5t9 -45.5q0 -25 -9 -46.5t-31.5 -37.5t-60 -25.5t-94.5 -9.5q-58 0 -96.5 9.5t-61 25.5t-31.5 38t-9 46zM409 695q0 -20 18 -32.5t57 -12.5q38 0 55.5 12.5t17.5 32.5t-17.5 32t-55.5 12
q-39 0 -57 -12t-18 -32zM417 142q39 0 68.5 10.5t50 27t32.5 36t16 36.5t4 34q0 21 -8.5 41.5t-25.5 36t-43.5 25t-62.5 9.5h-6q-43 0 -72 -12.5t-46.5 -33t-25 -46.5t-7.5 -52q0 -21 6.5 -41.5t20.5 -36t37.5 -25t56.5 -9.5h5zM558 79q-7 -8 -24.5 -23t-47 -29.5
t-72.5 -25.5t-100 -11h-14q-72 0 -125 18.5t-87.5 51t-51.5 77t-17 97.5q0 17 1.5 32.5t3.5 32.5q7 49 28.5 94.5t61.5 79.5t99 54.5t140 20.5h17q58 0 100.5 -9.5t72.5 -22.5t48.5 -26.5t27.5 -21.5l11 70h265l-86 -538h-264z" />
    <glyph glyph-name="aringacute.alt" horiz-adv-x="806" 
d="M339 839l108 161h261l-129 -161h-240zM248 696q0 24 9.5 45.5t32.5 37.5t61 25.5t95 9.5t94.5 -9.5t60 -25.5t31.5 -37.5t9 -45.5q0 -25 -9 -46.5t-31.5 -37.5t-60 -25.5t-94.5 -9.5q-58 0 -96.5 9.5t-61 25.5t-31.5 38t-9 46zM371 696q0 -20 18 -32.5t57 -12.5
q38 0 55.5 12.5t17.5 32.5t-17.5 32t-55.5 12q-39 0 -57 -12t-18 -32zM335 120q69 0 113.5 30.5t53.5 77.5l4 26l-179 -32q-41 -7 -56 -19.5t-15 -33.5q0 -18 16.5 -33.5t62.5 -15.5zM231 -10q-64 0 -108.5 12.5t-72 34.5t-39.5 50t-12 60q0 35 12 71t48 62q28 21 71 33.5
t110 17.5l253 22q34 3 34 28q0 7 -3 14t-14.5 13t-33.5 9.5t-60 3.5h-2q-42 0 -66.5 -6t-36.5 -15t-16 -18.5t-6 -15.5h-244q2 17 7 38t18 41.5t36 39.5t61 34t94.5 24t136.5 9h50q122 0 191.5 -17.5t103 -45t39 -62.5t0.5 -69l-28 -172q-9 -54 -12.5 -87.5t-4.5 -52.5
t0 -27.5t2 -13.5l-1 -5h-252q-2 8 -3 25.5t2 46.5q-10 -11 -29 -25t-49 -26.5t-71 -21.5t-95 -9h-10z" />
    <glyph glyph-name="aringacute.alt2" horiz-adv-x="891" 
d="M374 837l108 161h261l-129 -161h-240zM284 695q0 24 9.5 45.5t32.5 37.5t61 25.5t95 9.5t94.5 -9.5t60 -25.5t31.5 -37.5t9 -45.5q0 -25 -9 -46.5t-31.5 -37.5t-60 -25.5t-94.5 -9.5q-58 0 -96.5 9.5t-61 25.5t-31.5 38t-9 46zM407 695q0 -20 18 -32.5t57 -12.5
q38 0 55.5 12.5t17.5 32.5t-17.5 32t-55.5 12q-39 0 -57 -12t-18 -32zM417 142q39 0 68.5 10.5t50 27t32.5 36t16 36.5t4 34q0 21 -8.5 41.5t-25.5 36t-43.5 25t-62.5 9.5h-6q-43 0 -72 -12.5t-46.5 -33t-25 -46.5t-7.5 -52q0 -21 6.5 -41.5t20.5 -36t37.5 -25t56.5 -9.5h5z
M558 79q-7 -8 -24.5 -23t-47 -29.5t-72.5 -25.5t-100 -11h-14q-72 0 -125 18.5t-87.5 51t-51.5 77t-17 97.5q0 17 1.5 32.5t3.5 32.5q7 49 28.5 94.5t61.5 79.5t99 54.5t140 20.5h17q58 0 100.5 -9.5t72.5 -22.5t48.5 -26.5t27.5 -21.5l11 70h265l-86 -538h-264z" />
    <glyph glyph-name="atilde.alt" horiz-adv-x="806" 
d="M335 120q69 0 113.5 30.5t53.5 77.5l4 26l-179 -32q-41 -7 -56 -19.5t-15 -33.5q0 -18 16.5 -33.5t62.5 -15.5zM231 -10q-64 0 -108.5 12.5t-72 34.5t-39.5 50t-12 60q0 35 12 71t48 62q28 21 71 33.5t110 17.5l253 22q34 3 34 28q0 7 -3 14t-14.5 13t-33.5 9.5t-60 3.5
h-2q-42 0 -66.5 -6t-36.5 -15t-16 -18.5t-6 -15.5h-244q2 17 7 38t18 41.5t36 39.5t61 34t94.5 24t136.5 9h50q122 0 191.5 -17.5t103 -45t39 -62.5t0.5 -69l-28 -172q-9 -54 -12.5 -87.5t-4.5 -52.5t0 -27.5t2 -13.5l-1 -5h-252q-2 8 -3 25.5t2 46.5q-10 -11 -29 -25
t-49 -26.5t-71 -21.5t-95 -9h-10zM561 586q-18 0 -32 1.5t-28.5 4.5t-31.5 8.5t-39 13.5q-20 7 -32.5 11t-21.5 4q-10 0 -13.5 -6.5t-5.5 -16.5l-4 -25h-155l13 84q3 16 9 33t18.5 30.5t33 22t51.5 8.5h4q18 0 32.5 -1.5t29.5 -5t32.5 -9t40.5 -13.5q17 -6 29.5 -10t21.5 -4
q14 0 17 19l5 29h157l-12 -75q-3 -18 -9 -36.5t-18.5 -33t-33.5 -24t-53 -9.5h-5v0z" />
    <glyph glyph-name="atilde.alt2" horiz-adv-x="891" 
d="M417 142q39 0 68.5 10.5t50 27t32.5 36t16 36.5t4 34q0 21 -8.5 41.5t-25.5 36t-43.5 25t-62.5 9.5h-6q-43 0 -72 -12.5t-46.5 -33t-25 -46.5t-7.5 -52q0 -21 6.5 -41.5t20.5 -36t37.5 -25t56.5 -9.5h5zM558 79q-7 -8 -24.5 -23t-47 -29.5t-72.5 -25.5t-100 -11h-14
q-72 0 -125 18.5t-87.5 51t-51.5 77t-17 97.5q0 17 1.5 32.5t3.5 32.5q7 49 28.5 94.5t61.5 79.5t99 54.5t140 20.5h17q58 0 100.5 -9.5t72.5 -22.5t48.5 -26.5t27.5 -21.5l11 70h265l-86 -538h-264zM611 585q-18 0 -32 1.5t-28.5 4.5t-31.5 8.5t-39 13.5q-20 7 -32.5 11
t-21.5 4q-10 0 -13.5 -6.5t-5.5 -16.5l-4 -25h-155l13 84q3 16 9 33t18.5 30.5t33 22t51.5 8.5h4q18 0 32.5 -1.5t29.5 -5t32.5 -9t40.5 -13.5q17 -6 29.5 -10t21.5 -4q14 0 17 19l5 29h157l-12 -75q-3 -18 -9 -36.5t-18.5 -33t-33.5 -24t-53 -9.5h-5v0z" />
    <glyph glyph-name="racute.alt" horiz-adv-x="572" 
d="M224 583l108 161h261l-129 -161h-240zM261 0h-264l85 538h263l-21 -128q14 23 35.5 48t53 45.5t75.5 33.5t104 13l-39 -246q-9 2 -34 6.5t-67 4.5q-78 0 -114 -29.5t-44 -77.5z" />
    <glyph glyph-name="rcaron.alt" horiz-adv-x="572" 
d="M79 744h224l49 -65l61 65h234l-168 -161h-270zM261 0h-264l85 538h263l-21 -128q14 23 35.5 48t53 45.5t75.5 33.5t104 13l-39 -246q-9 2 -34 6.5t-67 4.5q-78 0 -114 -29.5t-44 -77.5z" />
    <glyph glyph-name="rcommaaccent.alt" horiz-adv-x="572" 
d="M38 -296q14 22 27.5 47.5t19.5 44.5h-110l25 159h251l-20 -124q-2 -16 -9 -33.5t-16.5 -34.5t-20.5 -32.5t-20 -26.5h-127zM261 0h-264l85 538h263l-21 -128q14 23 35.5 48t53 45.5t75.5 33.5t104 13l-39 -246q-9 2 -34 6.5t-67 4.5q-78 0 -114 -29.5t-44 -77.5z" />
    <glyph glyph-name="space_uni0326.alt" 
d="M488 834q-14 -22 -28 -47.5t-19 -44.5h110l-26 -159h-251l20 124q3 16 10 33.5t16.5 34.5t20.5 32.5t20 26.5h127v0z" />
    <glyph glyph-name="ordfeminine.alt" horiz-adv-x="584" 
d="M294 471q45 0 73 20t33 49l2 13l-110 -18q-27 -5 -37 -13.5t-10 -22.5q0 -28 49 -28zM393 436q-6 -7 -19 -16.5t-33.5 -18.5t-49.5 -15.5t-67 -6.5h-7q-47 0 -78.5 9t-50.5 24t-27 34.5t-8 41.5q0 23 8 43t27.5 36t53 26t84.5 14l168 12q22 1 22 18q0 5 -2 9.5t-9.5 8
t-21 5.5t-36.5 2h-5q-25 0 -39.5 -4t-22 -9t-9.5 -10.5t-3 -9.5h-184q2 20 9.5 41.5t33 39.5t74 29.5t131.5 11.5h37q85 0 133.5 -11.5t72.5 -29t28.5 -39t1.5 -42.5l-19 -120q-5 -32 -7 -53.5t-2.5 -34.5t0 -20t0.5 -11l-1 -4h-182q-1 4 -2 17t1 33z" />
    <glyph glyph-name="ordfeminine.alt2" horiz-adv-x="633" 
d="M446 573q0 29 -22.5 49t-65.5 20h-3q-28 0 -46.5 -8t-29.5 -20t-15.5 -27.5t-4.5 -30.5q0 -29 18.5 -49t60.5 -20h2q28 0 48 8t33 20.5t19 27.5t6 30zM673 744l-57 -359h-197l9 53q-5 -6 -16.5 -16t-31.5 -19.5t-49 -17t-68 -7.5h-11q-51 0 -87.5 12.5t-60 35t-34.5 53
t-11 65.5q0 39 11.5 76t38 66t70 46.5t107.5 17.5h12q40 0 69.5 -6t50 -14.5t33 -17.5t18.5 -15l7 47h197z" />
    <glyph glyph-name="caron.alt" 
d="M335 744h199l-54 -169h-183z" />
    <glyph glyph-name="plus.uc" horiz-adv-x="619" 
d="M400 276l-28 -176h-179l28 176h-187l25 151h186l28 175h178l-27 -175h188l-25 -151h-187z" />
    <glyph glyph-name="minus.uc" horiz-adv-x="578" 
d="M571 428l-24 -153h-513l25 153h512z" />
    <glyph glyph-name="multiply.uc" horiz-adv-x="541" 
d="M269 242l-170 -138l-93 118l160 131l-119 129l120 115l128 -138l170 138l94 -119l-161 -131l120 -129l-120 -114z" />
    <glyph glyph-name="divide.uc" horiz-adv-x="607" 
d="M435 475h-196l25 160h195zM600 427l-24 -151h-542l25 151h541zM371 66h-196l24 160h196z" />
    <glyph glyph-name="equal.uc" horiz-adv-x="585" 
d="M588 521l-22 -140h-512l22 140h512zM557 323l-22 -139h-512l22 139h512z" />
    <glyph glyph-name="less.uc" horiz-adv-x="538" 
d="M32 260l27 172l491 154l-26 -163l-322 -83l297 -80l-25 -154z" />
    <glyph glyph-name="greater.uc" horiz-adv-x="538" 
d="M38 271l324 82l-298 80l25 153l443 -154l-27 -172l-493 -154z" />
    <glyph glyph-name="questiondown.uc" horiz-adv-x="887" 
d="M652 495l-11 -67q-4 -28 -12.5 -51t-25.5 -41t-47 -31.5t-78 -23.5l-116 -22q-29 -6 -47 -12t-27.5 -13t-13 -14.5t-3.5 -15.5t4 -16t18.5 -14.5t43.5 -10.5t78 -4q61 0 96 9.5t52.5 23t22.5 28t7 25.5h268l-2 -14q-4 -25 -11 -52.5t-23 -54t-44 -51t-74 -43t-113 -29.5
t-161 -11h-52q-120 0 -195 17t-117 45.5t-57 64.5t-15 75q0 37 10.5 70.5t35 61.5t65 49t100.5 33l112 22q20 4 31.5 9t18.5 12t10 16.5t5 22.5l1 7h266zM418 744h275l-31 -195h-274z" />
    <glyph glyph-name="exclamdown.uc" horiz-adv-x="372" 
d="M-32 0l169 504h162l9 -504h-340zM118 744h276l-31 -195h-275z" />
    <glyph glyph-name="hyphen.uc" horiz-adv-x="387" 
d="M380 433l-30 -186h-320l30 186h320z" />
    <glyph glyph-name="endash.uc" horiz-adv-x="897" 
d="M887 412l-22 -142h-831l22 142h831z" />
    <glyph glyph-name="emdash.uc" horiz-adv-x="1353" 
d="M1344 412l-23 -142h-1287l22 142h1288z" />
    <glyph glyph-name="guilsinglleft.uc" horiz-adv-x="344" 
d="M111 135l-96 173l146 170h198l-147 -170l95 -173h-196z" />
    <glyph glyph-name="guilsinglright.uc" horiz-adv-x="344" 
d="M-4 135l147 173l-96 170h195l97 -170l-143 -173h-200z" />
    <glyph glyph-name="guillemotleft.uc" horiz-adv-x="567" 
d="M112 135l-97 173l144 170h185l-144 -170l96 -173h-184zM343 135l-93 173l145 170h186l-145 -170l92 -173h-185z" />
    <glyph glyph-name="guillemotright.uc" horiz-adv-x="567" 
d="M-4 135l145 173l-92 170h183l95 -170l-143 -173h-188zM233 135l143 173l-93 170h182l96 -170l-140 -173h-188z" />
    <glyph glyph-name="parenleft.uc" horiz-adv-x="352" 
d="M35 265q0 73 14.5 137.5t38.5 119.5t54 101t61.5 83t61 64.5t51.5 45.5h132q-33 -45 -70 -105.5t-68 -132.5t-51.5 -154t-20.5 -169q0 -63 7 -115.5t16.5 -94.5t20.5 -73.5t20 -52.5h-131q-9 10 -31.5 38t-45.5 72.5t-41 103.5t-18 132z" />
    <glyph glyph-name="parenright.uc" horiz-adv-x="352" 
d="M348 469q0 -73 -14.5 -137t-38.5 -119.5t-54 -101.5t-61.5 -83t-61 -64t-51.5 -45h-132q33 45 70 105t68 132t51.5 154t20.5 169q0 63 -6.5 115.5t-16.5 94.5t-21 74t-20 53h131q9 -10 31.5 -38t46 -72.5t41 -104t17.5 -132.5z" />
    <glyph glyph-name="bracketleft.uc" horiz-adv-x="365" 
d="M132 817h306l-19 -119h-109l-105 -661h109l-19 -118h-305z" />
    <glyph glyph-name="bracketright.uc" horiz-adv-x="365" 
d="M-24 37h109l105 661h-110l19 119h306l-143 -898h-305z" />
    <glyph glyph-name="braceleft.uc" horiz-adv-x="382" 
d="M172 -80q-83 0 -125.5 24t-42.5 81q0 31 19 66.5t42 70t42 65.5t19 52q0 17 -9 25t-32 8h-60l18 118h69q45 0 45 40q0 18 -7.5 43.5t-16.5 54.5t-16.5 59t-7.5 57q0 61 41 97t142 36h163l-19 -118h-84q-47 0 -47 -38q0 -17 5.5 -40t11.5 -48.5t11.5 -50.5t5.5 -45
q0 -18 -5.5 -35.5t-19 -31.5t-36 -24.5t-56.5 -15.5q50 -10 68 -31t18 -49q0 -26 -14.5 -55.5t-32.5 -58.5t-32.5 -55t-14.5 -45q0 -39 48 -39h69l-18 -117h-141z" />
    <glyph glyph-name="braceright.uc" horiz-adv-x="382" 
d="M-42 -80l18 117h84q26 0 36.5 10t10.5 29q0 16 -5 40t-11.5 50t-11.5 52t-5 47q0 36 24.5 65.5t91.5 40.5q-50 10 -67.5 31t-17.5 49q0 25 14.5 54t32.5 57.5t32.5 54t14.5 44.5q0 38 -48 38h-70l18 118h141q83 0 125 -24t42 -81q0 -21 -9 -43.5t-22 -46t-29 -46.5
t-29 -43.5t-22 -39t-9 -32.5q0 -16 9 -24t32 -8h60l-18 -117h-69q-45 0 -45 -41q0 -19 7.5 -45.5t16 -56t16 -59.5t7.5 -57q0 -31 -9.5 -55.5t-31.5 -42t-56.5 -26.5t-84.5 -9h-163z" />
    <glyph glyph-name="slash.uc" horiz-adv-x="479" 
d="M126 -81h-199l451 897h200z" />
    <glyph glyph-name="backslash.uc" horiz-adv-x="479" 
d="M67 816h187l197 -897h-185z" />
    <glyph glyph-name="bar.uc" horiz-adv-x="378" 
d="M300 -81h-187v897h187v-897z" />
    <glyph glyph-name="at.uc" horiz-adv-x="1307" 
d="M639 -105q-175 0 -290.5 31.5t-184.5 85.5t-97.5 126t-28.5 153q0 60 12.5 120.5t42 116t79 104t123.5 84.5t176 56.5t236 20.5h14q130 0 224 -14t159 -38.5t104.5 -57.5t61.5 -71t29 -78.5t7 -80.5q0 -68 -19.5 -133t-62 -116t-110 -82.5t-164.5 -31.5h-16
q-52 0 -85.5 8.5t-53 20.5t-28.5 24.5t-13 20.5q-7 -7 -23.5 -19.5t-42.5 -24.5t-62.5 -21t-83.5 -9h-14q-59 0 -103.5 16t-74.5 44.5t-45 67t-15 83.5q0 38 6 70q8 44 29 84.5t57 71t87 49t120 18.5h17q49 0 85 -8.5t61 -20.5t40 -24t23 -18l12 62h253l-69 -352
q-3 -17 1.5 -28.5t21.5 -11.5q25 0 50 19t45 53.5t32.5 82t12.5 104.5q0 33 -6 63.5t-23 57t-48.5 48.5t-82 37.5t-123.5 24t-173 8.5h-13q-114 0 -197.5 -17.5t-142 -47.5t-94.5 -70t-56.5 -84t-27.5 -91t-7 -90q0 -59 21 -112t73 -93.5t141 -64t224 -23.5q121 0 207.5 9.5
t145.5 22.5t95 27.5t56 23.5l29 -104q-18 -9 -55 -23t-100 -27t-155.5 -22.5t-222.5 -9.5zM668 452q-36 0 -59.5 -12t-37.5 -31t-19.5 -42t-5.5 -45q0 -35 22 -61.5t71 -26.5h5q28 0 49 7t36 18.5t24.5 26t15.5 29.5q8 21 8 44q0 38 -23.5 65.5t-80.5 27.5h-5z" />
    <glyph glyph-name="grave.uc" 
d="M356 789l-80 155h273l58 -155h-251z" />
    <glyph glyph-name="dieresis.uc" 
d="M411 789h-240l25 155h239zM697 789h-240l25 155h240z" />
    <glyph glyph-name="macron.uc" 
d="M228 929h458l-21 -132h-458z" />
    <glyph glyph-name="acute.uc" 
d="M264 789l100 155h273l-121 -155h-252z" />
    <glyph glyph-name="circumflex.uc" 
d="M589 944l137 -155h-226l-55 58l-66 -58h-235l173 155h272z" />
    <glyph glyph-name="caron.uc" 
d="M304 789l-137 155h227l54 -58l66 58h235l-173 -155h-272z" />
    <glyph glyph-name="breve.uc" 
d="M393 954q0 -5 1.5 -14t7 -17t17 -14t31.5 -6q21 0 34 6t20.5 14t10.5 17t4 14h174q-2 -23 -13.5 -53t-37.5 -56.5t-69 -44.5t-107 -18h-38q-70 0 -112 18t-64.5 44.5t-29 56.5t-4.5 53h175v0z" />
    <glyph glyph-name="dotaccent.uc" 
d="M300 789l26 161h265l-26 -161h-265z" />
    <glyph glyph-name="ring.uc" 
d="M650 899q0 -25 -9 -46.5t-31.5 -37.5t-61 -25.5t-96.5 -9.5q-59 0 -97.5 9.5t-61.5 25.5t-32 38t-9 46t9.5 46t32.5 38t61.5 25.5t96.5 9.5t96.5 -9.5t61 -25.5t31.5 -38t9 -46zM376 900q0 -21 18 -33.5t58 -12.5q41 0 58 12.5t17 33.5q0 20 -17 32t-58 12q-40 0 -58 -12
t-18 -32z" />
    <glyph glyph-name="tilde.uc" 
d="M568 793q-17 0 -32 2t-30 5.5t-33 9t-41 12.5q-20 7 -33 10.5t-24 3.5t-14.5 -7t-5.5 -17l-4 -25h-157l12 81q3 18 9.5 36t19.5 33t33.5 24t52.5 9h4q35 0 64.5 -7.5t74.5 -22.5q17 -5 30.5 -9.5t24.5 -4.5q16 0 19 19l4 30h158l-12 -77q-3 -18 -8.5 -36.5t-18.5 -34
t-34 -25t-54 -9.5h-5v0z" />
    <glyph glyph-name="hungarumlaut.uc" 
d="M430 789l81 155h239l-86 -155h-234zM228 944h240l-80 -155h-233z" />
    <glyph glyph-name="emdash.altuc" horiz-adv-x="2640" 
d="M2608 270h-2574l22 142h2575z" />
    <glyph glyph-name="f.short" horiz-adv-x="515" 
d="M547 600h-79q-23 0 -31 -10t-10 -27l-4 -25h115l-27 -165h-115l-59 -373h-262l59 373h-103l26 165h103l9 60q5 30 17.5 56.5t36.5 46.5t61.5 31.5t92.5 11.5h193z" />
    <glyph glyph-name="f_f.short" horiz-adv-x="945" 
d="M75 0l59 373h-103l26 165h103l9 60q5 30 17.5 56.5t36.5 46.5t61.5 31.5t92.5 11.5h195l-23 -144h-81q-23 0 -31 -10t-10 -27l-4 -25h167l10 60q4 30 16.5 56.5t36.5 46.5t62 31.5t93 11.5h192l-23 -144h-79q-23 0 -30.5 -10t-10.5 -27l-4 -25h115l-26 -165h-115
l-59 -373h-263l59 373h-168l-59 -373h-262z" />
    <glyph glyph-name="j.short" horiz-adv-x="344" 
d="M355 583h-265l26 161h265zM-37 -27q17 0 24.5 7.5t11.5 27.5l84 530h265l-94 -593q-11 -68 -43.5 -100.5t-80.5 -32.5h-217l26 161h24z" />
    <glyph glyph-name="uni0192" unicode="&#x192;" horiz-adv-x="529" 
d="M387 320l-104 -508h-263l103 508h-97l27 166h103l22 105q6 31 18 58.5t35 48.5t60.5 33.5t96.5 12.5h186l-25 -154h-74q-22 0 -29.5 -10t-11.5 -29l-13 -65h113l-27 -166h-120z" />
    <glyph glyph-name="uni0237" unicode="&#x237;" horiz-adv-x="344" 
d="M-37 -27q17 0 25 7.5t11 27.5l84 530h265l-94 -593q-11 -68 -43.5 -100.5t-80.5 -32.5h-229l27 161h35z" />
    <glyph glyph-name="uni2009" unicode="&#x2009;" horiz-adv-x="18" 
 />
    <glyph glyph-name="zero" unicode="0" horiz-adv-x="1110" 
d="M1109 430q0 -20 -1 -40.5t-5 -43.5q-6 -35 -17.5 -75t-34.5 -80t-61 -77t-96 -65.5t-139.5 -45.5t-191.5 -17h-45q-99 0 -173.5 15t-128.5 40.5t-89 58.5t-55.5 70t-29 75.5t-8.5 73.5q0 17 0.5 35.5t4.5 45.5q5 34 16 74t34.5 80t62 77t97 65t140 45t191.5 17h45
q100 0 174.5 -14.5t128.5 -39.5t89 -58t55.5 -69.5t28.5 -74t8 -72.5zM820 404q0 28 -11 55.5t-38 49.5t-71 35.5t-110 13.5q-75 0 -123.5 -16t-77.5 -40.5t-43 -54t-18 -56.5q-2 -13 -2.5 -21.5t-0.5 -19.5q0 -28 10.5 -57t36.5 -52.5t70 -38.5t112 -15q73 0 121.5 16.5
t78.5 42t44 57t19 62.5q3 19 3 39z" />
    <glyph glyph-name="numbersign" unicode="#" horiz-adv-x="816" 
d="M520 451h-136l-51 -124h135zM417 203h-135l-84 -203h-160l84 203h-123l50 124h124l51 124h-124l51 124h124l70 169h160l-70 -169h136l70 169h160l-70 -169h125l-51 -124h-125l-52 -124h126l-51 -124h-126l-84 -203h-160z" />
    <glyph glyph-name="exclam" unicode="!" horiz-adv-x="372" 
d="M431 744l-169 -504h-162l-9 504h340zM281 0h-276l31 195h275z" />
    <glyph glyph-name="quotedbl" unicode="&#x22;" horiz-adv-x="529" 
d="M531 482h-212l42 262h212zM276 482h-212l42 262h212z" />
    </font>
</defs>
</svg>
