<?xml version="1.0" encoding="UTF-8"?>
<svg xmlns="http://www.w3.org/2000/svg" xmlns:xlink="http://www.w3.org/1999/xlink" width="60pt" height="60pt" viewBox="0 0 60 60" version="1.1">
<g id="surface1">
<path style=" stroke:none;fill-rule:nonzero;fill:rgb(5.882353%,61.568627%,34.509804%);fill-opacity:1;" d="M 52.089844 1.820312 L 30 1.820312 L 7.910156 19.5 L 52.089844 19.5 Z M 52.089844 1.820312 "/>
<path style=" stroke:none;fill-rule:nonzero;fill:rgb(19.215686%,66.666667%,32.156863%);fill-opacity:1;" d="M 7.910156 1.820312 L 30 1.820312 L 30 19.5 L 7.910156 19.5 Z M 7.910156 1.820312 "/>
<path style=" stroke:none;fill-rule:nonzero;fill:rgb(92.156863%,25.490196%,19.607843%);fill-opacity:1;" d="M 36.839844 47.472656 L 43.382812 14.554688 L 60.003906 17.859375 L 53.460938 50.777344 Z M 36.839844 47.472656 "/>
<path style=" stroke:none;fill-rule:nonzero;fill:rgb(97.254902%,65.882353%,3.137255%);fill-opacity:1;" d="M 45.054688 8.914062 L 30 11.910156 L 6.546875 50.785156 L 51.601562 41.824219 Z M 45.054688 8.914062 "/>
<path style=" stroke:none;fill-rule:nonzero;fill:rgb(98.431373%,74.117647%,0%);fill-opacity:1;" d="M 0 17.878906 L 6.546875 50.785156 L 30 46.121094 L 30 11.910156 Z M 0 17.878906 "/>
<path style=" stroke:none;fill-rule:nonzero;fill:rgb(25.490196%,45.882353%,87.45098%);fill-opacity:1;" d="M 53.847656 23.609375 L 30 23.609375 L 22.96875 40.894531 L 30 58.179688 L 53.847656 58.179688 Z M 53.847656 23.609375 "/>
<path style=" stroke:none;fill-rule:nonzero;fill:rgb(25.098039%,52.54902%,95.686275%);fill-opacity:1;" d="M 6.152344 23.609375 L 30 23.609375 L 30 58.179688 L 6.152344 58.179688 Z M 6.152344 23.609375 "/>
<path style=" stroke:none;fill-rule:nonzero;fill:rgb(89.019608%,90.588235%,91.764706%);fill-opacity:1;" d="M 37.207031 32.105469 L 46.816406 32.105469 L 46.816406 35.621094 L 37.207031 35.621094 Z M 37.207031 32.105469 "/>
<path style=" stroke:none;fill-rule:nonzero;fill:rgb(89.019608%,90.588235%,91.764706%);fill-opacity:1;" d="M 37.207031 39.136719 L 46.816406 39.136719 L 46.816406 42.652344 L 37.207031 42.652344 Z M 37.207031 39.136719 "/>
<path style=" stroke:none;fill-rule:nonzero;fill:rgb(89.019608%,90.588235%,91.764706%);fill-opacity:1;" d="M 37.207031 46.167969 L 46.816406 46.167969 L 46.816406 49.683594 L 37.207031 49.683594 Z M 37.207031 46.167969 "/>
<path style=" stroke:none;fill-rule:nonzero;fill:rgb(100%,100%,100%);fill-opacity:1;" d="M 30 39.136719 L 23.4375 39.136719 L 23.4375 42.652344 L 29.941406 42.652344 C 29.167969 45.519531 26.546875 47.632812 23.4375 47.632812 C 19.722656 47.632812 16.699219 44.613281 16.699219 40.894531 C 16.699219 37.179688 19.722656 34.15625 23.4375 34.15625 C 25.027344 34.15625 26.539062 34.710938 27.75 35.71875 L 30 33.019531 C 28.160156 31.484375 25.855469 30.640625 23.4375 30.640625 C 17.785156 30.640625 13.183594 35.242188 13.183594 40.894531 C 13.183594 46.550781 17.785156 51.148438 23.4375 51.148438 C 25.933594 51.148438 28.21875 50.253906 30 48.769531 L 31.347656 42.652344 Z M 30 39.136719 "/>
<path style=" stroke:none;fill-rule:nonzero;fill:rgb(89.019608%,90.588235%,91.764706%);fill-opacity:1;" d="M 30 39.136719 L 30 48.769531 C 32.253906 46.886719 33.691406 44.054688 33.691406 40.894531 L 33.691406 39.136719 Z M 30 39.136719 "/>
</g>
</svg>
