<svg xmlns="http://www.w3.org/2000/svg" viewBox="-1075 1274.896 19.22 19.206">
  <defs>
    <style>
      .cls-1 {
        fill: #7b7b7b;
      }
    </style>
  </defs>
  <path id="path" class="cls-1" d="M17.657,8.665,14.1,12.217a5.092,5.092,0,0,1-7.216,0,6.1,6.1,0,0,1-.777-1L7.777,9.553C7.888,9.442,8,9.442,8,9.331a2.3,2.3,0,0,0,.666,1.11,2.48,2.48,0,0,0,3.552,0L15.77,6.888a2.512,2.512,0,0,0-3.552-3.553L11,4.557a5.307,5.307,0,0,0-3.219-.333l2.775-2.775a5.092,5.092,0,0,1,7.216,0A5.2,5.2,0,0,1,17.657,8.665ZM8.11,14.549,6.777,15.881a2.512,2.512,0,0,1-3.552-3.552L6.777,8.776a2.48,2.48,0,0,1,3.552,0A2.3,2.3,0,0,1,11,9.886a.239.239,0,0,0,.222-.222L12.883,8a6.1,6.1,0,0,0-.777-1A5.092,5.092,0,0,0,4.89,7L1.449,10.441a5.1,5.1,0,0,0,7.216,7.216l2.775-2.775A5.757,5.757,0,0,1,8.11,14.549Z" transform="translate(-1074.95 1274.946)"/>
</svg>
