<svg id="Layer_1" data-name="Layer 1" xmlns="http://www.w3.org/2000/svg" viewBox="0 0 283.57 63.05"><defs><style>.cls-1,.cls-2{fill:#fff;}.cls-2{stroke:#fff;stroke-width:0.22px;}</style></defs><title>logo_white</title><polygon class="cls-1" points="103.18 7.5 103.18 58.63 96.61 58.63 67.04 11.1 67.04 52.37 74.33 53.91 74.33 58.53 53.49 58.53 53.49 53.91 60.88 52.37 60.88 7.5 53.49 5.96 53.49 1.24 69.61 1.24 97.02 46 97.02 7.5 89.63 5.96 89.63 1.24 110.47 1.24 110.47 5.86 103.18 7.5"/><polygon class="cls-2" points="103.18 7.5 103.18 58.63 96.61 58.63 67.04 11.1 67.04 52.37 74.33 53.91 74.33 58.53 53.49 58.53 53.49 53.91 60.88 52.37 60.88 7.5 53.49 5.96 53.49 1.24 69.61 1.24 97.02 46 97.02 7.5 89.63 5.96 89.63 1.24 110.47 1.24 110.47 5.86 103.18 7.5"/><polygon class="cls-1" points="114.27 58.43 114.27 53.81 121.56 52.27 121.56 7.5 114.27 5.96 114.27 1.24 145.37 1.24 156.46 1.04 156.77 15.1 152.05 15.1 148.97 6.48 129.46 6.48 129.46 26.19 141.78 26.19 144.35 18.69 148.76 18.69 148.76 38.71 144.35 38.71 141.78 31.22 129.46 31.22 129.46 52.99 149.69 52.99 152.77 43.85 157.49 43.85 157.49 58.32 114.27 58.32 114.27 58.43"/><polygon class="cls-2" points="114.27 58.43 114.27 53.81 121.56 52.27 121.56 7.5 114.27 5.96 114.27 1.24 145.37 1.24 156.46 1.04 156.77 15.1 152.05 15.1 148.97 6.48 129.46 6.48 129.46 26.19 141.78 26.19 144.35 18.69 148.76 18.69 148.76 38.71 144.35 38.71 141.78 31.22 129.46 31.22 129.46 52.99 149.69 52.99 152.77 43.85 157.49 43.85 157.49 58.32 114.27 58.32 114.27 58.43"/><polygon class="cls-1" points="236.34 7.5 221.66 58.84 213.75 58.84 202.35 10.48 190.34 58.84 182.13 58.84 168.27 7.5 162.62 5.96 162.62 1.24 182.44 1.24 182.44 5.86 176.48 7.4 187.16 49.7 198.86 1.14 207.69 1.14 218.68 49.8 229.56 7.5 223.3 5.96 223.3 1.24 241.88 1.24 241.88 5.86 236.34 7.5"/><polygon class="cls-2" points="236.34 7.5 221.66 58.84 213.75 58.84 202.35 10.48 190.34 58.84 182.13 58.84 168.27 7.5 162.62 5.96 162.62 1.24 182.44 1.24 182.44 5.86 176.48 7.4 187.16 49.7 198.86 1.14 207.69 1.14 218.68 49.8 229.56 7.5 223.3 5.96 223.3 1.24 241.88 1.24 241.88 5.86 236.34 7.5"/><path class="cls-1" d="M264.57,60.35c-8.11,0-13.24-1.64-18.38-4.62v-11h6l3.08,9.14a19.54,19.54,0,0,0,7,1.13c8.73,0,13.45-3.49,13.45-9.34,0-5.24-3.9-8-10.57-11.6-1.75-1.13-6-2.87-7.39-3.8-6.88-3.8-10.37-7.6-10.37-14.17C247.32,7.27,254.1.91,265,.91A38,38,0,0,1,281.1,4.6V15.38h-5.65L272.37,7a22.53,22.53,0,0,0-6.57-.82c-6.88,0-10.88,3.29-10.88,8.32s3.9,7.6,11,11.29C268,27,273,28.93,274.43,30.06c6,3.18,9,7.19,9,13.45C283.46,53.57,276,60.35,264.57,60.35Z" transform="translate(0 -0.79)"/><path class="cls-2" d="M264.57,60.35c-8.11,0-13.24-1.64-18.38-4.62v-11h6l3.08,9.14a19.54,19.54,0,0,0,7,1.13c8.73,0,13.45-3.49,13.45-9.34,0-5.24-3.9-8-10.57-11.6-1.75-1.13-6-2.87-7.39-3.8-6.88-3.8-10.37-7.6-10.37-14.17C247.32,7.27,254.1.91,265,.91A38,38,0,0,1,281.1,4.6V15.38h-5.65L272.37,7a22.53,22.53,0,0,0-6.57-.82c-6.88,0-10.88,3.29-10.88,8.32s3.9,7.6,11,11.29C268,27,273,28.93,274.43,30.06c6,3.18,9,7.19,9,13.45C283.46,53.57,276,60.35,264.57,60.35Z" transform="translate(0 -0.79)"/><path class="cls-1" d="M48.87,59.12a22.71,22.71,0,0,0,3.59,2.57l-1.33,2.16C38.19,60.66,24.95,43.61,20,32.63l-3.8,3.7V54.5c0,1,.51,1.54,2,2L22,57.37v1.85H0v-2l3.59-.82C5.44,56,6,55.32,6,54.4V7.78A2.34,2.34,0,0,0,3.9,5.32l-3.8-1V2.45h22V4.29l-4,1a2.06,2.06,0,0,0-1.85,2.16V29.55h0.1L36.34,7c0.82-.92.31-1.54-1.23-2l-3.28-.82V2.45H49.49V4.29L45.28,5.42A5.2,5.2,0,0,0,42.2,7.17L28,23.39c2.46,7.19,12.42,27.51,18,33.06l0.41,0.41" transform="translate(0 -0.79)"/></svg>