<svg id="Layer_1" data-name="Layer 1" xmlns="http://www.w3.org/2000/svg" viewBox="0 0 283.46 68.03"><defs><style>.cls-1{fill:#fff;}</style></defs><title>athenarec_logo</title><path class="cls-1" d="M281.84,36.34s-3.5,1.75-5.18,2.65c-2.24,1.2-4.46,2.46-6.7,3.68a.84.84,0,0,0-.49,1.16,9.71,9.71,0,0,1-.7,7.67c-2,3.4-4.78,5.94-8.81,6.66-3.2.57-5.77-1.64-5-5.22.59-2.93,2.42-5.06,4.61-6.92,1.63-1.38,3.33-2.66,5.08-4l-.47-1.3c-1.16.82-2.27,1.66-3.43,2.44a28.05,28.05,0,0,1-7.95,4,7.5,7.5,0,0,1-5.18,0,4.57,4.57,0,0,1-2.79-4.94,27.33,27.33,0,0,1,.59-3,4.42,4.42,0,0,0-.55.14c-1.95.94-3.95,1.8-5.82,2.87-1.29.73-2.38,1.8-3.61,2.65A13.92,13.92,0,0,1,230,47.34a2.19,2.19,0,0,1-2.27-.84,1.94,1.94,0,0,1,.07-2.39,12.46,12.46,0,0,1,2.3-2,11.66,11.66,0,0,1,2.65-1.42,12.72,12.72,0,0,0,5.58-4.45,36.57,36.57,0,0,0,2.05-3,4.57,4.57,0,0,0,.53-1.34,1.18,1.18,0,0,0-.16-.89c-.11-.14-.6-.12-.81,0a47.12,47.12,0,0,0-4.49,3c-6.68,5.43-11.74,12.21-16.2,19.48a75.07,75.07,0,0,0-6.29,12.94c-.38,1-.9,1.68-2.06,1.7a3.57,3.57,0,0,1-3-1.64A1.41,1.41,0,0,1,208,65c1.27-2.62,2.52-5.26,3.82-7.87,1.79-3.59,3.61-7.16,5.42-10.74.08-.15.13-.32.24-.59-.91.41-1.7.83-2.53,1.15a6.49,6.49,0,0,1-4.1.49,3.65,3.65,0,0,1-3-3.57c0-.18,0-.35,0-.64-.7.47-1.32.9-2,1.31a19.57,19.57,0,0,1-6.73,3,6.79,6.79,0,0,1-3.79-.19,4,4,0,0,1-2.77-3.71c0-.18,0-.36-.06-.69l-1.89,1.21a21.82,21.82,0,0,1-8,3.38,6.17,6.17,0,0,1-4.25-.71,4.93,4.93,0,0,1-2.06-5.27,21.11,21.11,0,0,1,4.65-9.2,20.22,20.22,0,0,1,5.78-5.15,7.61,7.61,0,0,1,3.46-1.09c2.81-.11,4.4,1.88,3.62,4.58a13.37,13.37,0,0,1-4.42,6.25,10.58,10.58,0,0,1-4.64,2.48,6.67,6.67,0,0,1-1.55.13.71.71,0,0,0-.8.57c0,.15-.07.3-.11.44-.56,2,.41,3,2.46,2.53a29.67,29.67,0,0,0,7.12-3.28,5.82,5.82,0,0,0,2.26-2.35,22.45,22.45,0,0,1,11.57-10.21,2.27,2.27,0,0,1,3.3,2.21,2.47,2.47,0,0,1-2,2.93,14.19,14.19,0,0,0-7.86,5.94,5.28,5.28,0,0,0-1,3.26c.08,1.23.73,1.88,2,1.75a6,6,0,0,0,2.28-.59c2-1.16,4-2.43,6-3.69a1.4,1.4,0,0,0,.44-.66,26.08,26.08,0,0,1,3.65-6.3c.79-1,1.31-1.24,2.53-.8a4.58,4.58,0,0,1,1.59,1,1.7,1.7,0,0,1,.17,2.46c-1,1.62-2.11,3.24-3,4.94a8.74,8.74,0,0,0-.69,2.89c-.1.7.23.95.94.81a4.59,4.59,0,0,0,1.63-.57c1.71-1.1,3.4-2.26,5.06-3.45a2.8,2.8,0,0,0,.65-1q3.93-7.32,7.84-14.65c.43-.8,1-1.47,2-1.4a3.41,3.41,0,0,1,2.15.9c1.19,1.11,1.37,2.13.48,3.47-1.68,2.55-3.4,5.06-5.07,7.61a19.86,19.86,0,0,0-1,1.83,3.58,3.58,0,0,1-.31.45,10.84,10.84,0,0,0-.79,1A13,13,0,0,0,225.5,40c.94-1.2,1.85-2.43,2.83-3.6a45.92,45.92,0,0,1,9.4-9.07,8.27,8.27,0,0,1,4.83-1.73A3.49,3.49,0,0,1,246,29a10.71,10.71,0,0,1-2.6,7.12l-.4.51c-.09.12-.18.24-.38.53,1.05-.37,1.92-.74,2.83-1a4.51,4.51,0,0,0,2.71-2.08,21.27,21.27,0,0,1,7.08-6.91,7.26,7.26,0,0,1,4.27-1.08,3,3,0,0,1,2.86,2.76,7.16,7.16,0,0,1-1.69,5,13.62,13.62,0,0,1-6.9,5.33,10.36,10.36,0,0,1-2.15.34c-.38,0-.64.11-.74.5a6.81,6.81,0,0,0-.29,1.14c-.09,1.21.31,2.26,1.95,2a12,12,0,0,0,2.7-.74A41.44,41.44,0,0,0,263.18,38a1.17,1.17,0,0,0,.43-.81,13.6,13.6,0,0,1,3.1-7.92,21.27,21.27,0,0,1,8.41-6.41A2.42,2.42,0,0,1,278.74,25c.16,1.58-.25,2.18-1.81,2.64A14.3,14.3,0,0,0,269,33.42c-.09.12-.14.26-.25.45.14.13.28.23.4.35a1.34,1.34,0,0,1-.12,2.25l-.14.12c-1.66,1.37-1.6,1-.9,3.22l13.87-7C283.29,32,284.61,35.21,281.84,36.34ZM265.31,45.6c-1.48,1.31-2.92,2.49-4.23,3.78A9,9,0,0,0,258.79,53c-.26.78.12,1.19.92,1a1.93,1.93,0,0,0,.59-.24,12,12,0,0,0,5-6A2.28,2.28,0,0,0,265.31,45.6Zm-7-14.76c-2.56,1.51-4.28,3.81-6,6.24C254.72,37.07,258.21,33.24,258.33,30.84ZM190,31c-1.42.23-5.55,4.58-5.9,6.14C186,36.87,189.16,34.07,190,31Z" transform="translate(0 0)"/><path class="cls-1" d="M48.09,19.06,54,18.78c1.56-2.3,3-4.64,4.7-6.86,1.49-2,3.14-3.9,4.78-5.78a2,2,0,0,1,2.8-.38,20.7,20.7,0,0,1,2.22,2l-.13.14c.05,0,.12,0,.15,0,1.85-1.61,4.29-.8,5,1.65A2.16,2.16,0,0,1,72.67,12a40.6,40.6,0,0,0-5.93,6.51,4,4,0,0,0,.57.08l8,.38a6.54,6.54,0,0,1,1.72.22,2,2,0,0,1,1.1.83,3.19,3.19,0,0,1-1.88,4,2.93,2.93,0,0,1-1,.05c-2.4-.27-4.79-.58-7.19-.83-1.27-.13-2.56-.2-3.84-.24a1.1,1.1,0,0,0-.84.32A84.65,84.65,0,0,0,55,38.91s0,.06,0,.2c1-1.26,1.87-2.45,2.8-3.63a54.24,54.24,0,0,1,8.36-9,8,8,0,0,1,4.1-2.1c2.24-.24,4.13,1.07,3.81,3.66a11.86,11.86,0,0,1-1,3.27c-1.24,2.8-2.57,5.57-3.85,8.36a6.25,6.25,0,0,0-.45,1.47c-.15.77.2,1.08.91.77A17.38,17.38,0,0,0,72,40.73c.83-.52,1.59-1.14,2.41-1.68a3.53,3.53,0,0,0,1.26-1.52,25.11,25.11,0,0,1,7.67-9.43,8.59,8.59,0,0,1,5.56-2A3.23,3.23,0,0,1,92,30.19a10.89,10.89,0,0,1-3,5.26,12.9,12.9,0,0,1-6.24,4,17.44,17.44,0,0,1-2.28.21c-.07.77-.2,1.57-.2,2.37a1,1,0,0,0,1.17,1.13A10.76,10.76,0,0,0,84,42.68a30.43,30.43,0,0,0,7.25-3.86,2.56,2.56,0,0,0,.67-.93c1.09-2.07,2.16-4.15,3.25-6.22a3.59,3.59,0,0,1,.42-.6c.6-.76,1.23-1.49,2.36-1.22a3.34,3.34,0,0,1,2.56,2.58,1.94,1.94,0,0,1-.39,1.14c-.47.64-1.06,1.17-1,2.08a.84.84,0,0,1-.39.68,6.76,6.76,0,0,0-2.16,2.78,11.17,11.17,0,0,0-1,2.14c1-1.26,1.94-2.55,3-3.79a63.72,63.72,0,0,1,8-8.81,9.64,9.64,0,0,1,3.87-2.19,3.49,3.49,0,0,1,1.7,0A2.34,2.34,0,0,1,114,29.52a45.77,45.77,0,0,1-1.71,5.07c-.59,1.53-1.36,3-2,4.51a9.28,9.28,0,0,0-.37,1.76c.28.06.41.13.5.1a6.22,6.22,0,0,0,3.71-2.58A23.75,23.75,0,0,1,122.28,30c2.92-1.82,5.64-1.71,8.08,1.29.64-.7,1.25-1.4,1.9-2.06A22.05,22.05,0,0,1,135,26.69a2.23,2.23,0,0,1,3.5,1.41,3.3,3.3,0,0,1-.43,1.8c-.87,1.8-1.88,3.55-2.71,5.37a34.62,34.62,0,0,0-1.62,4.44,2.05,2.05,0,0,0,.16,1.7c.47.52,1.24.14,1.76-.23,1.78-1.28,3.55-2.59,5.27-4,1.05-.84,2-1.81,3-2.69.85-.73,1.38-.82,1.84-.38s.47,1.15-.18,2c-1,1.26-2.06,2.5-3.18,3.67a28.54,28.54,0,0,1-5.34,4.59,8.94,8.94,0,0,1-3.62,1.45c-2.78.38-4.38-1.24-4.48-3.66a14.57,14.57,0,0,1,1-5.06,2.17,2.17,0,0,0,.16-1c-.9,1-1.77,1.93-2.71,2.85-2.18,2.1-4.33,4.23-6.59,6.24a8.63,8.63,0,0,1-4,2.1,6.14,6.14,0,0,1-2.26.05,2.56,2.56,0,0,1-2.37-2.59c0-.2-.09-.4-.13-.61-1.08.39-2.09.78-3.12,1.11a5,5,0,0,1-1.44.22c-2.16,0-3.38-1.49-3.13-3.68a21.21,21.21,0,0,1,2.08-6.56,40,40,0,0,0,1.68-3.8,15.68,15.68,0,0,0-1.9,1.63c-2.13,2.51-4.2,5.08-6.3,7.62-1.49,1.82-2.91,3.7-4.51,5.41a7.4,7.4,0,0,1-2.66,1.7,1.92,1.92,0,0,1-2.82-2c0-.81,0-1.62,0-2.41-1,.6-2.17,1.3-3.33,1.95a18.09,18.09,0,0,1-6.17,2.2,6,6,0,0,1-4.15-.78,4.18,4.18,0,0,1-2-3c0-.29-.1-.59-.18-1-.77.51-1.44,1-2.13,1.41a13.62,13.62,0,0,1-5.07,2.22,4.94,4.94,0,0,1-2,0,2.47,2.47,0,0,1-2-2.65,13.73,13.73,0,0,1,1.6-6.12c.86-1.88,1.82-3.72,2.71-5.58.26-.54.45-1.11.67-1.66l-.16-.16c-.34.2-.7.39-1,.62A31.28,31.28,0,0,0,60.59,37a158.73,158.73,0,0,0-9.06,13.09,4.79,4.79,0,0,1-1.38,1.42,2.29,2.29,0,0,1-2.73-.2,2.17,2.17,0,0,1-.76-2.62c1-3,2-5.94,3.13-8.83a146.67,146.67,0,0,1,7.66-15.75l.6-1.11a1,1,0,0,0-1.29.46,98.13,98.13,0,0,0-11.32,25.2c-.35,1.24-.45,2.56-.71,3.83a1.51,1.51,0,0,1-.41.87,3.39,3.39,0,0,1-4.06,0,1.67,1.67,0,0,1-.58-1.78,81.58,81.58,0,0,1,5.68-16.44c1.84-3.87,3.87-7.66,5.81-11.48.08-.16.14-.33.26-.62-2,.09-3.88.14-5.77.28-.27,0-.58.38-.76.65a68.9,68.9,0,0,0-8.6,17.49,57.58,57.58,0,0,0-1.59,5.93,9.71,9.71,0,0,0-.12,4.16c.32,1.37-.09,1.93-1.45,2.38a6.08,6.08,0,0,1-3.33,0,1.73,1.73,0,0,1-1.42-1.78,23.51,23.51,0,0,1,1.17-8,120.52,120.52,0,0,1,9.56-20,1.65,1.65,0,0,0,.07-.26c-1.62.17-3.21.29-4.78.53-2.8.44-5.59.95-8.38,1.43a3.54,3.54,0,0,1-.45.08c-1.49,0-2.36.93-3.22,2A86.5,86.5,0,0,0,10.72,48.44,59.59,59.59,0,0,0,7.38,59.2a1.71,1.71,0,0,1-1.66,1.44,4.94,4.94,0,0,1-3.39-.81,2,2,0,0,1-.87-2.4c.72-2.34,1.47-4.68,2.33-7A91.71,91.71,0,0,1,15.54,28.88c.11-.15.2-.31.29-.46s0-.11,0-.3c-1.47.44-2.91.81-4.31,1.28C9,30.26,6.5,31.17,4,32.07c-1.41.51-2.23.34-3.09-.88A5.64,5.64,0,0,1,.05,29.3c-.26-1.07.47-2,1.78-2.38,1.87-.52,3.75-1.07,5.64-1.5,4.22-1,8.45-1.84,12.66-2.79a2.59,2.59,0,0,0,1.12-.73c2.9-2.8,5.68-5.73,8.7-8.4A49.55,49.55,0,0,1,43.86,4.42,12.65,12.65,0,0,1,50,3.23a4.24,4.24,0,0,1,3.69,5,23.21,23.21,0,0,1-2.81,6.11c-.78,1.35-1.6,2.66-2.4,4C48.36,18.53,48.27,18.72,48.09,19.06ZM28.45,21.19l4.7-.57c2.57-.3,5.14-.58,7.71-.91a1.51,1.51,0,0,0,1-.48q2.44-4.32,4.79-8.71a3.08,3.08,0,0,0,.28-1.13c0-.48-.18-.69-.67-.5s-1,.35-1.45.55A48.87,48.87,0,0,0,28.7,20.83,3.37,3.37,0,0,0,28.45,21.19ZM127.88,33a4.08,4.08,0,0,0-1-.24,6.41,6.41,0,0,0-3.48,1.44,1.09,1.09,0,0,0-.51.88,2.29,2.29,0,0,1-.64,1.31,34.73,34.73,0,0,1-3.05,2.48,5.51,5.51,0,0,0-1.69,2.44,2.77,2.77,0,0,0-.09.85C119.8,41.77,126.93,35.52,127.88,33Zm-46,4.06c2.62-.26,6-4.28,5.92-6.28C85.24,32.41,83.61,34.71,81.88,37.09ZM60,18.54c.07.07.62,0,.62,0s.85-1.44,1.34-2.29C61.37,17,60.63,17.79,60,18.54Z" transform="translate(0 0)"/><path class="cls-1" d="M161.57,39.18a3.14,3.14,0,0,0,.26.39c4.86,4.91,10.1,9.34,16.34,12.45a33.93,33.93,0,0,0,3.3,1.33c.81.31,1.09.62,1.05,1.49a4.47,4.47,0,0,1-1.7,3.4,1.59,1.59,0,0,1-1.81.18,48.19,48.19,0,0,1-4.43-2.37,90,90,0,0,1-17.15-14.43c-.2-.22-.42-.44-.64-.65a1.55,1.55,0,0,0-.27-.18c-.91,1.55-1.74,3.13-2.71,4.61C152,48.25,150,51,148.1,53.85a6.3,6.3,0,0,1-.73.82c-1.86,1.91-4.16,1.73-5.69-.49a6,6,0,0,1-.74-1.72,1.11,1.11,0,0,1,.67-1.36c2.91-1.48,4.88-4,6.71-6.51s3.34-5,5-7.48c-1-1.3-1.91-2.5-2.79-3.73a2.8,2.8,0,0,1,.9-4,1.43,1.43,0,0,1,2.23.58c.57.9,1.14,1.79,1.81,2.86A190.73,190.73,0,0,0,166.15,7.59L166,7.46c-.51.34-1,.67-1.53,1a35,35,0,0,0-8.71,9.07,12.57,12.57,0,0,0-.95,1.67c-.62,1.37-1.65,1.57-3.16,1.19-1.14-.28-2.52-1.38-2.27-2.8a4.08,4.08,0,0,1,.39-1.11,26.89,26.89,0,0,1,4.93-6.67,33.69,33.69,0,0,1,13.5-8.69,19.69,19.69,0,0,1,9-1A12.4,12.4,0,0,1,187.5,8.49a17,17,0,0,1-.35,12.81,28.09,28.09,0,0,1-16,16.32,23.74,23.74,0,0,1-8.87,1.56Zm-2.39-3.56a19.71,19.71,0,0,0,7.61-1.32A26.83,26.83,0,0,0,180.44,22c2.11-3.78,3.49-7.76,3.15-12.17-.23-2.94-1.81-5.37-4.76-5.76a16.23,16.23,0,0,0-4,0,14.6,14.6,0,0,0-4.41,1.43c1.93,1.4,1.91,2.21,1.18,3.85-.08.16-.14.33-.22.5-2.82,6.09-5.62,12.2-8.47,18.28C161.73,30.63,160.45,33.08,159.18,35.62Z" transform="translate(0 0)"/><path class="cls-1" d="M220.54,20.61a3.26,3.26,0,0,1,2.81,1.76,1.49,1.49,0,0,1-.07,1.72,19.75,19.75,0,0,1-4.14,4.37,5,5,0,0,1-1,.54,1.08,1.08,0,0,1-1.62-1.06,6.07,6.07,0,0,1,.35-2.13c.58-1.46,1.28-2.88,2-4.29A1.6,1.6,0,0,1,220.54,20.61Z" transform="translate(0 0)"/></svg>