<svg id="Layer_1" data-name="Layer 1" xmlns="http://www.w3.org/2000/svg" viewBox="0 0 141.73 39.69"><defs><style>.cls-1{fill:#fff;}</style></defs><title>logo</title><path class="cls-1" d="M0,8H7.11v4.13H7.34a10.18,10.18,0,0,1,8.71-4.82c4.13,0,7.11,1.6,8.72,5.27a10.3,10.3,0,0,1,9.17-5.27c7.34,0,9.4,5,9.4,11.47V37.39H35.78V20c0-2.75,0-6.65-4.36-6.65-5,0-5.73,6-5.73,9.86V37.39H18.12V20c0-2.75,0-6.65-4.36-6.65-5,0-5.73,6-5.73,9.86V37.39H0.46V8H0Z"/><path class="cls-1" d="M79.58,37.39H72.24v-3.9H72a12.54,12.54,0,0,1-9.63,4.59c-6.88,0-10.09-4.82-10.09-11.47V8h7.57v15.6c0,3.67,0,8.48,5,8.48,5.5,0,6.65-6,6.65-9.86V7.8h7.57V37.39h0.46Z"/><path class="cls-1" d="M110.08,14.22a21.63,21.63,0,0,0-6.88-1.15c-2.06,0-4.59.69-4.59,3.21,0,4.59,13.3,1.6,13.3,12.38,0,6.88-6.19,9.63-12.38,9.63a36.32,36.32,0,0,1-8.72-1.15L91.28,31a16.78,16.78,0,0,0,7.57,1.83c1.83,0,5-.69,5-3.67,0-5.73-13.3-1.83-13.3-12.38,0-6.42,5.51-9.17,11.47-9.17a26.44,26.44,0,0,1,8.26,1.15Z"/><path class="cls-1" d="M126.83,13.54h-5.73V8h5.73V3.9l7.57-2.52V7.8h6.88v5.5h-6.88V27.07c0,2.52.69,4.82,3.67,4.82a7,7,0,0,0,3.44-.69l0.23,6a20.66,20.66,0,0,1-5.73.69c-6,0-9.4-3.67-9.4-9.63V13.54h0.23Z"/></svg>