<svg id="Layer_1" data-name="Layer 1" xmlns="http://www.w3.org/2000/svg" viewBox="0 0 141.73 31.18"><defs><style>.cls-1{fill:#fff;}</style></defs><title>logo</title><path class="cls-1" d="M22,17.64a3.16,3.16,0,0,1-4.1,2.79c-1.47-.66-2.13-2.13-2.29-4.43s0.33-4.92,2.95-5.41,3.6,1,3.6,1Zm2.95-9L23.27,9A11.47,11.47,0,0,0,18,8.79a7.89,7.89,0,0,0-5.57,5.73c-0.82,3.28.65,7.21,4.1,8.19,3.11,0.82,5.57-1.64,5.57-1.64s0.16,1.64,1.31,1.8a7.82,7.82,0,0,0,3.44-1l-0.33-1.47a6.44,6.44,0,0,0-1,.33c-0.33,0-.65-0.33-0.65-1.8V8.63Z"/><path class="cls-1" d="M0,9V10.6a1.42,1.42,0,0,1,1.47.66C1.8,12.07,5.24,22.39,5.24,22.39v7H8.36V22.23L12,11.91s0.49-1.31,1-1.31h0.49V9.12H9.18v1.64H9.67s0.49-.16.16,0.66c-0.16.66-2.46,8-2.46,8L3.77,8.79Z"/><path class="cls-1" d="M36.21,17.15c0.16,4.1-3.28,3.93-4.26,3.6-1.64-.66-3.28-3.44-2.95-6.55A3.35,3.35,0,0,1,32,10.92c1.47,0,3.93.82,4.26,6.23m3.44-6.39L39.82,9H32.93a7.4,7.4,0,0,0-3.77,1.15,7.2,7.2,0,0,0-3.28,5.08,7.1,7.1,0,0,0,2.79,7C34.08,25.18,40.14,20.43,39,14a9.17,9.17,0,0,0-1.64-3.11,14.42,14.42,0,0,1,2.29-.16"/><path class="cls-1" d="M39.32,12.24a3.55,3.55,0,0,1,1.15-2.29,3.17,3.17,0,0,1,2.46-1h9.5l-0.33,2.13H47.68V18.3s0,1.64.65,2,1.15,0.33,2.46-.49l0.82,1a7.52,7.52,0,0,1-2.95,1.8c-2.13.82-4.1-.49-4.1-3.6V10.76h-2a2.18,2.18,0,0,0-1.15.49A10.85,10.85,0,0,1,41,12.4Z"/><path class="cls-1" d="M55.38,13.55a3.15,3.15,0,0,1,2.13-2.78c2.13-.82,3.6,1.48,3.93,2.29a10.44,10.44,0,0,1,.65,4.42c-0.16,1.8-.82,3.11-2.78,3.28s-3.28-.82-3.77-2.95a21.26,21.26,0,0,1-.16-4.26M52.27,29.44h3.11V22.23c0.16,0.49,5.41,2.13,8.19-1.48a8.11,8.11,0,0,0,1.64-5.08,7,7,0,0,0-2.46-5.73,6.61,6.61,0,0,0-8.68.82c-1.8,1.8-1.8,5.41-1.8,5.41V29.44Z"/><path class="cls-1" d="M77.83,9V10.6a1.42,1.42,0,0,1,1.47.66c0.33,0.82,4.1,11.47,4.1,11.47H86l3.77-10.49s0.65-1.64,1.31-1.8,0.49,0,.49,0V8.79H87.33v1.48h0.49s0.33-.16,0,0.82-2.62,7.7-2.62,7.7L81.43,8.3Z"/><path class="cls-1" d="M95,6.66l1.31,0.82a23,23,0,0,0,5.41-4.1h1.47l-3.77-2A20.27,20.27,0,0,1,95,6.66"/><path class="cls-1" d="M102.9,10.92V9.29s2.62-.33,4.26-0.66v11c0,0.66,4.26,1.8,5.24-1.48V11.74s0-1-.49-1a1,1,0,0,0-.65.16V9.29l4.26-.82V19.77a1.11,1.11,0,0,0,.49,1,1.27,1.27,0,0,0,.82,0v1.64s-3.93.66-4.26,0.82v-2s-2.46,2.46-5.41,1.8c0.16,1.15.16,6.72,0.16,6.72h-2.95V12.24s-0.16-1.48-.49-1.31h-1"/><path class="cls-1" d="M139.93,13.05l1.8-2.62s-2-3.11-6.88-1.48-4.92,6.72-4.59,8.52a5.09,5.09,0,0,0,3.11,4.26c2,0.66,3.93.82,3.93,2A4.48,4.48,0,0,1,136,26.82,12,12,0,0,0,137,28a7,7,0,0,0,2.79-3.28c1.15-2.46-.33-4.26-1.8-4.59-1-.49-4.75,0-4.75-5.08-0.16-4.42,3.6-6.06,6.72-2"/><path class="cls-1" d="M96.35,8.63c4.1-.49,7.54,2.95,6.72,8.36s-8.36,8.36-11.8,3.93c-3.28-4.42-.33-9-0.33-9a7.61,7.61,0,0,1,5.41-3.28M95.2,10.92s-3.28,1-2.13,6.06S98,21.25,99,20.26c1.15-1,1.15-3.44.65-5.73-0.49-2.62-2.13-4.26-4.42-3.6"/><path class="cls-1" d="M72.1,8.63c4.1-.49,7.54,2.95,6.72,8.36S70.46,25.34,67,20.92s-0.33-9-.33-9A7.61,7.61,0,0,1,72.1,8.63m-1.15,2.29s-3.28,1-2.13,6.06,4.92,4.26,5.9,3.28c1.15-1,1.15-3.44.65-5.73-0.49-2.62-2.13-4.26-4.42-3.6"/><path class="cls-1" d="M123.05,8.63c4.1-.49,7.54,2.95,6.72,8.36s-8.36,8.36-11.8,3.93c-3.28-4.42-.33-9-0.33-9a7.61,7.61,0,0,1,5.41-3.28m-1.15,2.29s-3.28,1-2.13,6.06,4.92,4.26,5.9,3.28c1.15-1,1.15-3.44.65-5.73-0.49-2.62-2.13-4.26-4.42-3.6"/></svg>