<svg id="Layer_1" data-name="Layer 1" xmlns="http://www.w3.org/2000/svg" viewBox="0 0 141.73 141.73"><defs><style>.cls-1{fill:#151011;}.cls-2{fill:#07b1e2;}.cls-3{fill:#fff;}</style></defs><title>logo</title><rect class="cls-1" y="3.07" width="141.73" height="135.6"/><rect class="cls-2" x="8.35" y="11.75" width="46.68" height="2.9" rx="1.19" ry="1.19"/><path class="cls-2" d="M9.71,12.43a0.68,0.68,0,1,0,0,1.36H53.49a0.68,0.68,0,0,0,0-1.36H9.71Zm44,3.07h-44a2.44,2.44,0,0,1-2.39-2.38,2.33,2.33,0,0,1,2.39-2.39H53.49a2.44,2.44,0,0,1,2.38,2.39A2.3,2.3,0,0,1,53.66,15.5Z"/><rect class="cls-2" x="8.35" y="11.75" width="2.9" height="46.68" rx="1.19" ry="1.19"/><path class="cls-2" d="M9.71,12.43a0.73,0.73,0,0,0-.68.68V56.9a0.73,0.73,0,0,0,.68.68,0.73,0.73,0,0,0,.68-0.68V13.12A0.62,0.62,0,0,0,9.71,12.43Zm0,46.85A2.44,2.44,0,0,1,7.33,56.9V13.12a2.44,2.44,0,0,1,2.38-2.39,2.33,2.33,0,0,1,2.38,2.39V56.9A2.33,2.33,0,0,1,9.71,59.28Z"/><rect class="cls-2" x="130.49" y="11.75" width="2.9" height="46.68" rx="1.19" ry="1.19"/><path class="cls-2" d="M131.85,12.43a0.73,0.73,0,0,0-.68.68V56.9a0.68,0.68,0,1,0,1.36,0V13.12A0.62,0.62,0,0,0,131.85,12.43Zm0,46.85a2.44,2.44,0,0,1-2.38-2.38V13.12a2.38,2.38,0,1,1,4.77,0V56.9A2.33,2.33,0,0,1,131.85,59.28Z"/><rect class="cls-2" x="86.71" y="11.75" width="46.68" height="2.9" rx="1.19" ry="1.19"/><path class="cls-2" d="M88.07,12.43a0.68,0.68,0,1,0,0,1.36h43.78a0.68,0.68,0,0,0,0-1.36H88.07Zm43.78,3.07H88.07a2.44,2.44,0,0,1-2.38-2.38,2.33,2.33,0,0,1,2.38-2.39h43.78a2.44,2.44,0,0,1,2.38,2.39A2.33,2.33,0,0,1,131.85,15.5Z"/><path class="cls-2" d="M53.83,128.79H9.54a1.16,1.16,0,0,1-1.19-1.19v-0.51a1.17,1.17,0,0,1,1.19-1.19H53.83A1.17,1.17,0,0,1,55,127.08v0.51A1.28,1.28,0,0,1,53.83,128.79Z"/><path class="cls-2" d="M9.71,126.57a0.68,0.68,0,1,0,0,1.36H53.49a0.68,0.68,0,0,0,0-1.36H9.71Zm44,3.07h-44a2.44,2.44,0,0,1-2.39-2.38,2.33,2.33,0,0,1,2.39-2.39H53.49a2.44,2.44,0,0,1,2.38,2.39A2.3,2.3,0,0,1,53.66,129.64Z"/><path class="cls-2" d="M132.19,128.79H87.9a1.16,1.16,0,0,1-1.19-1.19v-0.51a1.17,1.17,0,0,1,1.19-1.19h44.29a1.17,1.17,0,0,1,1.19,1.19v0.51A1.28,1.28,0,0,1,132.19,128.79Z"/><path class="cls-2" d="M88.07,126.57a0.68,0.68,0,1,0,0,1.36h43.78a0.68,0.68,0,0,0,0-1.36H88.07Zm43.78,3.07H88.07a2.44,2.44,0,0,1-2.38-2.38,2.33,2.33,0,0,1,2.38-2.39h43.78a2.44,2.44,0,0,1,2.38,2.39A2.33,2.33,0,0,1,131.85,129.64Z"/><path class="cls-2" d="M11.24,127.42V83.13A1.16,1.16,0,0,0,10,81.94H9.54a1.17,1.17,0,0,0-1.19,1.19v44.29a1.17,1.17,0,0,0,1.19,1.19H10A1.08,1.08,0,0,0,11.24,127.42Z"/><path class="cls-2" d="M9.71,82.79a0.73,0.73,0,0,0-.68.68v43.78a0.73,0.73,0,0,0,.68.68,0.73,0.73,0,0,0,.68-0.68V83.47A0.62,0.62,0,0,0,9.71,82.79Zm0,46.85a2.44,2.44,0,0,1-2.38-2.38V83.47a2.44,2.44,0,0,1,2.38-2.39,2.33,2.33,0,0,1,2.38,2.39v43.78A2.44,2.44,0,0,1,9.71,129.64Z"/><rect class="cls-2" x="130.49" y="81.94" width="2.9" height="46.68" rx="1.19" ry="1.19"/><path class="cls-2" d="M131.85,82.79a0.73,0.73,0,0,0-.68.68v43.78a0.68,0.68,0,1,0,1.36,0V83.47A0.62,0.62,0,0,0,131.85,82.79Zm0,46.85a2.44,2.44,0,0,1-2.38-2.38V83.47a2.38,2.38,0,1,1,4.77,0v43.78A2.44,2.44,0,0,1,131.85,129.64Z"/><path class="cls-3" d="M33.39,94.2L27.94,85V106.3a1.46,1.46,0,0,1-1.7,1.7,1.46,1.46,0,0,1-1.7-1.7V78.53a1.46,1.46,0,0,1,1.7-1.7,2.47,2.47,0,0,1,1.19.34,10.38,10.38,0,0,1,.85,1.36l7,12.09,7-12.09c0.51-.68.68-1.19,0.85-1.36a1.28,1.28,0,0,1,1.19-.34,1.46,1.46,0,0,1,1.7,1.7V106.3a1.46,1.46,0,0,1-1.7,1.7,1.46,1.46,0,0,1-1.7-1.7V85l-5.45,9.2-0.51,1a1.68,1.68,0,0,1-1.36.51,1.33,1.33,0,0,1-1.19-.51A3.59,3.59,0,0,1,33.39,94.2Z"/><path class="cls-3" d="M42.93,83.47V106.3a1.13,1.13,0,0,0,1.19,1.36,1.18,1.18,0,0,0,1.36-1.36V78.53a1.18,1.18,0,0,0-1.36-1.36,1.3,1.3,0,0,0-.85.34,10.94,10.94,0,0,0-.85,1.19L35.09,91.31,27.77,78.7c-0.51-1-.68-1.19-0.85-1.19a1.29,1.29,0,0,0-.85-0.34,1.18,1.18,0,0,0-1.36,1.36V106.3a1.18,1.18,0,0,0,1.36,1.36c0.85,0,1.19-.34,1.19-1.36V83.47L33.56,94a3.53,3.53,0,0,0,.68,1,1.3,1.3,0,0,0,.85.34,1.44,1.44,0,0,0,1-.34,3.73,3.73,0,0,1,.51-0.85Zm1.36,25c-1.36,0-2-.68-2-2.21V86.54l-4.77,7.84L37,95.4a2.16,2.16,0,0,1-1.53.68,1.66,1.66,0,0,1-1.53-.68c-0.17-.34-0.51-0.68-0.68-1l-4.77-8V106.3a1.93,1.93,0,0,1-2,2.21,2,2,0,0,1-2.22-2.21V78.53a2,2,0,0,1,2.22-2.21,2.08,2.08,0,0,1,1.53.51,4.38,4.38,0,0,1,.85,1.36L35.43,89.6l6.64-11.41c0.68-1,.85-1.36.85-1.36a2.08,2.08,0,0,1,1.53-.51,2,2,0,0,1,2.21,2.21V106.3C46.34,107.83,45.65,108.51,44.29,108.51Z"/><path class="cls-3" d="M53.32,92.84v11.92H63.54a1.53,1.53,0,0,1,1.7,1.7,1.46,1.46,0,0,1-1.7,1.7H51.62a1.46,1.46,0,0,1-1.7-1.7V78.53a1.46,1.46,0,0,1,1.7-1.7H63.54a1.53,1.53,0,0,1,1.7,1.7,1.46,1.46,0,0,1-1.7,1.7H53.32v9h7.33c1,0,1.53.51,1.53,1.7s-0.51,1.7-1.53,1.7H53.32v0.17Z"/><path class="cls-3" d="M51.62,77.34a1.18,1.18,0,0,0-1.36,1.36v27.77a1.18,1.18,0,0,0,1.36,1.36H63.54c0.85,0,1.19-.34,1.19-1.36a1,1,0,0,0-1.19-1.19H52.81V92.5h7.67a1,1,0,0,0,1.19-1.19,1.13,1.13,0,0,0-1.19-1.36H52.81V79.89H63.54a1,1,0,0,0,1.19-1.19,1.14,1.14,0,0,0-1.19-1.36H51.62Zm11.92,31.18H51.62a2,2,0,0,1-2.21-2.21V78.53a2,2,0,0,1,2.21-2.21H63.54c1.36,0,2,.68,2,2.21a1.81,1.81,0,0,1-2,2H53.66v8.35h6.81c1.36,0,2,.68,2,2.21a1.81,1.81,0,0,1-2,2H53.66v11.07h9.88a1.81,1.81,0,0,1,2,2C65.59,107.83,64.9,108.51,63.54,108.51Z"/><path class="cls-3" d="M71,80.23v24.36h6.64a5.06,5.06,0,0,0,3.07-.85A5.52,5.52,0,0,0,83.13,99V85.86a6.05,6.05,0,0,0-2.38-4.94,5.44,5.44,0,0,0-3.07-.85H71v0.17Zm7.5,27.94h-9.2a1.46,1.46,0,0,1-1.7-1.7V78.53a1.46,1.46,0,0,1,1.7-1.7h9.2A7.46,7.46,0,0,1,84,79a9.63,9.63,0,0,1,2.72,7V98.8a9.24,9.24,0,0,1-2.72,7A7.63,7.63,0,0,1,78.53,108.17Z"/><path class="cls-3" d="M71.55,104.25h6.3a4.86,4.86,0,0,0,2.9-.68A5,5,0,0,0,83,99.14V86a5.29,5.29,0,0,0-2.21-4.6,4.86,4.86,0,0,0-2.9-.68h-6.3v23.51Zm6.13,0.85h-7V79.89h7a6.71,6.71,0,0,1,3.41.85A6,6,0,0,1,83.64,86V99.14a5.87,5.87,0,0,1-2.56,5.11A6.26,6.26,0,0,1,77.68,105.11ZM69.5,77.34a1.18,1.18,0,0,0-1.36,1.36v27.77a1.18,1.18,0,0,0,1.36,1.36h9.2a6.72,6.72,0,0,0,5.11-2.22A9,9,0,0,0,86.37,99V86.2a9,9,0,0,0-2.55-6.64,7.72,7.72,0,0,0-5.11-2.22H69.5Zm9,31.18h-9.2a2,2,0,0,1-2.21-2.21V78.53a2,2,0,0,1,2.21-2.21h9.2a8.41,8.41,0,0,1,5.79,2.38,9.63,9.63,0,0,1,2.73,7.16V98.63a10,10,0,0,1-2.73,7.16A7.49,7.49,0,0,1,78.53,108.51Z"/><path class="cls-3" d="M89.61,106.3V78.53a1.7,1.7,0,1,1,3.41,0V106.3a1.46,1.46,0,0,1-1.7,1.7C90.29,108.17,89.61,107.49,89.61,106.3Z"/><path class="cls-3" d="M91.31,77.34a1.18,1.18,0,0,0-1.36,1.36v27.77a1.18,1.18,0,0,0,1.36,1.36c0.85,0,1.19-.34,1.19-1.36V78.53C92.67,77.68,92.33,77.34,91.31,77.34Zm0,31.18a2,2,0,0,1-2.21-2.21V78.53a2,2,0,0,1,2.21-2.21c1.36,0,2,.68,2,2.21V106.3A1.8,1.8,0,0,1,91.31,108.51Z"/><path class="cls-3" d="M105.62,84.49l-4.26,12.95h8.35Zm5.45,16.35h-10.9l-2,6.13a1.09,1.09,0,0,1-1,1c-1.53,0-2.22-.51-2.22-1.36a1.27,1.27,0,0,1,.17-0.85l8.86-27.43a2.14,2.14,0,0,1,1.87-1.7,2,2,0,0,1,1.87,1.7l8.86,27.43a7.36,7.36,0,0,1,.17.85c0,0.85-.68,1.36-2.21,1.36a1.09,1.09,0,0,1-1-1Z"/><path class="cls-3" d="M101.87,97.1h7.32l-3.58-11.24Zm8.52,0.68h-9.54l4.77-14.48Zm-10.56,2.73h11.42l2,6.47c0.17,0.85.51,0.85,0.68,0.85,1.87,0,1.87-.68,1.87-1v-0.68L107,78.7a1.52,1.52,0,0,0-1.53-1.36c-0.51,0-1,.17-1.53,1.36l-8.86,27.43v0.68c0,0.34,0,1,1.87,1,0.17,0,.51,0,0.68-0.85Zm14.14,8a1.52,1.52,0,0,1-1.53-1.36l-1.7-6H100.51l-1.87,6a1.52,1.52,0,0,1-1.53,1.36c-2.21,0-2.72-1-2.72-1.87a1.28,1.28,0,0,1,.17-0.85l8.86-27.43a2.25,2.25,0,0,1,4.43,0l8.86,27.43a7.3,7.3,0,0,1,.17.85C116.69,107.49,116.35,108.51,114,108.51Z"/><path class="cls-3" d="M31.34,46.85l11.41,7.67a9.48,9.48,0,0,1,4.6,8.35A8,8,0,0,1,44.29,69a13,13,0,0,1-8.86,3.07,21,21,0,0,1-6.13-1,29.78,29.78,0,0,1-3.92-1.19,2.32,2.32,0,0,1-.85-2c0-1.19.85-1.7,2.56-1.7,0,0,1,.34,2.9.85a20.06,20.06,0,0,0,5.28.85,9.08,9.08,0,0,0,5.79-1.87,5,5,0,0,0,2-3.92q0-2.3-2.55-4.09L29,50.25c-2.9-1.87-4.26-4.26-4.26-7.33a9.28,9.28,0,0,1,3.07-7.15,11.43,11.43,0,0,1,8-2.73,9.77,9.77,0,0,1,2.39.17,51.09,51.09,0,0,1,5.62,1.7c1.36,0.68,2,1.53,2,2.38,0,1.36-.68,2-2.21,2a13.26,13.26,0,0,1-2.9-1.19A13.1,13.1,0,0,0,35.94,37a8.12,8.12,0,0,0-5.28,1.53,5,5,0,0,0-1.87,3.75A5.53,5.53,0,0,0,31.34,46.85Z"/><path class="cls-3" d="M27.09,66.61c-2,0-2,1-2,1.36a1.79,1.79,0,0,0,.68,1.7c0.17,0,.85.34,3.75,1.19a20.85,20.85,0,0,0,6,1A12.17,12.17,0,0,0,44,68.82a7.47,7.47,0,0,0,2.9-6,8.79,8.79,0,0,0-4.43-8L31,47.19a4.94,4.94,0,0,1-2.56-4.43,5.33,5.33,0,0,1,2-4.09A8,8,0,0,1,35.94,37a11,11,0,0,1,4.94,1.19c2.21,1,2.55,1,2.72,1.19,1.7,0,1.87-.85,1.87-1.53,0-.85-0.68-1.53-1.87-2A40.16,40.16,0,0,0,38,34.07a8.23,8.23,0,0,0-2.21-.17,11,11,0,0,0-7.84,2.73,8.58,8.58,0,0,0-3.07,6.81c0,2.9,1.36,5.11,4.09,7l11.92,7.33a5.16,5.16,0,0,1,2.72,4.43,5.11,5.11,0,0,1-2.21,4.26,9.59,9.59,0,0,1-6,1.87A21.22,21.22,0,0,1,30,67.46C27.6,66.78,27.09,66.61,27.09,66.61Zm8.35,6a23,23,0,0,1-6.3-1c-3.58-1-3.75-1.19-3.92-1.19a2.47,2.47,0,0,1-1-2.38c0-1,.51-2.22,2.9-2.22a20.3,20.3,0,0,1,3.07.85,20,20,0,0,0,5.11.85,8,8,0,0,0,5.45-1.7,4.42,4.42,0,0,0,2-3.58c0-1.36-.85-2.55-2.38-3.75L29,50.76c-2.9-2-4.43-4.6-4.43-7.67a9.57,9.57,0,0,1,3.24-7.5,12.42,12.42,0,0,1,8.35-2.89,9.07,9.07,0,0,1,2.39.17,32.09,32.09,0,0,1,5.79,1.87,3.16,3.16,0,0,1,2.21,2.89c0,1.53-1,2.39-2.73,2.39-0.17,0-.51,0-3.07-1.19a13.16,13.16,0,0,0-4.6-1.19,7.15,7.15,0,0,0-4.94,1.53,4.19,4.19,0,0,0-1.7,3.41,4.28,4.28,0,0,0,2.21,3.75L43.1,54a10.2,10.2,0,0,1,4.77,8.69,8.3,8.3,0,0,1-3.24,6.47A12.86,12.86,0,0,1,35.43,72.57Z"/><path class="cls-3" d="M73.25,37.82H63.71V52.47h9.71a5.88,5.88,0,0,0,2-.17,3.48,3.48,0,0,0,1.7-1.53A9.73,9.73,0,0,0,78.7,45a7.82,7.82,0,0,0-1.87-5.45A4.07,4.07,0,0,0,73.25,37.82ZM61.67,33.73H72.23a10.65,10.65,0,0,1,8,3.07,11.82,11.82,0,0,1,2.9,8.35c0,5.11-1.7,8.69-4.94,10.56a12.55,12.55,0,0,1-5.62,1.19H63.88V70a2,2,0,0,1-4.09,0V35.94C59.45,34.41,60.3,33.73,61.67,33.73Z"/><path class="cls-3" d="M64.05,52h9.37a10.68,10.68,0,0,0,1.87-.17,3.68,3.68,0,0,0,1.53-1.36A9,9,0,0,0,78.36,45a6.87,6.87,0,0,0-1.7-5.11,4.54,4.54,0,0,0-3.41-1.53h-9.2V52Zm9.37,0.85H63.37V37.48h9.88a5.1,5.1,0,0,1,3.92,1.87C78.53,40.71,79,42.59,79,45.14a9.19,9.19,0,0,1-1.7,6,6,6,0,0,1-2,1.7H73.42ZM61.67,34.07a1.46,1.46,0,0,0-1.7,1.7V69.84a1.7,1.7,0,1,0,3.41,0V56.21h9a11.48,11.48,0,0,0,5.45-1c3.24-1.7,4.77-5.11,4.77-10.22a12,12,0,0,0-2.72-8,10.41,10.41,0,0,0-7.67-2.89H61.67Zm0,38.33a2.26,2.26,0,0,1-2.55-2.55V35.77a2.26,2.26,0,0,1,2.55-2.56H72.23c3.41,0,6.3,1,8.18,3.24,2,2,3.07,4.94,3.07,8.52,0,5.28-1.7,9-5.28,10.9a11.27,11.27,0,0,1-5.79,1.19H64.22V69.84A2.51,2.51,0,0,1,61.67,72.4Z"/><path class="cls-3" d="M106.3,37.82H96.76V52.47h9.71a5.88,5.88,0,0,0,2-.17,3.48,3.48,0,0,0,1.7-1.53A9.73,9.73,0,0,0,111.75,45a7.82,7.82,0,0,0-1.87-5.45A4.5,4.5,0,0,0,106.3,37.82ZM94.72,33.73h10.56a10.65,10.65,0,0,1,8,3.07,11.82,11.82,0,0,1,2.9,8.35c0,5.11-1.7,8.69-4.94,10.56a12.55,12.55,0,0,1-5.62,1.19H96.93V70a2,2,0,0,1-4.09,0V35.94C92.5,34.41,93.18,33.73,94.72,33.73Z"/><path class="cls-3" d="M97.1,52h9.37a10.68,10.68,0,0,0,1.87-.17,3.68,3.68,0,0,0,1.53-1.36A9,9,0,0,0,111.41,45a6.87,6.87,0,0,0-1.7-5.11,4.54,4.54,0,0,0-3.41-1.53H97.1V52Zm9.37,0.85H96.42V37.48h10.05a5.1,5.1,0,0,1,3.92,1.87c1.36,1.36,1.87,3.24,1.87,5.79a9.19,9.19,0,0,1-1.7,6,6,6,0,0,1-2,1.7h-2ZM94.72,34.07a1.46,1.46,0,0,0-1.7,1.7V69.84a1.7,1.7,0,1,0,3.41,0V56.21h9a11.48,11.48,0,0,0,5.45-1c3.24-1.7,4.77-5.11,4.77-10.22a12,12,0,0,0-2.72-8,10.41,10.41,0,0,0-7.67-2.89H94.72Zm0,38.33a2.26,2.26,0,0,1-2.55-2.55V35.77a2.26,2.26,0,0,1,2.55-2.56h10.56c3.41,0,6.3,1,8.18,3.24,2,2,3.07,4.94,3.07,8.52,0,5.28-1.7,9-5.28,10.9a11.27,11.27,0,0,1-5.79,1.19H97.1V69.84A2.29,2.29,0,0,1,94.72,72.4Z"/></svg>