<svg id="Layer_2" data-name="Layer 2" xmlns="http://www.w3.org/2000/svg" viewBox="0 0 141.73 102.05"><defs><style>.cls-1{fill:#fff;}.cls-2{fill:#231f20;}</style></defs><title>logo_24</title><path class="cls-1" d="M2.8,98.61a1.45,1.45,0,0,0,.46.74,2,2,0,0,0,.81.39,4.35,4.35,0,0,0,1.06.12A3.44,3.44,0,0,0,6,99.75a3,3,0,0,0,.78-.33,2.07,2.07,0,0,0,.62-.56A1.73,1.73,0,0,0,7.67,98a1,1,0,0,0-.17-.77,2,2,0,0,0-.65-.52,5.93,5.93,0,0,0-.94-.38L4.83,96a9.23,9.23,0,0,1-1.07-.44,3.45,3.45,0,0,1-.9-.65,2.53,2.53,0,0,1-.58-1,3.19,3.19,0,0,1-.09-1.41,4.09,4.09,0,0,1,.66-1.85,4.5,4.5,0,0,1,1.26-1.24,5.53,5.53,0,0,1,1.63-.71,7.29,7.29,0,0,1,1.78-.22,6.38,6.38,0,0,1,1.74.22,3.33,3.33,0,0,1,1.36.74,3,3,0,0,1,.83,1.29,4.32,4.32,0,0,1,.13,1.91H9a2.06,2.06,0,0,0,0-.91,1.25,1.25,0,0,0-.38-.61A1.46,1.46,0,0,0,8,90.83a3.33,3.33,0,0,0-.86-.1,3.48,3.48,0,0,0-.77.08,2.23,2.23,0,0,0-.72.27,1.79,1.79,0,0,0-.56.5,1.61,1.61,0,0,0-.28.76.93.93,0,0,0,.24.79,2.35,2.35,0,0,0,.73.52,5.15,5.15,0,0,0,.93.33l.78.19a7.58,7.58,0,0,1,1.25.46,3,3,0,0,1,1,.68,2.43,2.43,0,0,1,.55,1,3.86,3.86,0,0,1,.06,1.47,4.45,4.45,0,0,1-.7,2,4.68,4.68,0,0,1-1.33,1.33,5.26,5.26,0,0,1-1.68.73,7.51,7.51,0,0,1-1.79.23,5.11,5.11,0,0,1-3.68-1.11,4,4,0,0,1-.82-3.48H2.79A2.73,2.73,0,0,0,2.8,98.61Z"/><path class="cls-1" d="M20.35,88.82a7.7,7.7,0,0,1,1.73.19,3.36,3.36,0,0,1,1.33.63,2.55,2.55,0,0,1,.8,1.16,4.33,4.33,0,0,1,.16,1.79,4.72,4.72,0,0,1-1.78,3.34,5.4,5.4,0,0,1-1.64.88,5.76,5.76,0,0,1-1.89.31H15.64l-1.38,4.64H11.51l3.8-12.94Zm-1.23,6.09a2.56,2.56,0,0,0,1.71-.55,2.42,2.42,0,0,0,.77-1.71,1.68,1.68,0,0,0-.09-.81,1.16,1.16,0,0,0-.41-.49,2,2,0,0,0-.6-.24,3.22,3.22,0,0,0-.71-.08H17.43L16.3,94.91Z"/><path class="cls-1" d="M26.14,93.35a8.62,8.62,0,0,1,1.64-2.49,7.58,7.58,0,0,1,2.39-1.71,7.68,7.68,0,0,1,5.34-.28,4.07,4.07,0,0,1,2.7,2.8,6.1,6.1,0,0,1,.18,2.39,10.13,10.13,0,0,1-.76,3A9,9,0,0,1,36,99.66a7.36,7.36,0,0,1-2.38,1.74,7.12,7.12,0,0,1-3.07.65,5.31,5.31,0,0,1-4.11-1.47,5.22,5.22,0,0,1-1.09-4.24A9.48,9.48,0,0,1,26.14,93.35Zm2.12,4.26a2.85,2.85,0,0,0,.43,1.06,2.11,2.11,0,0,0,.83.73,2.86,2.86,0,0,0,1.31.27,3.61,3.61,0,0,0,1.88-.49,5.13,5.13,0,0,0,1.42-1.29,6.74,6.74,0,0,0,1-1.75,7.86,7.86,0,0,0,.44-1.88,5.59,5.59,0,0,0,0-1.3,2.82,2.82,0,0,0-.4-1.06,2.21,2.21,0,0,0-.82-.72A2.84,2.84,0,0,0,33,90.91a3.72,3.72,0,0,0-1.94.5,4.9,4.9,0,0,0-1.44,1.28,6.75,6.75,0,0,0-.94,1.76,7.9,7.9,0,0,0-.43,1.89A4.44,4.44,0,0,0,28.26,97.61Z"/><path class="cls-1" d="M48.88,88.82a5.58,5.58,0,0,1,1.53.16,2.46,2.46,0,0,1,1.11.58,2.06,2.06,0,0,1,.62,1.06,4.08,4.08,0,0,1,.06,1.59,4.15,4.15,0,0,1-1.12,2.31,4.08,4.08,0,0,1-1,.77,3.5,3.5,0,0,1-1.22.4v0a1.3,1.3,0,0,1,.92.87A3.27,3.27,0,0,1,49.83,98c0,.29-.1.64-.18,1s-.15.81-.2,1.2-.07.57-.08.83a2.86,2.86,0,0,0,.05.68H46.71q0-.24,0-.45a3,3,0,0,1,0-.42A12.66,12.66,0,0,1,47,99.57a12.08,12.08,0,0,0,.25-1.31,1.9,1.9,0,0,0,0-.77,1.08,1.08,0,0,0-.31-.48,1.16,1.16,0,0,0-.54-.24,4.14,4.14,0,0,0-.74-.07H43l-1.72,5.06H38.48l4.36-12.94Zm-2.66,5.85a5,5,0,0,0,1.1-.11,3.67,3.67,0,0,0,1-.36,2.34,2.34,0,0,0,.72-.64,2,2,0,0,0,.36-.93,1.71,1.71,0,0,0,0-.84,1,1,0,0,0-.39-.48,1.47,1.47,0,0,0-.63-.22,4.72,4.72,0,0,0-.77-.06H44.88l-1.22,3.64Z"/><path class="cls-1" d="M53.49,91.22l.74-2.4H65l-.74,2.4H60.41L57.2,101.76H54.34l3.21-10.54Z"/><path class="cls-1" d="M65.48,98.61a1.45,1.45,0,0,0,.46.74,2,2,0,0,0,.81.39,4.58,4.58,0,0,0,1.08.12,3.61,3.61,0,0,0,.85-.11,3.14,3.14,0,0,0,.8-.33,2.23,2.23,0,0,0,.63-.56,1.86,1.86,0,0,0,.33-.83,1,1,0,0,0-.18-.77,1.91,1.91,0,0,0-.65-.52,5.69,5.69,0,0,0-1-.38L67.57,96a9.54,9.54,0,0,1-1.09-.44,3.34,3.34,0,0,1-.91-.65A2.53,2.53,0,0,1,65,94a3.22,3.22,0,0,1-.07-1.41,4,4,0,0,1,.68-1.85,4.6,4.6,0,0,1,1.29-1.24,5.65,5.65,0,0,1,1.67-.71,7.41,7.41,0,0,1,1.81-.22,6.58,6.58,0,0,1,1.76.22,3.41,3.41,0,0,1,1.38.74,3,3,0,0,1,.83,1.29,4.35,4.35,0,0,1,.11,1.91H71.87a1.94,1.94,0,0,0,0-.91,1.25,1.25,0,0,0-.38-.61,1.5,1.5,0,0,0-.68-.33,3.46,3.46,0,0,0-.87-.1,3.56,3.56,0,0,0-.78.08,2.26,2.26,0,0,0-.74.27,1.72,1.72,0,0,0-.57.5,1.52,1.52,0,0,0-.29.76.89.89,0,0,0,.23.79,2.39,2.39,0,0,0,.74.52,5,5,0,0,0,.94.33l.79.19a7.83,7.83,0,0,1,1.27.46,3.08,3.08,0,0,1,1,.68,2.43,2.43,0,0,1,.55,1,3.71,3.71,0,0,1,0,1.47,4.35,4.35,0,0,1-.72,2A4.78,4.78,0,0,1,71,101.09a5.58,5.58,0,0,1-1.72.73,7.76,7.76,0,0,1-1.82.23,5.21,5.21,0,0,1-3.73-1.11,3.92,3.92,0,0,1-.8-3.48h2.58A2.76,2.76,0,0,0,65.48,98.61Z"/><path class="cls-1" d="M80.08,101.69a5.24,5.24,0,0,1-1.83.3,4.51,4.51,0,0,1-1.43-.23,3.47,3.47,0,0,1-1.18-.69,2.87,2.87,0,0,1-.75-1.11,3.39,3.39,0,0,1-.18-1.52A3.82,3.82,0,0,1,75.13,97,5,5,0,0,1,76,95.84,6.35,6.35,0,0,1,77.15,95a11.86,11.86,0,0,1,1.35-.64c-.17-.35-.32-.71-.47-1.1a2.49,2.49,0,0,1-.16-1.18,3.72,3.72,0,0,1,.38-1.42,3.34,3.34,0,0,1,.83-1.06,3.5,3.5,0,0,1,1.16-.66,4.36,4.36,0,0,1,1.42-.23,4.18,4.18,0,0,1,1.24.18,2.77,2.77,0,0,1,1,.55,2.5,2.5,0,0,1,.64.92,2.62,2.62,0,0,1,.15,1.28,2.77,2.77,0,0,1-.37,1.2,4.39,4.39,0,0,1-.77,1,6.27,6.27,0,0,1-1,.76c-.36.22-.72.43-1.08.61l1.15,2.24a3.66,3.66,0,0,0,.66-.85,5.71,5.71,0,0,0,.43-1H86a7.67,7.67,0,0,1-.89,2,7,7,0,0,1-1.45,1.67L85,101.76H82.24l-.48-1A6.26,6.26,0,0,1,80.08,101.69ZM78.6,96.48a3.52,3.52,0,0,0-.69.48,2.56,2.56,0,0,0-.52.62,2,2,0,0,0-.26.86,1.19,1.19,0,0,0,.09.6,1.2,1.2,0,0,0,.34.46,1.28,1.28,0,0,0,.51.29,1.7,1.7,0,0,0,.59.1,2.37,2.37,0,0,0,1.14-.3,7.56,7.56,0,0,0,1-.66l-1.46-2.88Zm1.66-3.8c.12.29.25.58.39.85.18-.08.38-.19.6-.31a4.37,4.37,0,0,0,.62-.44,2.83,2.83,0,0,0,.51-.53,1.22,1.22,0,0,0,.24-.62,1.13,1.13,0,0,0-.23-.89,1,1,0,0,0-.77-.34,1.6,1.6,0,0,0-1,.33,1.29,1.29,0,0,0-.51,1A2.16,2.16,0,0,0,80.26,92.68Z"/><path class="cls-1" d="M93.68,88.82,96.24,98h0l2.63-9.21h2.53L97.6,101.76H94.84l-2.6-9.08h0l-2.62,9.08H87l3.83-12.94Z"/><path class="cls-1" d="M113.58,88.82l-.71,2.4h-6.24L105.8,94h5.78l-.66,2.21h-5.78l-1,3.17h6.34l-.72,2.39H101l3.84-12.94Z"/><path class="cls-1" d="M120.94,101.76l1-9.24h0L117,101.76h-2.58l1-12.94h2.56l-1.12,9.48h0l5-9.48h2.45l-1,9.44h0l4.84-9.44h2.56l-7.22,12.94Z"/><path class="cls-1" d="M132,98.61a1.45,1.45,0,0,0,.46.74,2,2,0,0,0,.81.39,4.41,4.41,0,0,0,1.06.12,3.52,3.52,0,0,0,.84-.11,3,3,0,0,0,.78-.33,2,2,0,0,0,.61-.56,1.73,1.73,0,0,0,.31-.83,1,1,0,0,0-.18-.77,2,2,0,0,0-.65-.52,6.06,6.06,0,0,0-.95-.38L134,96a9.23,9.23,0,0,1-1.07-.44,3.34,3.34,0,0,1-.91-.65,2.68,2.68,0,0,1-.59-1,3.19,3.19,0,0,1-.09-1.41,4,4,0,0,1,.64-1.85,4.34,4.34,0,0,1,1.25-1.24,5.53,5.53,0,0,1,1.63-.71,7.23,7.23,0,0,1,1.78-.22,6.38,6.38,0,0,1,1.74.22,3.37,3.37,0,0,1,1.37.74,3.15,3.15,0,0,1,.84,1.29,4.31,4.31,0,0,1,.14,1.91H138.2a2.06,2.06,0,0,0,0-.91,1.34,1.34,0,0,0-.39-.61,1.51,1.51,0,0,0-.67-.33,3.75,3.75,0,0,0-1.63,0,2.2,2.2,0,0,0-.73.27,1.75,1.75,0,0,0-.55.5,1.61,1.61,0,0,0-.28.76,1,1,0,0,0,.24.79,2.44,2.44,0,0,0,.75.52,4.79,4.79,0,0,0,.92.33l.78.19a7.83,7.83,0,0,1,1.27.46,3.16,3.16,0,0,1,.95.68,2.43,2.43,0,0,1,.55,1,3.65,3.65,0,0,1,.07,1.47,4.44,4.44,0,0,1-.68,2,4.65,4.65,0,0,1-1.32,1.33,5.26,5.26,0,0,1-1.68.73,7.45,7.45,0,0,1-1.79.23,5.11,5.11,0,0,1-3.68-1.11,4,4,0,0,1-.85-3.48H132A2.71,2.71,0,0,0,132,98.61Z"/><path class="cls-2" d="M3,78.41H61.83V64.9H20V61.85c0-4.16,1.75-7.67,9.11-9.11s16.93-3.93,22.07-6.34,10.22-5.64,10.22-15.12A88.54,88.54,0,0,0,61,17.73,16.36,16.36,0,0,0,51.83,6.07c-8.23-4.12-23.5-3-23.5-3S10.25,2.69,5.67,13.29C2.52,20.69,3,29.2,3,29.2H19.82V24.76c0-6.9,5-8,8.33-8.33a82.74,82.74,0,0,1,8.7,0s8,.37,8,6.29v6.75c0,3.66-4,6.48-7.45,7.45S17.05,41,10.94,44.83,3,54.54,3,62.59Z"/><path class="cls-1" d="M33.22,3c5.19,0,13.34.47,18.61,3.11A16.36,16.36,0,0,1,61,17.73a88.54,88.54,0,0,1,.42,13.55c0,9.48-5.09,12.72-10.22,15.12s-14.71,4.91-22.07,6.34S20,57.69,20,61.85V64.9H61.83V78.41H3V62.59c0-8.05,1.85-14,8-17.76s23-6.94,26.51-7.91,7.45-3.79,7.45-7.45V22.72c0-5.92-8-6.29-8-6.29s-2.39-.12-5-.12c-1.28,0-2.62,0-3.73.12-3.33.28-8.33,1.43-8.33,8.33V29.2H3s-.47-8.51,2.68-15.91C9.91,3.46,25.77,3.11,28.06,3.11h.27s2-.15,4.89-.15m0-3h0c-2.58,0-4.46.11-5,.15h-.19C24.73.15,7.87.72,3,12.11-.43,20.07,0,29,0,29.36l.15,2.8h22.6v-7.4c0-3.58,1.52-5,5.62-5.38.9-.07,2.07-.11,3.48-.11,2.48,0,4.79.12,4.81.12a10.32,10.32,0,0,1,3.15.74c2.09.91,2.09,2,2.09,2.59v6.75c0,1.87-2.73,3.89-5.28,4.6-.69.19-2.13.52-3.8.89C26,36.51,14.58,39.09,9.38,42.32,1.09,47.47,0,55.86,0,62.59V81.37H64.79V61.94H23v-.09c0-2.47.52-5,6.72-6.2,6.91-1.35,17-3.88,22.75-6.57,6.18-2.89,11.89-7,11.93-17.7a91.45,91.45,0,0,0-.44-14h0A19.29,19.29,0,0,0,53.16,3.42C47.5.59,39.19,0,33.22,0Z"/><path class="cls-2" d="M131.77,51.27V3.76H103.66L75.05,42.67V63.19h40.27V78.41h16.33V63.19h7.12V51.27Zm-16.69-.13H86.72l28.36-38Z"/><path class="cls-1" d="M131.77,3.76V51.27h7V63.19h-7.12V78.41H115.32V63.19H75.05V42.67L103.66,3.76h28.11M86.72,51.14h28.36v-38L86.72,51.14M134.73.8H102.16L101.27,2,72.67,40.92l-.58.78V66.15h40.27V81.37h22.25V66.15h7.12V48.31h-7V.8ZM92.61,48.18,112.12,22V48.18Z"/></svg>