<svg id="Layer_1" data-name="Layer 1" xmlns="http://www.w3.org/2000/svg" viewBox="0 0 141.73 17.01"><defs><style>.cls-1{fill:#fff;}</style></defs><title>logo</title><path class="cls-1" d="M69.37,15.14H64V14.71l0.85-.21c0.43-.11.53-0.21,0.53-0.43V8H59.55v6.08c0,0.21,0,.32.43,0.43L61,14.71v0.43H55.71V14.71l1-.21a0.58,0.58,0,0,0,.53-0.43V2.44a0.48,0.48,0,0,0-.43-0.53l-1.07-.32V1.16H61V1.59L60,1.91a0.49,0.49,0,0,0-.43.53V6.82h5.87V2.33A0.45,0.45,0,0,0,65,1.91l-1-.21V1.27h5.34V1.69l-1,.21a0.58,0.58,0,0,0-.53.43V14a0.45,0.45,0,0,0,.43.43l1,0.21v0.53"/><path class="cls-1" d="M13.66,15.14H8.32V14.71l0.85-.21c0.43-.11.53-0.21,0.53-0.43V8H3.84v6.08c0,0.21,0,.32.43,0.43l1.07,0.21v0.43H0V14.71l1-.21a0.58,0.58,0,0,0,.53-0.43V2.44a0.48,0.48,0,0,0-.43-0.53L0,1.59V1.16H5.34V1.59l-1.07.32a0.49,0.49,0,0,0-.43.53V6.82H9.71V2.33a0.45,0.45,0,0,0-.43-0.43l-1-.21V1.27h5.34V1.69l-1,.21a0.58,0.58,0,0,0-.53.43V14a0.45,0.45,0,0,0,.43.43l1,0.21v0.53"/><path class="cls-1" d="M55.28,8.1c0,4.27-2.56,7.36-7,7.36-4.27,0-7-3-7-7.36a7,7,0,1,1,14.09,0m-2.56,0C52.72,4.57,50.91,2,48.24,2S43.76,4.57,43.76,8.1s1.81,6.3,4.48,6.3c2.88,0,4.48-3,4.48-6.3"/><path class="cls-1" d="M42.26,15.14H36.82V14.71l0.75-.21c0.32-.11.53-0.21,0.43-0.53l-1.07-3.52H32.34l-1.07,3.42c-0.11.32-.11,0.53,0.43,0.64l0.75,0.21v0.43H29.67a5.93,5.93,0,0,0,.85.64l-0.32.53c-3.2-.75-6.4-4.91-7.68-7.68l-1,.85V14a0.39,0.39,0,0,0,.43.43l1,0.21V15H17.61V14.61l0.85-.21A0.55,0.55,0,0,0,19,13.86V2.55a0.58,0.58,0,0,0-.53-0.64l-1-.21V1.27h5.44V1.69l-1,.21a0.54,0.54,0,0,0-.43.53V7.88l4.91-5.55c0.21-.21.11-0.43-0.32-0.43L25.4,1.69V1.27h4.38V1.69L28.71,2a1.72,1.72,0,0,0-.75.43L24.44,6.39c0.64,1.81,3.09,6.72,4.38,8.11l0.11,0.11,0.43-.11A0.79,0.79,0,0,0,30,13.86L33.94,2.44V2.23A0.27,0.27,0,0,0,33.62,2l-1-.32V1.27h3.74l4.48,12.81a1.09,1.09,0,0,0,.64.53l0.85,0.21v0.32H42.26ZM36.61,9.38L34.69,3.72,32.87,9.38h3.74"/><path class="cls-1" d="M51.34,10.23H51L50.8,9.48a0.45,0.45,0,0,0-.43-0.43H46a0.45,0.45,0,0,0-.43.43l-0.21.75H45.15V6.28h0.32l0.11,0.64a0.75,0.75,0,0,0,.43.53h4.38c0.21,0,.32-0.11.43-0.53l0.11-.64h0.32v3.95"/><path class="cls-1" d="M141.73,15.14H136.4V14.71l0.85-.21c0.43-.11.53-0.21,0.53-0.43V8h-5.87v6.08c0,0.21,0,.32.43,0.43l1.07,0.21v0.43h-5.34V14.71l1-.21a0.59,0.59,0,0,0,.53-0.43V2.44a0.48,0.48,0,0,0-.43-0.53l-1.07-.32V1.16h5.34V1.59l-1.07.32a0.49,0.49,0,0,0-.43.53V6.82h5.87V2.33a0.45,0.45,0,0,0-.43-0.43l-1-.21V1.27h5.34V1.69l-1,.21a0.58,0.58,0,0,0-.53.43V14a0.45,0.45,0,0,0,.43.43l1,0.21v0.53"/><path class="cls-1" d="M127.43,1.69l-0.85.21a0.57,0.57,0,0,0-.53.53v12.7h-0.85l-7.9-11.42V14c0,0.21.11,0.43,0.64,0.53l0.75,0.11V15h-3.74V14.61l0.75-.21c0.53-.11.64-0.32,0.64-0.53V2.55a0.69,0.69,0,0,0-.64-0.75l-0.75-.21V1.16h3.95l6.3,9.39V2.44a0.59,0.59,0,0,0-.43-0.64l-0.85-.21V1.16h3.74V1.69"/><path class="cls-1" d="M114.2,15.14h-5.34V14.71l0.85-.21c0.43-.11.53-0.21,0.53-0.53V2.44a0.58,0.58,0,0,0-.53-0.64l-1-.21V1.16h5.34V1.59l-1,.21a0.6,0.6,0,0,0-.53.64V14c0,0.21.11,0.32,0.53,0.43l1,0.21v0.53"/><path class="cls-1" d="M108.75,5.64A4.06,4.06,0,0,1,104.48,10a4.58,4.58,0,0,1-2.13-.43l-0.21-.75a5.58,5.58,0,0,0,1.49.21c1.28,0,2.45-1.28,2.45-3.42a3.05,3.05,0,0,0-3.2-3.31h-1.6V14.07a0.43,0.43,0,0,0,.53.43l1,0.21v0.43H97.44V14.71l1-.21a0.59,0.59,0,0,0,.53-0.43V2.44A0.35,0.35,0,0,0,98.61,2l-1.07-.32V1.27h6.08c3.31-.11,5.12,1.6,5.12,4.38"/><path class="cls-1" d="M97.33,11.94L96.59,15H86.24V14.61l0.85-.21a0.57,0.57,0,0,0,.53-0.53V2.44c0-.32-0.11-0.32-0.43-0.53l-1-.32V1.16h9.82l0.43,3.09-0.43.11-1-1.81a0.49,0.49,0,0,0-.53-0.32H90.29V6.82h3.1A0.83,0.83,0,0,0,94,6.28L94.45,5H95V9.7H94.45L94,8.42a0.68,0.68,0,0,0-.64-0.53h-3.1V14h4.59a1,1,0,0,0,1-.53l1.07-1.6,0.43,0.11"/><path class="cls-1" d="M86,15.14H80.68V14.71l0.85-.21A0.57,0.57,0,0,0,82.07,14L80.9,4.68,77.8,15.14H76.52l-3-9.82H73.43l-1.28,8.75a0.64,0.64,0,0,0,.53.53l0.85,0.21v0.43H69.69V14.82l0.85-.21a0.57,0.57,0,0,0,.53-0.53l1.6-11.42c0-.32,0-0.43-0.32-0.53l-1-.32V1.27h3.42l2.88,9.82,3-9.82h3.63V1.8l-1,.32a0.5,0.5,0,0,0-.43.64l1.49,11.42c0,0.21.11,0.43,0.64,0.53l0.85,0.21v0.21"/></svg>