<svg id="Layer_2" data-name="Layer 2" xmlns="http://www.w3.org/2000/svg" viewBox="0 0 289.13 141.73"><defs><style>.cls-1{fill:#fff;}.cls-2{fill:#231f20;}</style></defs><title>logo_24</title><rect class="cls-1" x="3.55" y="3.58" width="282.04" height="134.58"/><path class="cls-2" d="M285.59,3.58V138.16H3.55V3.58h282M289.13,0H0V141.73H289.13V0Z"/><path class="cls-2" d="M9.43,69V8.17H23.07c14.62,0,16.19,13.76,16.19,16.53,0,8.77-4,11.81-6.25,12.85,2.62,1,7.41,6.25,7.41,14.62A17,17,0,0,1,23.18,69Zm12-36.49c1.25,0,7-.74,7-7s-4.64-7-7-7Zm0,26.31c2.68,0,7-1.48,7-7.9s-4.28-8.84-7-8.84Z"/><path class="cls-2" d="M43,69V8.17H66.74V19.3H54.58V32.07H65V43.8H54.58V57.86H67V69Z"/><path class="cls-2" d="M190.1,69V8.17h23.71V19.3H201.66V32.07h10.45V43.8H201.66V69Z"/><path class="cls-2" d="M66.75,69,79.82,8.17H92.53L106.37,69H94L91.72,58.81H79.5L78.48,69ZM81.89,49.61h8.43L85.51,23.47Z"/><path class="cls-2" d="M118.27,8.17V53.29c0,2.07,1,5.61,5.69,5.61s5.79-3.48,5.79-5.61V8.17h11.64V51.05q0,9.41-4.43,14.1t-13,4.71q-8.47,0-12.85-4.79t-4.38-14V8.17Z"/><path class="cls-2" d="M228.07,8.17V53.29c0,2.07,1,5.61,5.69,5.61s5.78-3.48,5.78-5.61V8.17h11.65V51.05q0,9.41-4.43,14.1t-13,4.71q-8.47,0-12.85-4.79t-4.39-14V8.17Z"/><path class="cls-2" d="M152,69V19.52h-9.31V8.17H172.5V19.52h-9.23V69Z"/><path class="cls-2" d="M174,69V8.17h11.56V69Z"/><path class="cls-2" d="M255.38,69V8.17h11.56V57.59h12.14V69Z"/><path class="cls-2" d="M29.93,73.14c6.33,0,22.77,2.18,22.77,18.12S37,109.44,30.46,109.44H25.52v25H10.06V73.14ZM28.88,99.58c2,0,8.3-1.71,8.3-8s-5.1-8-8.3-8H25.42V99.58Z"/><path class="cls-2" d="M179.34,73.14c6.33,0,22.76,2.18,22.76,18.12s-15.71,18.18-22.24,18.18h-4.94v25H159.46V73.14Zm-1.05,26.44c2,0,8.29-1.71,8.29-8s-5.1-8-8.29-8h-3.46V99.58Z"/><path class="cls-2" d="M91.16,73.14V84.65H75.46V98H89.11V109.2H75.46v13.87h15.7v11.37H59.62V73.14Z"/><path class="cls-2" d="M279.08,73.14V84.65H263.39V98H277V109.2H263.39v13.87h15.69v11.37H247.55V73.14Z"/><path class="cls-2" d="M124.63,71.94c25.36,0,27.52,26.13,27.52,31.85s-.84,31.59-27.52,31.59-27.52-25.87-27.52-31.59S99.28,71.94,124.63,71.94Zm0,52.88c9.29,0,11.07-16.91,11.07-21S135,83.64,124.63,83.64s-11.06,16-11.06,20.15S115.34,124.82,124.63,124.82Z"/><path class="cls-2" d="M225.25,73.14v49.93h16.23v11.37H209.41V73.14Z"/></svg>